<?xml version="1.0" encoding="UTF-8"?>
<svg width="1920px" height="1080px" viewBox="0 0 1920 1080" version="1.1" xmlns="http://www.w3.org/2000/svg" xmlns:xlink="http://www.w3.org/1999/xlink">
    <!-- Generator: Sketch 48.2 (47327) - http://www.bohemiancoding.com/sketch -->
    <title>Error_500</title>
    <desc>Created with Sketch.</desc>
    <defs>
        <path d="M206.352539,606.12793 C206.922203,574.633632 215.141522,551.318435 231.010742,536.181641 C246.879962,521.044846 268.486191,513.069666 295.830078,512.255859 C313.24553,511.767576 328.280373,515.327924 340.935059,522.937012 C353.589744,530.546099 363.212858,541.552662 369.804688,555.957031 C376.396517,570.3614 379.529624,587.329004 379.204102,606.860352 C378.797198,628.588976 374.850298,646.533132 367.363281,660.693359 C359.876265,674.853586 349.541082,685.270149 336.357422,691.943359 C323.173762,698.61657 307.670988,701.953125 289.848633,701.953125 C272.27042,701.953125 257.133853,698.026569 244.438477,690.17334 C231.743101,682.32011 222.140332,671.191478 215.629883,656.787109 C209.119434,642.38274 206.027017,625.496516 206.352539,606.12793 Z M331.352539,605.517578 C331.352539,587.532462 328.300812,573.311413 322.197266,562.854004 C316.093719,552.396595 307.019917,547.167969 294.975586,547.167969 C282.605732,547.167969 272.718136,551.887974 265.3125,561.328125 C257.906864,570.768276 254.204102,586.148982 254.204102,607.470703 C254.204102,619.433654 255.648586,629.95194 258.537598,639.025879 C261.426609,648.099818 265.780407,655.179825 271.599121,660.266113 C277.417835,665.352402 284.558877,667.895508 293.022461,667.895508 C305.392314,667.895508 314.873014,662.91102 321.464844,652.941895 C328.056674,642.972769 331.352539,627.164822 331.352539,605.517578 Z M401.173013,629.199219 C401.173013,614.306566 404.204395,601.591036 410.267251,591.052246 C416.330107,580.513456 424.773219,572.517931 435.596841,567.06543 C446.420463,561.612928 458.95289,558.886719 473.194497,558.886719 C489.38924,558.886719 502.654081,562.101205 512.989419,568.530273 C523.324757,574.959342 530.832007,583.585558 535.511392,594.40918 C540.190777,605.232802 542.530435,617.52109 542.530435,631.274414 C542.530435,646.248447 539.519397,659.045357 533.497232,669.665527 C527.475066,680.285698 519.052299,688.321913 508.228677,693.774414 C497.405055,699.226915 484.872628,701.953125 470.631021,701.953125 C454.354898,701.953125 441.049367,698.718294 430.714029,692.248535 C420.37869,685.778776 412.871441,677.111871 408.192056,666.247559 C403.512671,655.383246 401.173013,643.033923 401.173013,629.199219 Z M495.533365,631.152344 C495.533365,618.78249 493.722673,608.874549 490.101236,601.428223 C486.479798,593.981896 480.559447,590.258789 472.340005,590.258789 C463.550899,590.258789 457.325375,593.412241 453.663247,599.719238 C450.00112,606.026236 448.170083,615.771418 448.170083,628.955078 C448.170083,641.569073 450.021465,651.700808 453.724283,659.350586 C457.4271,667.000364 463.388141,670.825195 471.607583,670.825195 C480.315309,670.825195 486.479798,667.631054 490.101236,661.242676 C493.722673,654.854297 495.533365,644.824287 495.533365,631.152344 Z M656.052081,558.886719 C666.306038,558.886719 675.623979,561.348445 684.006182,566.271973 C692.388386,571.1955 699.081841,578.641714 704.086749,588.61084 C709.091656,598.579965 711.594073,610.807219 711.594073,625.292969 C711.594073,640.755286 708.623725,654.28461 702.68294,665.881348 C696.742155,677.478085 688.400767,686.389129 677.658526,692.614746 C666.916285,698.840363 654.465237,701.953125 640.30501,701.953125 C631.515904,701.953125 623.866241,700.813813 617.355792,698.535156 L617.722003,716.967773 L617.722003,761.767578 L572.433917,761.767578 L572.433917,560.839844 L615.158526,560.839844 L615.158526,574.389648 C625.656625,564.05431 639.287674,558.886719 656.052081,558.886719 Z M663.986651,627.490234 C663.986651,614.95762 661.992856,605.985541 658.005206,600.57373 C654.017555,595.16192 648.239618,592.456055 640.671221,592.456055 C636.439429,592.456055 632.187356,593.168124 627.914874,594.592285 C623.642391,596.016446 620.244802,597.745758 617.722003,599.780273 L617.722003,666.430664 C621.139988,669.767269 627.528271,671.435547 636.887042,671.435547 C642.258162,671.435547 646.978167,669.72658 651.047198,666.308594 C655.116229,662.890608 658.290025,657.885775 660.568682,651.293945 C662.847339,644.702115 663.986651,636.767625 663.986651,627.490234 Z M739.422359,659.472656 C741.049972,660.856127 744.081354,662.524404 748.516598,664.477539 C752.951841,666.430674 758.099088,668.139641 763.958492,669.604492 C769.817896,671.069343 775.595833,671.801758 781.292476,671.801758 C788.128448,671.801758 793.072246,670.987964 796.124019,669.360352 C799.175792,667.732739 800.701656,665.169288 800.701656,661.669922 C800.701656,659.228503 799.562345,657.03126 797.283687,655.078125 C795.00503,653.12499 791.770199,651.273609 787.579098,649.523926 C783.387996,647.774243 777.711783,645.719413 770.550289,643.359375 C757.936294,639.208964 748.781112,633.573441 743.084469,626.452637 C737.387826,619.331833 734.580236,610.319065 734.661617,599.414062 C734.661617,590.706337 737.204723,583.300812 742.291012,577.197266 C747.3773,571.093719 754.294549,566.516129 763.042965,563.464355 C771.791381,560.412582 781.617943,558.886719 792.522945,558.886719 C802.776903,558.886719 811.83036,559.761547 819.68359,561.51123 C827.536819,563.260914 833.41648,565.234364 837.32275,567.431641 L833.29443,599.169922 C831.504056,597.62369 828.777846,596.016447 825.115719,594.348145 C821.453591,592.679842 817.364276,591.296392 812.847652,590.197754 C808.331028,589.099116 803.956886,588.549805 799.725094,588.549805 C792.075316,588.549805 786.622896,589.322909 783.367672,590.869141 C780.112447,592.415372 778.44417,594.816064 778.362789,598.071289 C778.362789,600.512708 779.217273,602.628572 780.926265,604.418945 C782.635258,606.209319 785.483537,607.979321 789.471187,609.729004 C793.458837,611.478687 799.277464,613.533517 806.927242,615.893555 C820.110902,620.125347 829.815395,625.516732 836.041012,632.067871 C842.266629,638.619011 845.37939,647.184192 845.37939,657.763672 C845.37939,667.285204 842.978698,675.362109 838.177242,681.994629 C833.375786,688.627149 826.560261,693.631982 817.730465,697.009277 C808.900668,700.386573 798.54514,702.075195 786.66357,702.075195 C779.420695,702.075195 772.340688,701.485195 765.423336,700.305176 C758.505983,699.125157 752.402529,697.660328 747.112789,695.910645 C741.823049,694.160961 737.794769,692.431649 735.027828,690.722656 L739.422359,659.472656 Z M868.935216,676.928711 C868.935216,672.127255 870.155907,667.590353 872.597325,663.317871 C875.038744,659.045389 878.354954,655.627454 882.546056,653.063965 C886.737157,650.500475 891.314748,649.21875 896.278966,649.21875 C901.324564,649.21875 905.719051,650.317372 909.46256,652.514648 C913.206068,654.711925 916.095037,657.763652 918.129552,661.669922 C920.164067,665.576191 921.18131,669.970679 921.18131,674.853516 C921.18131,679.736353 920.001308,684.313943 917.641271,688.586426 C915.281233,692.858908 912.026057,696.276843 907.875646,698.840332 C903.725234,701.403821 899.167988,702.685547 894.203771,702.685547 C889.320934,702.685547 884.967136,701.56658 881.142247,699.328613 C877.317358,697.090646 874.326666,694.018574 872.170079,690.112305 C870.013493,686.206035 868.935216,681.811548 868.935216,676.928711 Z M949.867833,676.928711 C949.867833,672.127255 951.088524,667.590353 953.529943,663.317871 C955.971361,659.045389 959.287571,655.627454 963.478673,653.063965 C967.669775,650.500475 972.247366,649.21875 977.211583,649.21875 C982.175801,649.21875 986.529598,650.317372 990.273107,652.514648 C994.016615,654.711925 996.905583,657.763652 998.940099,661.669922 C1000.97461,665.576191 1001.99186,669.970679 1001.99186,674.853516 C1001.99186,679.736353 1000.8322,684.313943 998.512853,688.586426 C996.193505,692.858908 992.958674,696.276843 988.808263,698.840332 C984.657851,701.403821 980.100605,702.685547 975.136388,702.685547 C970.253551,702.685547 965.899753,701.56658 962.074864,699.328613 C958.249975,697.090646 955.259283,694.018574 953.102696,690.112305 C950.94611,686.206035 949.867833,681.811548 949.867833,676.928711 Z M1030.80045,676.68457 C1030.80045,671.883114 1032.02114,667.366558 1034.46256,663.134766 C1036.90398,658.902974 1040.22019,655.525729 1044.41129,653.00293 C1048.60239,650.480131 1053.17998,649.21875 1058.1442,649.21875 C1063.10842,649.21875 1067.46222,650.317372 1071.20572,652.514648 C1074.94923,654.711925 1077.8382,657.763652 1079.87272,661.669922 C1081.90723,665.576191 1082.92447,669.970679 1082.92447,674.853516 C1082.92447,679.736353 1081.74447,684.313943 1079.38443,688.586426 C1077.0244,692.858908 1073.76922,696.276843 1069.61881,698.840332 C1065.4684,701.403821 1060.91115,702.685547 1055.94693,702.685547 C1051.0641,702.685547 1046.7103,701.546235 1042.88541,699.267578 C1039.06052,696.988921 1036.09017,693.876159 1033.97428,689.929199 C1031.85838,685.982239 1030.80045,681.567407 1030.80045,676.68457 Z" id="path-1"></path>
        <filter x="-0.2%" y="-0.6%" width="100.3%" height="101.2%" filterUnits="objectBoundingBox" id="filter-2">
            <feOffset dx="1.5" dy="3" in="SourceAlpha" result="shadowOffsetInner1"></feOffset>
            <feComposite in="shadowOffsetInner1" in2="SourceAlpha" operator="arithmetic" k2="-1" k3="1" result="shadowInnerInner1"></feComposite>
            <feColorMatrix values="0 0 0 0 0.431372549   0 0 0 0 0.180392157   0 0 0 0 0.349019608  0 0 0 1 0" type="matrix" in="shadowInnerInner1"></feColorMatrix>
        </filter>
        <path d="M1513.67676,331.138672 C1513.67676,327.378887 1514.33593,324.058608 1515.6543,321.177734 C1516.97266,318.296861 1518.57177,315.855479 1520.45166,313.853516 C1522.33155,311.851552 1524.83397,309.507826 1527.95898,306.822266 C1530.7422,304.429676 1532.90282,302.427742 1534.44092,300.816406 C1535.97901,299.20507 1537.28515,297.325206 1538.35938,295.176758 C1539.4336,293.02831 1539.9707,290.635755 1539.9707,287.999023 C1539.9707,283.60447 1538.40822,280.24757 1535.2832,277.928223 C1532.15819,275.608875 1527.08011,274.449219 1520.04883,274.449219 C1514.1406,274.449219 1508.37893,275.621082 1502.76367,277.964844 L1502.76367,258.335938 C1504.61915,257.115228 1507.92722,256.053227 1512.68799,255.149902 C1517.44875,254.246578 1522.17283,253.794922 1526.86035,253.794922 C1536.2354,253.794922 1544.08444,255.088854 1550.40771,257.676758 C1556.73099,260.264661 1561.45506,263.90232 1564.58008,268.589844 C1567.70509,273.277367 1569.21875,278.819304 1569.12109,285.21582 C1569.12109,290.098657 1568.32764,294.285627 1566.74072,297.776855 C1565.1538,301.268084 1563.2129,304.161121 1560.91797,306.456055 C1558.62304,308.750988 1555.59572,311.338853 1551.83594,314.219727 C1548.61327,316.709973 1546.07423,318.846182 1544.21875,320.628418 C1542.36327,322.410653 1540.77637,324.559069 1539.45801,327.07373 C1538.13964,329.588391 1537.40723,332.505843 1537.26074,335.826172 C1537.16309,337.437508 1537.26074,339.04882 1537.55371,340.660156 C1537.84668,342.271492 1538.35937,344.322253 1539.0918,346.8125 L1539.89746,349.81543 L1519.09668,349.81543 C1517.43652,347.129869 1516.11817,344.371108 1515.1416,341.539062 C1514.16503,338.707017 1513.67676,335.240255 1513.67676,331.138672 Z M1515.80078,375.816406 C1515.80078,373.082018 1516.52099,370.50636 1517.96143,368.089355 C1519.40186,365.672351 1521.34276,363.74366 1523.78418,362.303223 C1526.2256,360.862786 1528.86229,360.142578 1531.69434,360.142578 C1534.57521,360.142578 1537.10204,360.777337 1539.2749,362.046875 C1541.44776,363.316413 1543.14453,365.062001 1544.36523,367.283691 C1545.58594,369.505382 1546.19629,372.007799 1546.19629,374.791016 C1546.19629,377.574233 1545.5005,380.174304 1544.10889,382.591309 C1542.71728,385.008313 1540.813,386.949211 1538.396,388.414062 C1535.97899,389.878914 1533.33009,390.611328 1530.44922,390.611328 C1527.61717,390.611328 1525.09034,389.964362 1522.86865,388.67041 C1520.64696,387.376458 1518.91358,385.606457 1517.66846,383.360352 C1516.42333,381.114247 1515.80078,378.599623 1515.80078,375.816406 Z" id="path-3"></path>
        <filter x="-2.3%" y="-1.1%" width="104.5%" height="102.2%" filterUnits="objectBoundingBox" id="filter-4">
            <feOffset dx="1.5" dy="3" in="SourceAlpha" result="shadowOffsetInner1"></feOffset>
            <feComposite in="shadowOffsetInner1" in2="SourceAlpha" operator="arithmetic" k2="-1" k3="1" result="shadowInnerInner1"></feComposite>
            <feColorMatrix values="0 0 0 0 0.141176471   0 0 0 0 0.415686275   0 0 0 0 0.450980392  0 0 0 1 0" type="matrix" in="shadowInnerInner1"></feColorMatrix>
        </filter>
        <path d="M210.6875,833.617188 C210.6875,832.080721 211.078121,830.628913 211.859375,829.261719 C212.640629,827.894524 213.701816,826.800785 215.042969,825.980469 C216.384121,825.160152 217.84895,824.75 219.4375,824.75 C221.052091,824.75 222.458327,825.101559 223.65625,825.804688 C224.854173,826.507816 225.778643,827.484369 226.429688,828.734375 C227.080732,829.984381 227.40625,831.390617 227.40625,832.953125 C227.40625,834.515633 227.02865,835.980462 226.273438,837.347656 C225.518225,838.714851 224.476569,839.80859 223.148438,840.628906 C221.820306,841.449223 220.361987,841.859375 218.773438,841.859375 C217.21093,841.859375 215.817714,841.501306 214.59375,840.785156 C213.369786,840.069007 212.412764,839.085944 211.722656,837.835938 C211.032549,836.585931 210.6875,835.179695 210.6875,833.617188 Z M236.585938,833.617188 C236.585938,832.080721 236.976559,830.628913 237.757812,829.261719 C238.539066,827.894524 239.600254,826.800785 240.941406,825.980469 C242.282559,825.160152 243.747388,824.75 245.335938,824.75 C246.924487,824.75 248.317702,825.101559 249.515625,825.804688 C250.713548,826.507816 251.638018,827.484369 252.289062,828.734375 C252.940107,829.984381 253.265625,831.390617 253.265625,832.953125 C253.265625,834.515633 252.894535,835.980462 252.152344,837.347656 C251.410153,838.714851 250.375007,839.80859 249.046875,840.628906 C247.718743,841.449223 246.260425,841.859375 244.671875,841.859375 C243.109367,841.859375 241.716152,841.501306 240.492188,840.785156 C239.268223,840.069007 238.311201,839.085944 237.621094,837.835938 C236.930986,836.585931 236.585938,835.179695 236.585938,833.617188 Z M262.484375,833.539062 C262.484375,832.002596 262.874996,830.557298 263.65625,829.203125 C264.437504,827.848952 265.498691,826.768233 266.839844,825.960938 C268.180996,825.153642 269.645825,824.75 271.234375,824.75 C272.822925,824.75 274.21614,825.101559 275.414062,825.804688 C276.611985,826.507816 277.536455,827.484369 278.1875,828.734375 C278.838545,829.984381 279.164062,831.390617 279.164062,832.953125 C279.164062,834.515633 278.786462,835.980462 278.03125,837.347656 C277.276038,838.714851 276.234382,839.80859 274.90625,840.628906 C273.578118,841.449223 272.1198,841.859375 270.53125,841.859375 C268.968742,841.859375 267.575527,841.494795 266.351562,840.765625 C265.127598,840.036455 264.177087,839.040371 263.5,837.777344 C262.822913,836.514317 262.484375,835.10157 262.484375,833.539062 Z M336.3018,795.84375 C339.140356,795.84375 341.711945,796.071612 344.016644,796.527344 C346.321343,796.983075 347.851276,797.497393 348.606488,798.070312 L346.965863,808.929688 C344.804394,807.705723 341.900777,807.09375 338.254925,807.09375 C336.536167,807.09375 334.92811,807.46484 333.430707,808.207031 C331.933303,808.949222 330.709357,810.179679 329.758832,811.898438 C328.808306,813.617196 328.33305,815.856757 328.33305,818.617188 C328.33305,822.783875 329.25101,825.811188 331.086957,827.699219 C332.922903,829.587249 335.351265,830.53125 338.372113,830.53125 C340.195039,830.53125 341.920282,830.381512 343.547894,830.082031 C345.175507,829.782551 346.484087,829.39844 347.473675,828.929688 L349.231488,837.09375 C347.981482,838.39584 346.047907,839.476558 343.430707,840.335938 C340.813506,841.195317 338.085669,841.625 335.247113,841.625 C330.481464,841.625 326.484108,840.667978 323.254925,838.753906 C320.025743,836.839834 317.623423,834.196631 316.047894,830.824219 C314.472365,827.451806 313.684613,823.565126 313.684613,819.164062 C313.684613,814.684873 314.504917,810.694028 316.14555,807.191406 C317.786184,803.688785 320.299179,800.921885 323.684613,798.890625 C327.070047,796.859365 331.275734,795.84375 336.3018,795.84375 Z M375.905826,795.6875 C380.645433,795.6875 384.414926,796.24088 387.214419,797.347656 C390.013913,798.454433 392.045142,800.225248 393.308169,802.660156 C394.571197,805.095064 395.202701,808.382792 395.202701,812.523438 L395.202701,841.625 L386.140201,841.625 C384.96832,841.625 384.082912,841.546876 383.483951,841.390625 C382.884989,841.234374 382.416244,840.869795 382.077701,840.296875 C381.739157,839.723955 381.569888,838.812506 381.569888,837.5625 L381.569888,837.25 C378.236538,840.166681 374.095955,841.625 369.148013,841.625 C366.257374,841.625 363.711826,841.019537 361.511294,839.808594 C359.310763,838.59765 357.611561,836.911469 356.413638,834.75 C355.215716,832.588531 354.616763,830.140639 354.616763,827.40625 C354.616763,824.828112 355.326391,822.56902 356.745669,820.628906 C358.164947,818.688792 360.124563,817.184901 362.624576,816.117188 C365.072505,815.075516 367.845914,814.365887 370.944888,813.988281 C374.043862,813.610675 377.3381,813.421875 380.827701,813.421875 L380.827701,810.726562 C380.827701,809.398431 380.612859,808.395837 380.183169,807.71875 C379.75348,807.041663 378.972238,806.572918 377.839419,806.3125 C376.706601,806.052082 374.994379,805.921875 372.702701,805.921875 C371.009984,805.921875 368.829016,806.227862 366.159732,806.839844 C363.490448,807.451826 361.192294,808.200516 359.265201,809.085938 L356.335513,800.570312 C357.507394,799.867184 359.148003,799.138025 361.257388,798.382812 C363.366774,797.6276 365.717011,796.989586 368.308169,796.46875 C370.899328,795.947914 373.431855,795.6875 375.905826,795.6875 Z M375.202701,832.71875 C376.296456,832.71875 377.396706,832.523439 378.503482,832.132812 C379.610258,831.742186 380.38499,831.312502 380.827701,830.84375 L380.827701,820.375 C379.421444,820.401042 377.963125,820.54427 376.452701,820.804688 C374.942276,821.065105 373.796455,821.377602 373.015201,821.742188 C371.973529,822.158856 371.133693,822.725257 370.495669,823.441406 C369.857645,824.157556 369.538638,825.231764 369.538638,826.664062 C369.538638,828.643239 370.085508,830.14713 371.179263,831.175781 C372.273019,832.204432 373.614151,832.71875 375.202701,832.71875 Z M420.197351,796.46875 L420.548913,801.234375 C422.319756,799.749993 424.546296,798.473964 427.228601,797.40625 C429.910906,796.338536 432.528067,795.791667 435.080163,795.765625 C438.179137,795.6875 440.724685,796.201817 442.716882,797.308594 C444.70908,798.41537 446.19995,800.244779 447.189538,802.796875 C448.179127,805.348971 448.673913,808.734354 448.673913,812.953125 L448.673913,841 L434.220788,841 L434.220788,815.53125 C434.220788,813.343739 434.038499,811.638027 433.673913,810.414062 C433.309328,809.190098 432.723397,808.324221 431.916101,807.816406 C431.108805,807.308591 429.989025,807.080729 428.556726,807.132812 C427.436929,807.132812 426.206472,807.393227 424.86532,807.914062 C423.524167,808.434898 422.384856,809.138016 421.447351,810.023438 L421.447351,841 L406.994226,841 L406.994226,796.46875 L420.197351,796.46875 Z M460.231064,800.335938 C460.856067,799.5026 461.376895,798.187509 461.793564,796.390625 C462.210232,794.593741 462.418564,792.653656 462.418564,790.570312 C462.418564,789.033846 462.236274,787.6211 461.871689,786.332031 C461.507103,785.042962 461.057889,783.975265 460.524032,783.128906 C459.990176,782.282548 459.462837,781.716147 458.942001,781.429688 L458.942001,778.34375 L466.832626,772.40625 C468.004507,772.848961 469.156839,773.721348 470.289657,775.023438 C471.422476,776.325527 472.346945,777.992177 473.063095,780.023438 C473.779244,782.054698 474.137314,784.3203 474.137314,786.820312 C474.137314,790.153662 473.668568,793.089831 472.731064,795.628906 C471.793559,798.167981 470.719351,800.199211 469.508407,801.722656 C468.297464,803.246101 467.158152,804.411454 466.090439,805.21875 L460.231064,801.46875 L460.231064,800.335938 Z M486.280401,805.960938 L481.124151,805.960938 L481.124151,798.304688 C483.415829,797.627601 485.134562,796.996097 486.280401,796.410156 C487.42624,795.824216 488.272586,794.958339 488.819464,793.8125 C489.158007,793.135413 489.822063,791.546888 490.811651,789.046875 L491.944464,786.3125 L500.733526,786.3125 L500.733526,796.46875 L512.296026,796.46875 L512.296026,805.960938 L500.733526,805.960938 L500.733526,821.820312 C500.733526,824.580743 500.883264,826.585931 501.182745,827.835938 C501.482226,829.085944 501.977012,829.893227 502.66712,830.257812 C503.357228,830.622398 504.431436,830.804688 505.889776,830.804688 C506.905406,830.804688 508.07727,830.628908 509.405401,830.277344 C510.733533,829.925779 511.736127,829.515627 512.413214,829.046875 L514.131964,837.09375 C513.376752,837.796879 512.23093,838.499996 510.694464,839.203125 C509.157998,839.906254 507.387182,840.485675 505.381964,840.941406 C503.376745,841.397138 501.345516,841.625 499.288214,841.625 C496.137156,841.625 493.60463,841.097662 491.690558,840.042969 C489.776486,838.988276 488.396291,837.39975 487.549933,835.277344 C486.703574,833.154937 486.280401,830.440121 486.280401,827.132812 L486.280401,805.960938 Z M573.652514,795.765625 C575.267106,795.765625 576.347824,795.947915 576.894702,796.3125 L576.894702,810.570312 C575.670737,809.867184 574.082212,809.515625 572.129077,809.515625 C567.936348,809.515625 564.563985,810.934882 562.011889,813.773438 L562.011889,841 L547.519702,841 L547.519702,796.46875 L560.215014,796.46875 L560.840014,803.617188 C561.438976,802.106763 562.369956,800.75261 563.632983,799.554688 C564.89601,798.356765 566.393391,797.425785 568.125171,796.761719 C569.85695,796.097653 571.69938,795.765625 573.652514,795.765625 Z M623.647165,813.929688 C623.647165,817.210954 623.490916,819.945302 623.178415,822.132812 L597.045602,822.132812 C597.358104,825.361995 598.451843,827.712232 600.326852,829.183594 C602.201861,830.654955 604.819023,831.390625 608.178415,831.390625 C610.2878,831.390625 612.533871,831.162763 614.916696,830.707031 C617.29952,830.2513 619.037784,829.723961 620.13154,829.125 L622.358102,836.820312 C620.743511,838.122402 618.347701,839.248693 615.170602,840.199219 C611.993503,841.149744 608.529996,841.625 604.779977,841.625 C600.04037,841.625 596.010462,840.70704 592.690133,838.871094 C589.369804,837.035147 586.856808,834.391944 585.151071,830.941406 C583.445333,827.490868 582.592477,823.356795 582.592477,818.539062 C582.592477,814.190082 583.477885,810.296892 585.248727,806.859375 C587.019569,803.421858 589.591158,800.726572 592.963571,798.773438 C596.335983,796.820303 600.326829,795.84375 604.936227,795.84375 C610.405004,795.84375 614.877616,797.210924 618.354196,799.945312 C621.830776,802.679701 623.595081,807.341113 623.647165,813.929688 Z M610.248727,814.90625 C610.274769,814.515623 610.28779,813.955733 610.28779,813.226562 C610.28779,810.492174 609.838575,808.467454 608.940133,807.152344 C608.041691,805.837233 606.602904,805.179688 604.623727,805.179688 C602.462258,805.179688 600.769566,805.915357 599.545602,807.386719 C598.321638,808.85808 597.527375,811.364566 597.16279,814.90625 L610.248727,814.90625 Z M651.571502,795.6875 C656.311109,795.6875 660.080603,796.24088 662.880096,797.347656 C665.679589,798.454433 667.710819,800.225248 668.973846,802.660156 C670.236873,805.095064 670.868377,808.382792 670.868377,812.523438 L670.868377,841.625 L661.805877,841.625 C660.633996,841.625 659.748589,841.546876 659.149627,841.390625 C658.550666,841.234374 658.081921,840.869795 657.743377,840.296875 C657.404834,839.723955 657.235565,838.812506 657.235565,837.5625 L657.235565,837.25 C653.902215,840.166681 649.761631,841.625 644.81369,841.625 C641.92305,841.625 639.377503,841.019537 637.176971,839.808594 C634.976439,838.59765 633.277237,836.911469 632.079315,834.75 C630.881392,832.588531 630.28244,830.140639 630.28244,827.40625 C630.28244,824.828112 630.992068,822.56902 632.411346,820.628906 C633.830624,818.688792 635.79024,817.184901 638.290252,816.117188 C640.738181,815.075516 643.511591,814.365887 646.610565,813.988281 C649.709539,813.610675 653.003776,813.421875 656.493377,813.421875 L656.493377,810.726562 C656.493377,809.398431 656.278536,808.395837 655.848846,807.71875 C655.419156,807.041663 654.637914,806.572918 653.505096,806.3125 C652.372278,806.052082 650.660055,805.921875 648.368377,805.921875 C646.67566,805.921875 644.494693,806.227862 641.825409,806.839844 C639.156124,807.451826 636.85797,808.200516 634.930877,809.085938 L632.00119,800.570312 C633.173071,799.867184 634.813679,799.138025 636.923065,798.382812 C639.03245,797.6276 641.382687,796.989586 643.973846,796.46875 C646.565005,795.947914 649.097532,795.6875 651.571502,795.6875 Z M650.868377,832.71875 C651.962133,832.71875 653.062382,832.523439 654.169159,832.132812 C655.275935,831.742186 656.050667,831.312502 656.493377,830.84375 L656.493377,820.375 C655.08712,820.401042 653.628801,820.54427 652.118377,820.804688 C650.607953,821.065105 649.462131,821.377602 648.680877,821.742188 C647.639205,822.158856 646.79937,822.725257 646.161346,823.441406 C645.523322,824.157556 645.204315,825.231764 645.204315,826.664062 C645.204315,828.643239 645.751184,830.14713 646.84494,831.175781 C647.938695,832.204432 649.279828,832.71875 650.868377,832.71875 Z M702.230215,795.84375 C705.068771,795.84375 707.64036,796.071612 709.945059,796.527344 C712.249758,796.983075 713.77969,797.497393 714.534902,798.070312 L712.894277,808.929688 C710.732808,807.705723 707.829192,807.09375 704.18334,807.09375 C702.464581,807.09375 700.856525,807.46484 699.359121,808.207031 C697.861718,808.949222 696.637772,810.179679 695.687246,811.898438 C694.736721,813.617196 694.261465,815.856757 694.261465,818.617188 C694.261465,822.783875 695.179425,825.811188 697.015371,827.699219 C698.851318,829.587249 701.279679,830.53125 704.300527,830.53125 C706.123453,830.53125 707.848696,830.381512 709.476309,830.082031 C711.103921,829.782551 712.412502,829.39844 713.40209,828.929688 L715.159902,837.09375 C713.909896,838.39584 711.976322,839.476558 709.359121,840.335938 C706.741921,841.195317 704.014083,841.625 701.175527,841.625 C696.409879,841.625 692.412523,840.667978 689.18334,838.753906 C685.954157,836.839834 683.551837,834.196631 681.976309,830.824219 C680.40078,827.451806 679.613027,823.565126 679.613027,819.164062 C679.613027,814.684873 680.433332,810.694028 682.073965,807.191406 C683.714598,803.688785 686.227594,800.921885 689.613027,798.890625 C692.998461,796.859365 697.204148,795.84375 702.230215,795.84375 Z M751.638928,795.765625 C756.300409,795.765625 759.737875,797.178371 761.951428,800.003906 C764.16498,802.829441 765.27174,807.184866 765.27174,813.070312 L765.27174,841 L750.779553,841 L750.779553,815.53125 C750.779553,813.343739 750.584242,811.644537 750.193615,810.433594 C749.802988,809.22265 749.210546,808.369794 748.416271,807.875 C747.621997,807.380206 746.57383,807.132812 745.27174,807.132812 C744.177985,807.132812 742.934508,807.360675 741.541271,807.816406 C740.148035,808.272138 738.94362,809.007807 737.92799,810.023438 L737.92799,841 L723.435803,841 L723.435803,776.078125 L737.92799,776.078125 L737.92799,792.796875 L737.263928,801.117188 C739.008728,799.658847 741.157144,798.402349 743.70924,797.347656 C746.261336,796.292963 748.904539,795.765625 751.638928,795.765625 Z M800.964166,818.34375 C800.964166,813.578101 801.934208,809.509131 803.874322,806.136719 C805.814436,802.764306 808.516232,800.205738 811.979791,798.460938 C815.44335,796.716137 819.453726,795.84375 824.011041,795.84375 C829.193358,795.84375 833.438107,796.872386 836.745416,798.929688 C840.052724,800.986989 842.455044,803.747379 843.952447,807.210938 C845.44985,810.674496 846.198541,814.606749 846.198541,819.007812 C846.198541,823.799503 845.235009,827.894514 843.307916,831.292969 C841.380823,834.691423 838.685537,837.263012 835.221978,839.007812 C831.758419,840.752613 827.748043,841.625 823.190728,841.625 C817.982369,841.625 813.724599,840.589854 810.417291,838.519531 C807.109982,836.449208 804.707663,833.675799 803.210259,830.199219 C801.712856,826.722639 800.964166,822.770855 800.964166,818.34375 Z M831.159478,818.96875 C831.159478,815.010397 830.580057,811.839856 829.421197,809.457031 C828.262337,807.074207 826.367825,805.882812 823.737603,805.882812 C820.925089,805.882812 818.932922,806.891917 817.761041,808.910156 C816.58916,810.928396 816.003228,814.046854 816.003228,818.265625 C816.003228,822.302104 816.59567,825.544259 817.780572,827.992188 C818.965474,830.440116 820.873007,831.664062 823.503228,831.664062 C826.2897,831.664062 828.262337,830.641937 829.421197,828.597656 C830.580057,826.553375 831.159478,823.343772 831.159478,818.96875 Z M896.427566,796.46875 L896.427566,841.625 L885.958816,841.625 C884.969228,841.625 884.27262,841.475262 883.868972,841.175781 C883.465324,840.876301 883.263503,840.270838 883.263503,839.359375 L883.263503,837.484375 C881.700996,838.682298 879.676276,839.671871 877.189285,840.453125 C874.702293,841.234379 872.404139,841.625 870.294753,841.625 C866.154108,841.625 862.983566,840.843758 860.783035,839.28125 C858.582503,837.718742 857.104653,835.583347 856.349441,832.875 C855.594229,830.166653 855.216628,826.755229 855.216628,822.640625 L855.216628,796.46875 L869.708816,796.46875 L869.708816,822.992188 C869.708816,825.179698 869.917147,826.87239 870.333816,828.070312 C870.750485,829.268235 871.381989,830.09505 872.228347,830.550781 C873.074706,831.006513 874.200996,831.234375 875.607253,831.234375 C876.85726,831.234375 878.081206,831.019533 879.279128,830.589844 C880.477051,830.160154 881.362459,829.684898 881.935378,829.164062 L881.935378,796.46875 L896.427566,796.46875 Z M934.859716,795.765625 C936.474308,795.765625 937.555026,795.947915 938.101904,796.3125 L938.101904,810.570312 C936.877939,809.867184 935.289413,809.515625 933.336279,809.515625 C929.143549,809.515625 925.771187,810.934882 923.219091,813.773438 L923.219091,841 L908.726904,841 L908.726904,796.46875 L921.422216,796.46875 L922.047216,803.617188 C922.646177,802.106763 923.577158,800.75261 924.840185,799.554688 C926.103212,798.356765 927.600593,797.425785 929.332372,796.761719 C931.064152,796.097653 932.906581,795.765625 934.859716,795.765625 Z M972.544329,828.03125 C973.065165,828.473961 974.035207,829.007809 975.454485,829.632812 C976.873763,830.257816 978.520882,830.804685 980.395892,831.273438 C982.270901,831.74219 984.119841,831.976562 985.942767,831.976562 C988.130278,831.976562 989.712293,831.716148 990.68886,831.195312 C991.665428,830.674477 992.153704,829.854172 992.153704,828.734375 C992.153704,827.953121 991.789124,827.250003 991.059954,826.625 C990.330784,825.999997 989.295638,825.407555 987.954485,824.847656 C986.613333,824.287758 984.796945,823.630212 982.505267,822.875 C978.468788,821.546868 975.53913,819.743501 973.716204,817.464844 C971.893278,815.186187 970.99485,812.302101 971.020892,808.8125 C971.020892,806.026028 971.834686,803.65626 973.462298,801.703125 C975.08991,799.74999 977.30343,798.285161 980.102923,797.308594 C982.902416,796.332026 986.046916,795.84375 989.536517,795.84375 C992.817783,795.84375 995.714889,796.123695 998.227923,796.683594 C1000.74096,797.243492 1002.62245,797.874996 1003.87245,798.578125 L1002.58339,808.734375 C1002.01047,808.239581 1001.13808,807.725263 999.966204,807.191406 C998.794323,806.657549 997.485743,806.214846 996.040423,805.863281 C994.595103,805.511717 993.195378,805.335938 991.841204,805.335938 C989.393275,805.335938 987.648501,805.583331 986.606829,806.078125 C985.565157,806.572919 985.031308,807.341141 985.005267,808.382812 C985.005267,809.164066 985.278701,809.841143 985.825579,810.414062 C986.372457,810.986982 987.283906,811.553383 988.559954,812.113281 C989.836002,812.67318 991.697963,813.330725 994.145892,814.085938 C998.364663,815.440111 1001.4701,817.165354 1003.4623,819.261719 C1005.4545,821.358083 1006.45058,824.098941 1006.45058,827.484375 C1006.45058,830.531265 1005.68236,833.115875 1004.14589,835.238281 C1002.60943,837.360688 1000.42846,838.962234 997.602923,840.042969 C994.777388,841.123703 991.463619,841.664062 987.661517,841.664062 C985.343797,841.664062 983.078194,841.475262 980.864642,841.097656 C978.651089,840.72005 976.697983,840.251305 975.005267,839.691406 C973.31255,839.131508 972.0235,838.578128 971.138079,838.03125 L972.544329,828.03125 Z M1053.67179,813.929688 C1053.67179,817.210954 1053.51554,819.945302 1053.20304,822.132812 L1027.07023,822.132812 C1027.38273,825.361995 1028.47647,827.712232 1030.35148,829.183594 C1032.22649,830.654955 1034.84365,831.390625 1038.20304,831.390625 C1040.31243,831.390625 1042.5585,831.162763 1044.94132,830.707031 C1047.32415,830.2513 1049.06241,829.723961 1050.15617,829.125 L1052.38273,836.820312 C1050.76814,838.122402 1048.37233,839.248693 1045.19523,840.199219 C1042.01813,841.149744 1038.55462,841.625 1034.8046,841.625 C1030.065,841.625 1026.03509,840.70704 1022.71476,838.871094 C1019.39443,837.035147 1016.88144,834.391944 1015.1757,830.941406 C1013.46996,827.490868 1012.6171,823.356795 1012.6171,818.539062 C1012.6171,814.190082 1013.50251,810.296892 1015.27335,806.859375 C1017.0442,803.421858 1019.61579,800.726572 1022.9882,798.773438 C1026.36061,796.820303 1030.35146,795.84375 1034.96085,795.84375 C1040.42963,795.84375 1044.90224,797.210924 1048.37882,799.945312 C1051.8554,802.679701 1053.61971,807.341113 1053.67179,813.929688 Z M1040.27335,814.90625 C1040.2994,814.515623 1040.31242,813.955733 1040.31242,813.226562 C1040.31242,810.492174 1039.8632,808.467454 1038.96476,807.152344 C1038.06632,805.837233 1036.62753,805.179688 1034.64835,805.179688 C1032.48689,805.179688 1030.79419,805.915357 1029.57023,807.386719 C1028.34626,808.85808 1027.552,811.364566 1027.18742,814.90625 L1040.27335,814.90625 Z M1089.09613,795.765625 C1090.71072,795.765625 1091.79144,795.947915 1092.33832,796.3125 L1092.33832,810.570312 C1091.11435,809.867184 1089.52583,809.515625 1087.57269,809.515625 C1083.37996,809.515625 1080.0076,810.934882 1077.4555,813.773438 L1077.4555,841 L1062.96332,841 L1062.96332,796.46875 L1075.65863,796.46875 L1076.28363,803.617188 C1076.88259,802.106763 1077.81357,800.75261 1079.0766,799.554688 C1080.33963,798.356765 1081.83701,797.425785 1083.56879,796.761719 C1085.30057,796.097653 1087.14299,795.765625 1089.09613,795.765625 Z M1141.90328,796.46875 L1125.22359,841.625 L1111.39547,841.625 L1094.52047,796.46875 L1110.02828,796.46875 L1115.77047,815.882812 L1118.62203,827.25 L1121.20015,815.882812 L1126.74703,796.46875 L1141.90328,796.46875 Z M1186.07762,813.929688 C1186.07762,817.210954 1185.92137,819.945302 1185.60887,822.132812 L1159.47605,822.132812 C1159.78856,825.361995 1160.8823,827.712232 1162.7573,829.183594 C1164.63231,830.654955 1167.24948,831.390625 1170.60887,831.390625 C1172.71825,831.390625 1174.96432,831.162763 1177.34715,830.707031 C1179.72997,830.2513 1181.46824,829.723961 1182.56199,829.125 L1184.78855,836.820312 C1183.17396,838.122402 1180.77815,839.248693 1177.60105,840.199219 C1174.42396,841.149744 1170.96045,841.625 1167.21043,841.625 C1162.47082,841.625 1158.44092,840.70704 1155.12059,838.871094 C1151.80026,837.035147 1149.28726,834.391944 1147.58152,830.941406 C1145.87579,827.490868 1145.02293,823.356795 1145.02293,818.539062 C1145.02293,814.190082 1145.90834,810.296892 1147.67918,806.859375 C1149.45002,803.421858 1152.02161,800.726572 1155.39402,798.773438 C1158.76644,796.820303 1162.75728,795.84375 1167.36668,795.84375 C1172.83546,795.84375 1177.30807,797.210924 1180.78465,799.945312 C1184.26123,802.679701 1186.02553,807.341113 1186.07762,813.929688 Z M1172.67918,814.90625 C1172.70522,814.515623 1172.71824,813.955733 1172.71824,813.226562 C1172.71824,810.492174 1172.26903,808.467454 1171.37059,807.152344 C1170.47214,805.837233 1169.03336,805.179688 1167.05418,805.179688 C1164.89271,805.179688 1163.20002,805.915357 1161.97605,807.386719 C1160.75209,808.85808 1159.95783,811.364566 1159.59324,814.90625 L1172.67918,814.90625 Z M1221.50196,795.765625 C1223.11655,795.765625 1224.19726,795.947915 1224.74414,796.3125 L1224.74414,810.570312 C1223.52018,809.867184 1221.93165,809.515625 1219.97852,809.515625 C1215.78579,809.515625 1212.41343,810.934882 1209.86133,813.773438 L1209.86133,841 L1195.36914,841 L1195.36914,796.46875 L1208.06446,796.46875 L1208.68946,803.617188 C1209.28842,802.106763 1210.2194,800.75261 1211.48242,799.554688 C1212.74545,798.356765 1214.24283,797.425785 1215.97461,796.761719 C1217.70639,796.097653 1219.54882,795.765625 1221.50196,795.765625 Z M1232.70754,828.03125 C1233.22838,828.473961 1234.19842,829.007809 1235.6177,829.632812 C1237.03698,830.257816 1238.6841,830.804685 1240.55911,831.273438 C1242.43411,831.74219 1244.28305,831.976562 1246.10598,831.976562 C1248.29349,831.976562 1249.87551,831.716148 1250.85207,831.195312 C1251.82864,830.674477 1252.31692,829.854172 1252.31692,828.734375 C1252.31692,827.953121 1251.95234,827.250003 1251.22317,826.625 C1250.494,825.999997 1249.45885,825.407555 1248.1177,824.847656 C1246.77655,824.287758 1244.96016,823.630212 1242.66848,822.875 C1238.632,821.546868 1235.70234,819.743501 1233.87942,817.464844 C1232.05649,815.186187 1231.15806,812.302101 1231.18411,808.8125 C1231.18411,806.026028 1231.9979,803.65626 1233.62551,801.703125 C1235.25312,799.74999 1237.46664,798.285161 1240.26614,797.308594 C1243.06563,796.332026 1246.21013,795.84375 1249.69973,795.84375 C1252.981,795.84375 1255.8781,796.123695 1258.39114,796.683594 C1260.90417,797.243492 1262.78566,797.874996 1264.03567,798.578125 L1262.74661,808.734375 C1262.17369,808.239581 1261.3013,807.725263 1260.12942,807.191406 C1258.95754,806.657549 1257.64896,806.214846 1256.20364,805.863281 C1254.75832,805.511717 1253.35859,805.335938 1252.00442,805.335938 C1249.55649,805.335938 1247.81171,805.583331 1246.77004,806.078125 C1245.72837,806.572919 1245.19452,807.341141 1245.16848,808.382812 C1245.16848,809.164066 1245.44192,809.841143 1245.98879,810.414062 C1246.53567,810.986982 1247.44712,811.553383 1248.72317,812.113281 C1249.99922,812.67318 1251.86118,813.330725 1254.30911,814.085938 C1258.52788,815.440111 1261.63331,817.165354 1263.62551,819.261719 C1265.61771,821.358083 1266.61379,824.098941 1266.61379,827.484375 C1266.61379,830.531265 1265.84557,833.115875 1264.30911,835.238281 C1262.77264,837.360688 1260.59167,838.962234 1257.76614,840.042969 C1254.9406,841.123703 1251.62683,841.664062 1247.82473,841.664062 C1245.50701,841.664062 1243.24141,841.475262 1241.02786,841.097656 C1238.8143,840.72005 1236.8612,840.251305 1235.16848,839.691406 C1233.47576,839.131508 1232.18671,838.578128 1231.30129,838.03125 L1232.70754,828.03125 Z M1328.04841,795.765625 C1329.663,795.765625 1330.74372,795.947915 1331.29059,796.3125 L1331.29059,810.570312 C1330.06663,809.867184 1328.4781,809.515625 1326.52497,809.515625 C1322.33224,809.515625 1318.95988,810.934882 1316.40778,813.773438 L1316.40778,841 L1301.91559,841 L1301.91559,796.46875 L1314.61091,796.46875 L1315.23591,803.617188 C1315.83487,802.106763 1316.76585,800.75261 1318.02887,799.554688 C1319.2919,798.356765 1320.78928,797.425785 1322.52106,796.761719 C1324.25284,796.097653 1326.09527,795.765625 1328.04841,795.765625 Z M1354.41024,796.46875 L1354.41024,841 L1339.87899,841 L1339.87899,796.46875 L1354.41024,796.46875 Z M1338.47274,783.578125 C1338.47274,782.145826 1338.86988,780.811204 1339.66415,779.574219 C1340.45842,778.337233 1341.52612,777.35417 1342.86727,776.625 C1344.20843,775.89583 1345.64722,775.53125 1347.18368,775.53125 C1348.74619,775.53125 1350.13289,775.843747 1351.34384,776.46875 C1352.55478,777.093753 1353.49227,777.972651 1354.15634,779.105469 C1354.8204,780.238287 1355.15243,781.533847 1355.15243,782.992188 C1355.15243,784.424486 1354.76181,785.759108 1353.98056,786.996094 C1353.1993,788.233079 1352.14463,789.222653 1350.81649,789.964844 C1349.48836,790.707035 1348.05608,791.078125 1346.51962,791.078125 C1344.98315,791.078125 1343.60296,790.759118 1342.37899,790.121094 C1341.15503,789.48307 1340.19801,788.591152 1339.5079,787.445312 C1338.81779,786.299473 1338.47274,785.010424 1338.47274,783.578125 Z M1412.88146,806.429688 L1405.69396,806.429688 C1405.98042,807.62761 1406.12364,808.851556 1406.12364,810.101562 C1406.12364,814.684919 1404.41142,818.22655 1400.98693,820.726562 C1397.56243,823.226575 1392.30858,824.476562 1385.22521,824.476562 C1383.6627,824.476562 1382.17834,824.398438 1380.77208,824.242188 C1380.30333,824.658856 1379.95177,825.147133 1379.71739,825.707031 C1379.48302,826.26693 1379.36583,826.83333 1379.36583,827.40625 C1379.36583,828.473964 1379.78249,829.222654 1380.61583,829.652344 C1381.44917,830.082033 1382.92051,830.296875 1385.02989,830.296875 L1393.85802,830.296875 C1400.29034,830.296875 1404.83457,831.540352 1407.49083,834.027344 C1410.14709,836.514335 1411.47521,839.776021 1411.47521,843.8125 C1411.47521,847.536477 1410.29683,850.707018 1407.94005,853.324219 C1405.58327,855.941419 1402.49736,857.901035 1398.68224,859.203125 C1394.86711,860.505215 1390.78512,861.15625 1386.43614,861.15625 C1378.64965,861.15625 1372.8359,859.971366 1368.99474,857.601562 C1365.15357,855.231759 1363.23302,851.9245 1363.23302,847.679688 C1363.23302,845.700511 1363.80593,843.877612 1364.95177,842.210938 C1366.09761,840.544263 1367.75124,839.229171 1369.91271,838.265625 C1368.74083,837.640622 1367.84891,836.748704 1367.23693,835.589844 C1366.62494,834.430984 1366.31896,833.135424 1366.31896,831.703125 C1366.31896,829.984366 1366.88536,828.298185 1368.01818,826.644531 C1369.15099,824.990877 1371.00644,823.617193 1373.58458,822.523438 C1370.71998,821.351557 1368.51948,819.730479 1366.98302,817.660156 C1365.44655,815.589833 1364.67833,813.148452 1364.67833,810.335938 C1364.67833,805.544247 1366.44264,801.944022 1369.9713,799.535156 C1373.49996,797.12629 1378.58455,795.908854 1385.22521,795.882812 C1391.81378,795.882812 1396.83977,796.976552 1400.30333,799.164062 C1401.18875,798.40885 1402.28249,797.770836 1403.58458,797.25 C1404.88667,796.729164 1406.31895,796.46875 1407.88146,796.46875 L1412.88146,796.46875 L1412.88146,806.429688 Z M1385.34239,816.898438 C1387.55595,816.898438 1389.24864,816.410161 1390.42052,815.433594 C1391.5924,814.457026 1392.17833,812.731783 1392.17833,810.257812 C1392.17833,805.648414 1389.95179,803.34375 1385.49864,803.34375 C1383.25905,803.34375 1381.54032,803.858068 1380.34239,804.886719 C1379.14447,805.91537 1378.54552,807.692696 1378.54552,810.21875 C1378.54552,812.354177 1379.11843,814.001296 1380.26427,815.160156 C1381.41011,816.319016 1383.1028,816.898438 1385.34239,816.898438 Z M1379.17052,840.570312 C1378.23301,841.846361 1377.76427,843.343741 1377.76427,845.0625 C1377.76427,847.458345 1378.43484,849.437492 1379.77599,851 C1381.11714,852.562508 1383.49342,853.34375 1386.90489,853.34375 C1390.02991,853.34375 1392.51035,852.809901 1394.3463,851.742188 C1396.18225,850.674474 1397.10021,849.007824 1397.10021,846.742188 C1397.10021,845.440098 1396.88536,844.346359 1396.45568,843.460938 C1396.02599,842.575516 1395.19266,841.872398 1393.95568,841.351562 C1392.71869,840.830727 1390.94136,840.570312 1388.62364,840.570312 L1379.17052,840.570312 Z M1448.18861,795.765625 C1452.85009,795.765625 1456.28755,797.178371 1458.50111,800.003906 C1460.71466,802.829441 1461.82142,807.184866 1461.82142,813.070312 L1461.82142,841 L1447.32923,841 L1447.32923,815.53125 C1447.32923,813.343739 1447.13392,811.644537 1446.74329,810.433594 C1446.35267,809.22265 1445.76023,808.369794 1444.96595,807.875 C1444.17168,807.380206 1443.12351,807.132812 1441.82142,807.132812 C1440.72766,807.132812 1439.48419,807.360675 1438.09095,807.816406 C1436.69771,808.272138 1435.4933,809.007807 1434.47767,810.023438 L1434.47767,841 L1419.98548,841 L1419.98548,776.078125 L1434.47767,776.078125 L1434.47767,792.796875 L1433.81361,801.117188 C1435.55841,799.658847 1437.70682,798.402349 1440.25892,797.347656 C1442.81102,796.292963 1445.45422,795.765625 1448.18861,795.765625 Z M1475.05826,805.960938 L1469.90201,805.960938 L1469.90201,798.304688 C1472.19368,797.627601 1473.91242,796.996097 1475.05826,796.410156 C1476.2041,795.824216 1477.05044,794.958339 1477.59732,793.8125 C1477.93586,793.135413 1478.59992,791.546888 1479.58951,789.046875 L1480.72232,786.3125 L1489.51138,786.3125 L1489.51138,796.46875 L1501.07388,796.46875 L1501.07388,805.960938 L1489.51138,805.960938 L1489.51138,821.820312 C1489.51138,824.580743 1489.66112,826.585931 1489.9606,827.835938 C1490.26008,829.085944 1490.75487,829.893227 1491.44498,830.257812 C1492.13508,830.622398 1493.20929,830.804688 1494.66763,830.804688 C1495.68326,830.804688 1496.85513,830.628908 1498.18326,830.277344 C1499.51139,829.925779 1500.51398,829.515627 1501.19107,829.046875 L1502.90982,837.09375 C1502.15461,837.796879 1501.00879,838.499996 1499.47232,839.203125 C1497.93585,839.906254 1496.16504,840.485675 1494.15982,840.941406 C1492.1546,841.397138 1490.12337,841.625 1488.06607,841.625 C1484.91501,841.625 1482.38249,841.097662 1480.46841,840.042969 C1478.55434,838.988276 1477.17415,837.39975 1476.32779,835.277344 C1475.48143,833.154937 1475.05826,830.440121 1475.05826,827.132812 L1475.05826,805.960938 Z M1549.89131,796.46875 L1550.24287,801.234375 C1552.01371,799.749993 1554.24025,798.473964 1556.92256,797.40625 C1559.60486,796.338536 1562.22202,795.791667 1564.77412,795.765625 C1567.87309,795.6875 1570.41864,796.201817 1572.41084,797.308594 C1574.40304,798.41537 1575.89391,800.244779 1576.88349,802.796875 C1577.87308,805.348971 1578.36787,808.734354 1578.36787,812.953125 L1578.36787,841 L1563.91474,841 L1563.91474,815.53125 C1563.91474,813.343739 1563.73245,811.638027 1563.36787,810.414062 C1563.00328,809.190098 1562.41735,808.324221 1561.61006,807.816406 C1560.80276,807.308591 1559.68298,807.080729 1558.25068,807.132812 C1557.13088,807.132812 1555.90043,807.393227 1554.55928,807.914062 C1553.21812,808.434898 1552.07881,809.138016 1551.14131,810.023438 L1551.14131,841 L1536.68818,841 L1536.68818,796.46875 L1549.89131,796.46875 Z M1587.58127,818.34375 C1587.58127,813.578101 1588.55131,809.509131 1590.49143,806.136719 C1592.43154,802.764306 1595.13334,800.205738 1598.59689,798.460938 C1602.06045,796.716137 1606.07083,795.84375 1610.62814,795.84375 C1615.81046,795.84375 1620.05521,796.872386 1623.36252,798.929688 C1626.66983,800.986989 1629.07215,803.747379 1630.56955,807.210938 C1632.06695,810.674496 1632.81564,814.606749 1632.81564,819.007812 C1632.81564,823.799503 1631.85211,827.894514 1629.92502,831.292969 C1627.99793,834.691423 1625.30264,837.263012 1621.83908,839.007812 C1618.37552,840.752613 1614.36515,841.625 1609.80783,841.625 C1604.59947,841.625 1600.3417,840.589854 1597.03439,838.519531 C1593.72709,836.449208 1591.32477,833.675799 1589.82736,830.199219 C1588.32996,826.722639 1587.58127,822.770855 1587.58127,818.34375 Z M1617.77658,818.96875 C1617.77658,815.010397 1617.19716,811.839856 1616.0383,809.457031 C1614.87944,807.074207 1612.98493,805.882812 1610.35471,805.882812 C1607.54219,805.882812 1605.55003,806.891917 1604.37814,808.910156 C1603.20626,810.928396 1602.62033,814.046854 1602.62033,818.265625 C1602.62033,822.302104 1603.21277,825.544259 1604.39768,827.992188 C1605.58258,830.440116 1607.49011,831.664062 1610.12033,831.664062 C1612.9068,831.664062 1614.87944,830.641937 1616.0383,828.597656 C1617.19716,826.553375 1617.77658,823.343772 1617.77658,818.96875 Z M1705.89623,796.46875 L1691.8728,841.625 L1679.17748,841.625 L1672.69311,819.710938 L1671.01342,811.3125 L1669.29467,819.710938 L1663.04467,841.625 L1649.95873,841.625 L1636.09155,796.46875 L1650.19311,796.46875 L1654.76342,814.476562 L1657.14623,826.117188 L1659.84155,814.476562 L1665.11498,796.46875 L1678.1228,796.46875 L1683.35717,814.476562 L1685.89623,826.117188 L1688.23998,814.4375 L1692.45873,796.46875 L1705.89623,796.46875 Z" id="path-5"></path>
        <filter x="-0.1%" y="-1.7%" width="100.2%" height="103.4%" filterUnits="objectBoundingBox" id="filter-6">
            <feOffset dx="1.5" dy="3" in="SourceAlpha" result="shadowOffsetInner1"></feOffset>
            <feComposite in="shadowOffsetInner1" in2="SourceAlpha" operator="arithmetic" k2="-1" k3="1" result="shadowInnerInner1"></feComposite>
            <feColorMatrix values="0 0 0 0 0.447058824   0 0 0 0 0.192156863   0 0 0 0 0.364705882  0 0 0 1 0" type="matrix" in="shadowInnerInner1"></feColorMatrix>
        </filter>
    </defs>
    <g id="Page-1" stroke="none" stroke-width="1" fill="none" fill-rule="evenodd">
        <g id="Error_500">
            <g id="Oops…">
                <use fill="#8D3B72" fill-rule="evenodd" xlink:href="#path-1"></use>
                <use fill="black" fill-opacity="1" filter="url(#filter-2)" xlink:href="#path-1"></use>
            </g>
            <path d="M1920,997 C1920,997 1450.5,1102 1232,849 C1013.5,596 1158,379.5 1214.5,307.5 C1271,235.5 1491,146.5 1680.5,267 C1782.64165,331.950233 1884.55434,631.178337 1732,788.5 C1524,1003 1253.97286,1005.93712 985.5,889.5 C442.5,654 804,696.5 484.5,507 C165,317.5 428.5,126.5 727,201.5 C1025.5,276.5 931,517.5 1193.5,518 C1368.5,518.333333 1470,509.5 1498,491.5" id="Line" stroke="#246A73" stroke-width="2" stroke-linecap="square" stroke-dasharray="8,12"></path>
            <g id="paper-plane" transform="translate(1494.976956, 453.647962) scale(-1, 1) rotate(-31.000000) translate(-1494.976956, -453.647962) translate(1377.476956, 349.147962)" fill-rule="nonzero">
                <g id="Group">
                    <polygon id="Shape" fill="#C6CBCB" points="0 0.418 152.001396 192.681042 165.512979 146.903625"></polygon>
                    <polygon id="Shape" fill="#246A73" points="106.241113 94.446 95.8070215 121.601792 152.001396 192.681042 165.512979 146.903625"></polygon>
                    <polygon id="Shape" fill="#D1D5D5" points="152.001396 192.681042 138.007881 158.468292 0 0.418 122.566729 168.587375"></polygon>
                    <polygon id="Shape" fill="#E2E5E7" points="138.007881 158.468292 58.8702539 208.581542 0 0.418"></polygon>
                    <polygon id="Shape" fill="#E2E5E7" points="165.512979 146.903625 0 0.418 235 116.546375"></polygon>
                    <polygon id="Shape" fill="#368F8B" points="83.8316602 96.4250833 56.8006934 201.265167 58.8702539 208.581542 138.083154 158.40825"></polygon>
                    <path d="M225.327822,111.767333 C157.602151,101.916537 121.795071,96.7083456 117.906582,96.1427592 C114.018092,95.5771728 110.129603,95.0115864 106.241113,94.446 L165.455605,147.0975 L235,116.546375 L225.327822,111.767333 Z" id="Shape" fill="#368F8B"></path>
                    <polygon id="Shape" fill="#246A73" points="83.8316602 96.4250833 56.8006934 201.265167 87.8041699 100.963958"></polygon>
                    <polygon id="Shape" fill="#246A73" points="106.241113 94.446 111.522188 99.1420833 225.327822 111.767333"></polygon>
                    <polygon id="Shape" fill="#C6CBCB" points="138.083154 158.40825 122.391855 168.347667 134.400264 178.273333"></polygon>
                </g>
                <polygon id="Shape" fill="#368F8B" points="6.07902286 21 11 12.3065168 0 0"></polygon>
                <polygon id="Shape" fill="#368F8B" points="12.5521597 11.7287814 23 12 0 0"></polygon>
            </g>
            <g id="?">
                <use fill="#368F8B" fill-rule="evenodd" xlink:href="#path-3"></use>
                <use fill="black" fill-opacity="1" filter="url(#filter-4)" xlink:href="#path-3"></use>
            </g>
            <g id="…-can’t-reach-our-se">
                <use fill="#8D3B72" fill-rule="evenodd" xlink:href="#path-5"></use>
                <use fill="black" fill-opacity="1" filter="url(#filter-6)" xlink:href="#path-5"></use>
            </g>
        </g>
    </g>
</svg>