<?xml version="1.0" encoding="UTF-8"?>
<svg width="1920px" height="1080px" viewBox="0 0 1920 1080" version="1.1" xmlns="http://www.w3.org/2000/svg" xmlns:xlink="http://www.w3.org/1999/xlink">
    <!-- Generator: Sketch 48.2 (47327) - http://www.bohemiancoding.com/sketch -->
    <title>Error_404</title>
    <desc>Created with Sketch.</desc>
    <defs>
        <path d="M206.352539,606.12793 C206.922203,574.633632 215.141522,551.318435 231.010742,536.181641 C246.879962,521.044846 268.486191,513.069666 295.830078,512.255859 C313.24553,511.767576 328.280373,515.327924 340.935059,522.937012 C353.589744,530.546099 363.212858,541.552662 369.804688,555.957031 C376.396517,570.3614 379.529624,587.329004 379.204102,606.860352 C378.797198,628.588976 374.850298,646.533132 367.363281,660.693359 C359.876265,674.853586 349.541082,685.270149 336.357422,691.943359 C323.173762,698.61657 307.670988,701.953125 289.848633,701.953125 C272.27042,701.953125 257.133853,698.026569 244.438477,690.17334 C231.743101,682.32011 222.140332,671.191478 215.629883,656.787109 C209.119434,642.38274 206.027017,625.496516 206.352539,606.12793 Z M331.352539,605.517578 C331.352539,587.532462 328.300812,573.311413 322.197266,562.854004 C316.093719,552.396595 307.019917,547.167969 294.975586,547.167969 C282.605732,547.167969 272.718136,551.887974 265.3125,561.328125 C257.906864,570.768276 254.204102,586.148982 254.204102,607.470703 C254.204102,619.433654 255.648586,629.95194 258.537598,639.025879 C261.426609,648.099818 265.780407,655.179825 271.599121,660.266113 C277.417835,665.352402 284.558877,667.895508 293.022461,667.895508 C305.392314,667.895508 314.873014,662.91102 321.464844,652.941895 C328.056674,642.972769 331.352539,627.164822 331.352539,605.517578 Z M401.173013,629.199219 C401.173013,614.306566 404.204395,601.591036 410.267251,591.052246 C416.330107,580.513456 424.773219,572.517931 435.596841,567.06543 C446.420463,561.612928 458.95289,558.886719 473.194497,558.886719 C489.38924,558.886719 502.654081,562.101205 512.989419,568.530273 C523.324757,574.959342 530.832007,583.585558 535.511392,594.40918 C540.190777,605.232802 542.530435,617.52109 542.530435,631.274414 C542.530435,646.248447 539.519397,659.045357 533.497232,669.665527 C527.475066,680.285698 519.052299,688.321913 508.228677,693.774414 C497.405055,699.226915 484.872628,701.953125 470.631021,701.953125 C454.354898,701.953125 441.049367,698.718294 430.714029,692.248535 C420.37869,685.778776 412.871441,677.111871 408.192056,666.247559 C403.512671,655.383246 401.173013,643.033923 401.173013,629.199219 Z M495.533365,631.152344 C495.533365,618.78249 493.722673,608.874549 490.101236,601.428223 C486.479798,593.981896 480.559447,590.258789 472.340005,590.258789 C463.550899,590.258789 457.325375,593.412241 453.663247,599.719238 C450.00112,606.026236 448.170083,615.771418 448.170083,628.955078 C448.170083,641.569073 450.021465,651.700808 453.724283,659.350586 C457.4271,667.000364 463.388141,670.825195 471.607583,670.825195 C480.315309,670.825195 486.479798,667.631054 490.101236,661.242676 C493.722673,654.854297 495.533365,644.824287 495.533365,631.152344 Z M656.052081,558.886719 C666.306038,558.886719 675.623979,561.348445 684.006182,566.271973 C692.388386,571.1955 699.081841,578.641714 704.086749,588.61084 C709.091656,598.579965 711.594073,610.807219 711.594073,625.292969 C711.594073,640.755286 708.623725,654.28461 702.68294,665.881348 C696.742155,677.478085 688.400767,686.389129 677.658526,692.614746 C666.916285,698.840363 654.465237,701.953125 640.30501,701.953125 C631.515904,701.953125 623.866241,700.813813 617.355792,698.535156 L617.722003,716.967773 L617.722003,761.767578 L572.433917,761.767578 L572.433917,560.839844 L615.158526,560.839844 L615.158526,574.389648 C625.656625,564.05431 639.287674,558.886719 656.052081,558.886719 Z M663.986651,627.490234 C663.986651,614.95762 661.992856,605.985541 658.005206,600.57373 C654.017555,595.16192 648.239618,592.456055 640.671221,592.456055 C636.439429,592.456055 632.187356,593.168124 627.914874,594.592285 C623.642391,596.016446 620.244802,597.745758 617.722003,599.780273 L617.722003,666.430664 C621.139988,669.767269 627.528271,671.435547 636.887042,671.435547 C642.258162,671.435547 646.978167,669.72658 651.047198,666.308594 C655.116229,662.890608 658.290025,657.885775 660.568682,651.293945 C662.847339,644.702115 663.986651,636.767625 663.986651,627.490234 Z M739.422359,659.472656 C741.049972,660.856127 744.081354,662.524404 748.516598,664.477539 C752.951841,666.430674 758.099088,668.139641 763.958492,669.604492 C769.817896,671.069343 775.595833,671.801758 781.292476,671.801758 C788.128448,671.801758 793.072246,670.987964 796.124019,669.360352 C799.175792,667.732739 800.701656,665.169288 800.701656,661.669922 C800.701656,659.228503 799.562345,657.03126 797.283687,655.078125 C795.00503,653.12499 791.770199,651.273609 787.579098,649.523926 C783.387996,647.774243 777.711783,645.719413 770.550289,643.359375 C757.936294,639.208964 748.781112,633.573441 743.084469,626.452637 C737.387826,619.331833 734.580236,610.319065 734.661617,599.414062 C734.661617,590.706337 737.204723,583.300812 742.291012,577.197266 C747.3773,571.093719 754.294549,566.516129 763.042965,563.464355 C771.791381,560.412582 781.617943,558.886719 792.522945,558.886719 C802.776903,558.886719 811.83036,559.761547 819.68359,561.51123 C827.536819,563.260914 833.41648,565.234364 837.32275,567.431641 L833.29443,599.169922 C831.504056,597.62369 828.777846,596.016447 825.115719,594.348145 C821.453591,592.679842 817.364276,591.296392 812.847652,590.197754 C808.331028,589.099116 803.956886,588.549805 799.725094,588.549805 C792.075316,588.549805 786.622896,589.322909 783.367672,590.869141 C780.112447,592.415372 778.44417,594.816064 778.362789,598.071289 C778.362789,600.512708 779.217273,602.628572 780.926265,604.418945 C782.635258,606.209319 785.483537,607.979321 789.471187,609.729004 C793.458837,611.478687 799.277464,613.533517 806.927242,615.893555 C820.110902,620.125347 829.815395,625.516732 836.041012,632.067871 C842.266629,638.619011 845.37939,647.184192 845.37939,657.763672 C845.37939,667.285204 842.978698,675.362109 838.177242,681.994629 C833.375786,688.627149 826.560261,693.631982 817.730465,697.009277 C808.900668,700.386573 798.54514,702.075195 786.66357,702.075195 C779.420695,702.075195 772.340688,701.485195 765.423336,700.305176 C758.505983,699.125157 752.402529,697.660328 747.112789,695.910645 C741.823049,694.160961 737.794769,692.431649 735.027828,690.722656 L739.422359,659.472656 Z M868.935216,676.928711 C868.935216,672.127255 870.155907,667.590353 872.597325,663.317871 C875.038744,659.045389 878.354954,655.627454 882.546056,653.063965 C886.737157,650.500475 891.314748,649.21875 896.278966,649.21875 C901.324564,649.21875 905.719051,650.317372 909.46256,652.514648 C913.206068,654.711925 916.095037,657.763652 918.129552,661.669922 C920.164067,665.576191 921.18131,669.970679 921.18131,674.853516 C921.18131,679.736353 920.001308,684.313943 917.641271,688.586426 C915.281233,692.858908 912.026057,696.276843 907.875646,698.840332 C903.725234,701.403821 899.167988,702.685547 894.203771,702.685547 C889.320934,702.685547 884.967136,701.56658 881.142247,699.328613 C877.317358,697.090646 874.326666,694.018574 872.170079,690.112305 C870.013493,686.206035 868.935216,681.811548 868.935216,676.928711 Z M949.867833,676.928711 C949.867833,672.127255 951.088524,667.590353 953.529943,663.317871 C955.971361,659.045389 959.287571,655.627454 963.478673,653.063965 C967.669775,650.500475 972.247366,649.21875 977.211583,649.21875 C982.175801,649.21875 986.529598,650.317372 990.273107,652.514648 C994.016615,654.711925 996.905583,657.763652 998.940099,661.669922 C1000.97461,665.576191 1001.99186,669.970679 1001.99186,674.853516 C1001.99186,679.736353 1000.8322,684.313943 998.512853,688.586426 C996.193505,692.858908 992.958674,696.276843 988.808263,698.840332 C984.657851,701.403821 980.100605,702.685547 975.136388,702.685547 C970.253551,702.685547 965.899753,701.56658 962.074864,699.328613 C958.249975,697.090646 955.259283,694.018574 953.102696,690.112305 C950.94611,686.206035 949.867833,681.811548 949.867833,676.928711 Z M1030.80045,676.68457 C1030.80045,671.883114 1032.02114,667.366558 1034.46256,663.134766 C1036.90398,658.902974 1040.22019,655.525729 1044.41129,653.00293 C1048.60239,650.480131 1053.17998,649.21875 1058.1442,649.21875 C1063.10842,649.21875 1067.46222,650.317372 1071.20572,652.514648 C1074.94923,654.711925 1077.8382,657.763652 1079.87272,661.669922 C1081.90723,665.576191 1082.92447,669.970679 1082.92447,674.853516 C1082.92447,679.736353 1081.74447,684.313943 1079.38443,688.586426 C1077.0244,692.858908 1073.76922,696.276843 1069.61881,698.840332 C1065.4684,701.403821 1060.91115,702.685547 1055.94693,702.685547 C1051.0641,702.685547 1046.7103,701.546235 1042.88541,699.267578 C1039.06052,696.988921 1036.09017,693.876159 1033.97428,689.929199 C1031.85838,685.982239 1030.80045,681.567407 1030.80045,676.68457 Z" id="path-1"></path>
        <filter x="-0.2%" y="-0.6%" width="100.3%" height="101.2%" filterUnits="objectBoundingBox" id="filter-2">
            <feOffset dx="1.5" dy="3" in="SourceAlpha" result="shadowOffsetInner1"></feOffset>
            <feComposite in="shadowOffsetInner1" in2="SourceAlpha" operator="arithmetic" k2="-1" k3="1" result="shadowInnerInner1"></feComposite>
            <feColorMatrix values="0 0 0 0 0.431372549   0 0 0 0 0.180392157   0 0 0 0 0.349019608  0 0 0 1 0" type="matrix" in="shadowInnerInner1"></feColorMatrix>
        </filter>
        <path d="M200.859375,840.771484 C200.859375,838.850902 201.347651,837.036141 202.324219,835.327148 C203.300786,833.618156 204.62727,832.250982 206.303711,831.225586 C207.980152,830.20019 209.811188,829.6875 211.796875,829.6875 C213.815114,829.6875 215.572909,830.126949 217.070312,831.005859 C218.567716,831.88477 219.723303,833.105461 220.537109,834.667969 C221.350916,836.230477 221.757812,837.988271 221.757812,839.941406 C221.757812,841.894541 221.285812,843.725577 220.341797,845.43457 C219.397782,847.143563 218.095711,848.510737 216.435547,849.536133 C214.775382,850.561529 212.952484,851.074219 210.966797,851.074219 C209.013662,851.074219 207.272143,850.626632 205.742188,849.731445 C204.212232,848.836259 203.015955,847.60743 202.15332,846.044922 C201.290686,844.482414 200.859375,842.724619 200.859375,840.771484 Z M233.232422,840.771484 C233.232422,838.850902 233.720698,837.036141 234.697266,835.327148 C235.673833,833.618156 237.000317,832.250982 238.676758,831.225586 C240.353198,830.20019 242.184235,829.6875 244.169922,829.6875 C246.155609,829.6875 247.897128,830.126949 249.394531,831.005859 C250.891935,831.88477 252.047522,833.105461 252.861328,834.667969 C253.675134,836.230477 254.082031,837.988271 254.082031,839.941406 C254.082031,841.894541 253.618169,843.725577 252.69043,845.43457 C251.762691,847.143563 250.468758,848.510737 248.808594,849.536133 C247.148429,850.561529 245.325531,851.074219 243.339844,851.074219 C241.386709,851.074219 239.64519,850.626632 238.115234,849.731445 C236.585279,848.836259 235.389002,847.60743 234.526367,846.044922 C233.663733,844.482414 233.232422,842.724619 233.232422,840.771484 Z M265.605469,840.673828 C265.605469,838.753246 266.093745,836.946623 267.070312,835.253906 C268.04688,833.561189 269.373364,832.210292 271.049805,831.201172 C272.726245,830.192052 274.557282,829.6875 276.542969,829.6875 C278.528656,829.6875 280.270175,830.126949 281.767578,831.005859 C283.264981,831.88477 284.420569,833.105461 285.234375,834.667969 C286.048181,836.230477 286.455078,837.988271 286.455078,839.941406 C286.455078,841.894541 285.983078,843.725577 285.039062,845.43457 C284.095047,847.143563 282.792977,848.510737 281.132812,849.536133 C279.472648,850.561529 277.64975,851.074219 275.664062,851.074219 C273.710928,851.074219 271.969409,850.618494 270.439453,849.707031 C268.909498,848.795568 267.721358,847.550464 266.875,845.97168 C266.028642,844.392896 265.605469,842.626963 265.605469,840.673828 Z M334.689776,806.201172 L328.244463,806.201172 L328.244463,796.630859 C331.109061,795.784501 333.257477,794.995121 334.689776,794.262695 C336.122075,793.53027 337.180007,792.447924 337.863604,791.015625 C338.286783,790.169267 339.116853,788.183609 340.353838,785.058594 L341.769854,781.640625 L352.756182,781.640625 L352.756182,794.335938 L367.209307,794.335938 L367.209307,806.201172 L352.756182,806.201172 L352.756182,826.025391 C352.756182,829.475929 352.943355,831.982414 353.317706,833.544922 C353.692056,835.10743 354.31054,836.116534 355.173174,836.572266 C356.035809,837.027997 357.378569,837.255859 359.201495,837.255859 C360.471032,837.255859 361.935861,837.036135 363.596026,836.59668 C365.25619,836.157224 366.509433,835.644534 367.355792,835.058594 L369.504229,845.117188 C368.560214,845.996098 367.127937,846.874996 365.207354,847.753906 C363.286772,848.632817 361.073252,849.357094 358.566729,849.926758 C356.060206,850.496422 353.521169,850.78125 350.949542,850.78125 C347.01072,850.78125 343.845061,850.122077 341.452471,848.803711 C339.059881,847.485345 337.334638,845.499688 336.27669,842.84668 C335.218742,840.193672 334.689776,836.800151 334.689776,832.666016 L334.689776,806.201172 Z M413.689937,793.457031 C419.516789,793.457031 423.813621,795.222964 426.580562,798.754883 C429.347503,802.286802 430.730953,807.731083 430.730953,815.087891 L430.730953,850 L412.615719,850 L412.615719,818.164062 C412.615719,815.429674 412.37158,813.305672 411.883297,811.791992 C411.395013,810.278313 410.654461,809.212243 409.661617,808.59375 C408.668774,807.975257 407.358565,807.666016 405.730953,807.666016 C404.363759,807.666016 402.809412,807.950844 401.067867,808.520508 C399.326322,809.090172 397.820803,810.009759 396.551265,811.279297 L396.551265,850 L378.436031,850 L378.436031,768.847656 L396.551265,768.847656 L396.551265,789.746094 L395.721187,800.146484 C397.902188,798.323559 400.587708,796.752936 403.777828,795.43457 C406.967948,794.116204 410.271952,793.457031 413.689937,793.457031 Z M468.813146,793.359375 C474.737654,793.359375 479.449521,794.0511 482.948888,795.43457 C486.448254,796.818041 488.987291,799.03156 490.566075,802.075195 C492.144859,805.11883 492.934239,809.22849 492.934239,814.404297 L492.934239,850.78125 L481.606114,850.78125 C480.141263,850.78125 479.034504,850.683595 478.285802,850.488281 C477.5371,850.292968 476.951169,849.837243 476.527989,849.121094 C476.10481,848.404944 475.893224,847.265633 475.893224,845.703125 L475.893224,845.3125 C471.726536,848.958352 466.550807,850.78125 460.36588,850.78125 C456.752581,850.78125 453.570646,850.024422 450.819982,848.510742 C448.069317,846.997063 445.945315,844.889336 444.447911,842.1875 C442.950508,839.485664 442.201818,836.425798 442.201818,833.007812 C442.201818,829.78514 443.088853,826.961275 444.86295,824.536133 C446.637048,822.11099 449.086568,820.231126 452.211583,818.896484 C455.271494,817.594395 458.738256,816.707359 462.611974,816.235352 C466.485691,815.763344 470.603488,815.527344 474.965489,815.527344 L474.965489,812.158203 C474.965489,810.498039 474.696937,809.244796 474.159825,808.398438 C473.622713,807.552079 472.646161,806.966147 471.230138,806.640625 C469.814115,806.315103 467.673837,806.152344 464.809239,806.152344 C462.693343,806.152344 459.967134,806.534827 456.630528,807.299805 C453.293923,808.064782 450.421231,809.000646 448.012364,810.107422 L444.350255,799.462891 C445.815106,798.58398 447.865867,797.672531 450.502599,796.728516 C453.139331,795.7845 456.077127,794.986982 459.316075,794.335938 C462.555024,793.684893 465.720682,793.359375 468.813146,793.359375 Z M467.934239,839.648438 C469.301434,839.648438 470.676745,839.404299 472.060216,838.916016 C473.443686,838.427732 474.412101,837.890628 474.965489,837.304688 L474.965489,824.21875 C473.207668,824.251302 471.38477,824.430337 469.496739,824.755859 C467.608709,825.081382 466.176432,825.472003 465.199864,825.927734 C463.897775,826.44857 462.84798,827.156571 462.05045,828.051758 C461.25292,828.946945 460.854161,830.289705 460.854161,832.080078 C460.854161,834.554049 461.537748,836.433913 462.904943,837.719727 C464.272137,839.00554 465.948552,839.648438 467.934239,839.648438 Z M508.94612,806.201172 L502.500807,806.201172 L502.500807,796.630859 C505.365405,795.784501 507.513821,794.995121 508.94612,794.262695 C510.378418,793.53027 511.43635,792.447924 512.119948,791.015625 C512.543127,790.169267 513.373197,788.183609 514.610182,785.058594 L516.026198,781.640625 L527.012526,781.640625 L527.012526,794.335938 L541.465651,794.335938 L541.465651,806.201172 L527.012526,806.201172 L527.012526,826.025391 C527.012526,829.475929 527.199698,831.982414 527.574049,833.544922 C527.9484,835.10743 528.566883,836.116534 529.429518,836.572266 C530.292152,837.027997 531.634913,837.255859 533.457838,837.255859 C534.727376,837.255859 536.192205,837.036135 537.85237,836.59668 C539.512534,836.157224 540.765777,835.644534 541.612135,835.058594 L543.760573,845.117188 C542.816558,845.996098 541.38428,846.874996 539.463698,847.753906 C537.543115,848.632817 535.329596,849.357094 532.823073,849.926758 C530.31655,850.496422 527.777513,850.78125 525.205885,850.78125 C521.267063,850.78125 518.101405,850.122077 515.708815,848.803711 C513.316225,847.485345 511.590982,845.499688 510.533034,842.84668 C509.475086,840.193672 508.94612,836.800151 508.94612,832.666016 L508.94612,806.201172 Z M619.241364,793.554688 C623.342947,793.554688 627.070124,794.539378 630.423005,796.508789 C633.775886,798.4782 636.453268,801.456686 638.455231,805.444336 C640.457195,809.431986 641.458161,814.322888 641.458161,820.117188 C641.458161,826.302114 640.270022,831.713844 637.893708,836.352539 C635.517394,840.991234 632.180839,844.555652 627.883942,847.045898 C623.587046,849.536145 618.606627,850.78125 612.942536,850.78125 C609.426894,850.78125 606.367028,850.325525 603.762849,849.414062 L603.909333,856.787109 L603.909333,874.707031 L585.794099,874.707031 L585.794099,794.335938 L602.883942,794.335938 L602.883942,799.755859 C607.083182,795.621724 612.535602,793.554688 619.241364,793.554688 Z M622.415192,820.996094 C622.415192,815.983048 621.617674,812.394217 620.022614,810.229492 C618.427554,808.064768 616.116379,806.982422 613.08902,806.982422 C611.396304,806.982422 609.695474,807.26725 607.986481,807.836914 C606.277488,808.406578 604.918453,809.098303 603.909333,809.912109 L603.909333,836.572266 C605.276527,837.906908 607.83184,838.574219 611.575349,838.574219 C613.723797,838.574219 615.611799,837.890632 617.239411,836.523438 C618.867023,835.156243 620.136542,833.15431 621.048005,830.517578 C621.959468,827.880846 622.415192,824.70705 622.415192,820.996094 Z M676.366526,793.359375 C682.291034,793.359375 687.002901,794.0511 690.502268,795.43457 C694.001634,796.818041 696.540671,799.03156 698.119455,802.075195 C699.698239,805.11883 700.487619,809.22849 700.487619,814.404297 L700.487619,850.78125 L689.159494,850.78125 C687.694643,850.78125 686.587884,850.683595 685.839182,850.488281 C685.09048,850.292968 684.504549,849.837243 684.081369,849.121094 C683.65819,848.404944 683.446604,847.265633 683.446604,845.703125 L683.446604,845.3125 C679.279916,848.958352 674.104187,850.78125 667.91926,850.78125 C664.305961,850.78125 661.124026,850.024422 658.373362,848.510742 C655.622697,846.997063 653.498695,844.889336 652.001291,842.1875 C650.503888,839.485664 649.755198,836.425798 649.755198,833.007812 C649.755198,829.78514 650.642233,826.961275 652.41633,824.536133 C654.190428,822.11099 656.639948,820.231126 659.764963,818.896484 C662.824874,817.594395 666.291636,816.707359 670.165354,816.235352 C674.039071,815.763344 678.156868,815.527344 682.518869,815.527344 L682.518869,812.158203 C682.518869,810.498039 682.250317,809.244796 681.713205,808.398438 C681.176093,807.552079 680.199541,806.966147 678.783518,806.640625 C677.367495,806.315103 675.227217,806.152344 672.362619,806.152344 C670.246723,806.152344 667.520514,806.534827 664.183908,807.299805 C660.847303,808.064782 657.974611,809.000646 655.565744,810.107422 L651.903635,799.462891 C653.368486,798.58398 655.419247,797.672531 658.055979,796.728516 C660.692711,795.7845 663.630507,794.986982 666.869455,794.335938 C670.108404,793.684893 673.274062,793.359375 676.366526,793.359375 Z M675.487619,839.648438 C676.854814,839.648438 678.230125,839.404299 679.613596,838.916016 C680.997066,838.427732 681.965481,837.890628 682.518869,837.304688 L682.518869,824.21875 C680.761048,824.251302 678.93815,824.430337 677.050119,824.755859 C675.162089,825.081382 673.729812,825.472003 672.753244,825.927734 C671.451155,826.44857 670.40136,827.156571 669.60383,828.051758 C668.8063,828.946945 668.407541,830.289705 668.407541,832.080078 C668.407541,834.554049 669.091128,836.433913 670.458323,837.719727 C671.825517,839.00554 673.501932,839.648438 675.487619,839.648438 Z M772.603015,806.787109 L763.61864,806.787109 C763.976715,808.284513 764.15575,809.814445 764.15575,811.376953 C764.15575,817.106148 762.015471,821.533187 757.734851,824.658203 C753.454231,827.783219 746.886914,829.345703 738.032703,829.345703 C736.079568,829.345703 734.224118,829.248048 732.466296,829.052734 C731.880356,829.57357 731.440907,830.183916 731.147937,830.883789 C730.854967,831.583662 730.708484,832.291663 730.708484,833.007812 C730.708484,834.342455 731.229312,835.278318 732.270984,835.81543 C733.312656,836.352542 735.15183,836.621094 737.788562,836.621094 L748.823718,836.621094 C756.864123,836.621094 762.544405,838.17544 765.864734,841.28418 C769.185063,844.392919 770.845203,848.470027 770.845203,853.515625 C770.845203,858.170596 769.372236,862.133773 766.426257,865.405273 C763.480279,868.676774 759.622896,871.126294 754.853992,872.753906 C750.085088,874.381519 744.9826,875.195312 739.546375,875.195312 C729.813253,875.195312 722.546073,873.714208 717.744617,870.751953 C712.94316,867.789699 710.542468,863.655625 710.542468,858.349609 C710.542468,855.875639 711.258607,853.597016 712.690906,851.513672 C714.123205,849.430328 716.190241,847.786464 718.892078,846.582031 C717.427227,845.800777 716.312329,844.68588 715.547351,843.237305 C714.782373,841.78873 714.39989,840.16928 714.39989,838.378906 C714.39989,836.230458 715.107891,834.122732 716.523914,832.055664 C717.939936,829.988596 720.259249,828.271491 723.481921,826.904297 C719.901174,825.439446 717.150551,823.413099 715.229968,820.825195 C713.309386,818.237292 712.349109,815.185564 712.349109,811.669922 C712.349109,805.680309 714.554491,801.180028 718.96532,798.168945 C723.376149,795.157863 729.73188,793.636068 738.032703,793.603516 C746.268421,793.603516 752.55091,794.970689 756.880359,797.705078 C757.987135,796.761063 759.354309,795.963545 760.981921,795.3125 C762.609534,794.661455 764.39988,794.335938 766.353015,794.335938 L772.603015,794.335938 L772.603015,806.787109 Z M738.179187,819.873047 C740.946128,819.873047 743.061992,819.262701 744.526843,818.041992 C745.991694,816.821283 746.724109,814.664729 746.724109,811.572266 C746.724109,805.810518 743.940934,802.929688 738.3745,802.929688 C735.575006,802.929688 733.42659,803.572585 731.929187,804.858398 C730.431784,806.144212 729.683093,808.36587 729.683093,811.523438 C729.683093,814.192722 730.399232,816.25162 731.831531,817.700195 C733.26383,819.14877 735.379694,819.873047 738.179187,819.873047 Z M730.464343,849.462891 C729.292462,851.057951 728.706531,852.929677 728.706531,855.078125 C728.706531,858.072932 729.544739,860.546865 731.221179,862.5 C732.89762,864.453135 735.867968,865.429688 740.132312,865.429688 C744.038582,865.429688 747.139137,864.762376 749.43407,863.427734 C751.729003,862.093092 752.876453,860.00978 752.876453,857.177734 C752.876453,855.550122 752.607901,854.182948 752.070789,853.076172 C751.533677,851.969396 750.49202,851.090498 748.945789,850.439453 C747.399557,849.788408 745.177899,849.462891 742.28075,849.462891 L730.464343,849.462891 Z M829.191067,816.162109 C829.191067,820.263692 828.995757,823.681627 828.60513,826.416016 L795.939114,826.416016 C796.329741,830.452494 797.696915,833.39029 800.040677,835.229492 C802.384438,837.068694 805.65589,837.988281 809.85513,837.988281 C812.491862,837.988281 815.299451,837.703453 818.277981,837.133789 C821.256512,836.564125 823.429342,835.904952 824.796536,835.15625 L827.579739,844.775391 C825.5615,846.403003 822.566738,847.810866 818.595364,848.999023 C814.62399,850.18718 810.294606,850.78125 805.607083,850.78125 C799.682574,850.78125 794.64519,849.633801 790.494778,847.338867 C786.344367,845.043934 783.203122,841.73993 781.07095,837.426758 C778.938778,833.113585 777.872708,827.945994 777.872708,821.923828 C777.872708,816.487603 778.979468,811.621115 781.19302,807.324219 C783.406573,803.027322 786.621059,799.658215 790.836575,797.216797 C795.052091,794.775378 800.040648,793.554688 805.802395,793.554688 C812.638367,793.554688 818.229131,795.263655 822.574856,798.681641 C826.920581,802.099626 829.125963,807.926391 829.191067,816.162109 Z M812.44302,817.382812 C812.475573,816.894529 812.491848,816.194666 812.491848,815.283203 C812.491848,811.865217 811.930331,809.334318 810.807278,807.69043 C809.684226,806.046541 807.885741,805.224609 805.41177,805.224609 C802.709934,805.224609 800.59407,806.144197 799.064114,807.983398 C797.534159,809.8226 796.54133,812.955707 796.085598,817.382812 L812.44302,817.382812 Z M926.058578,768.847656 L926.058578,850.78125 L912.19139,850.78125 C911.312479,850.78125 910.645168,850.553388 910.189437,850.097656 C909.733705,849.641925 909.505843,848.99089 909.505843,848.144531 L909.505843,844.189453 C905.208947,848.584006 899.593768,850.78125 892.66014,850.78125 C888.591109,850.78125 884.888347,849.788421 881.551742,847.802734 C878.215136,845.817047 875.55403,842.814148 873.568343,838.793945 C871.582656,834.773743 870.589828,829.866565 870.589828,824.072266 C870.589828,817.854787 871.761691,812.451195 874.105453,807.861328 C876.449214,803.271461 879.761356,799.739596 884.041976,797.265625 C888.322596,794.791654 893.294877,793.554688 898.958968,793.554688 C902.442058,793.554688 905.5182,794.010412 908.187484,794.921875 L907.992171,788.964844 L907.992171,768.847656 L926.058578,768.847656 Z M889.53514,823.388672 C889.53514,828.304061 890.332658,831.844065 891.927718,834.008789 C893.522778,836.173513 895.833953,837.255859 898.861312,837.255859 C900.521476,837.255859 902.197892,837.003583 903.890609,836.499023 C905.583326,835.994464 906.950499,835.384118 907.992171,834.667969 L907.992171,807.568359 C906.559872,806.55924 904.020835,806.054688 900.374984,806.054688 C898.226536,806.054688 896.338534,806.705723 894.710921,808.007812 C893.083309,809.309902 891.81379,811.25487 890.902328,813.842773 C889.990865,816.430677 889.53514,819.612611 889.53514,823.388672 Z M938.066551,821.679688 C938.066551,815.722626 939.279104,810.636414 941.704247,806.420898 C944.129389,802.205383 947.506634,799.007172 951.836083,796.826172 C956.165531,794.645171 961.178502,793.554688 966.875145,793.554688 C973.353042,793.554688 978.658979,794.840482 982.793114,797.412109 C986.927249,799.983737 989.930149,803.434223 991.801903,807.763672 C993.673657,812.093121 994.60952,817.008436 994.60952,822.509766 C994.60952,828.499379 993.405105,833.618143 990.996239,837.866211 C988.587373,842.114279 985.218266,845.328765 980.888817,847.509766 C976.559368,849.690766 971.546398,850.78125 965.849755,850.78125 C959.339305,850.78125 954.017093,849.487318 949.882958,846.899414 C945.748822,844.31151 942.745923,840.844748 940.874169,836.499023 C939.002414,832.153299 938.066551,827.213569 938.066551,821.679688 Z M975.810692,822.460938 C975.810692,817.512996 975.086415,813.54982 973.63784,810.571289 C972.189266,807.592759 969.821125,806.103516 966.533348,806.103516 C963.017706,806.103516 960.527496,807.364896 959.062645,809.887695 C957.597794,812.410494 956.86538,816.308567 956.86538,821.582031 C956.86538,826.627629 957.605932,830.680323 959.087059,833.740234 C960.568186,836.800146 962.952603,838.330078 966.24038,838.330078 C969.72347,838.330078 972.189266,837.052422 973.63784,834.49707 C975.086415,831.941719 975.810692,827.929715 975.810692,822.460938 Z M1054.27374,816.162109 C1054.27374,820.263692 1054.07843,823.681627 1053.68781,826.416016 L1021.02179,826.416016 C1021.41242,830.452494 1022.77959,833.39029 1025.12335,835.229492 C1027.46712,837.068694 1030.73857,837.988281 1034.93781,837.988281 C1037.57454,837.988281 1040.38213,837.703453 1043.36066,837.133789 C1046.33919,836.564125 1048.51202,835.904952 1049.87921,835.15625 L1052.66242,844.775391 C1050.64418,846.403003 1047.64941,847.810866 1043.67804,848.999023 C1039.70667,850.18718 1035.37728,850.78125 1030.68976,850.78125 C1024.76525,850.78125 1019.72787,849.633801 1015.57746,847.338867 C1011.42704,845.043934 1008.2858,841.73993 1006.15363,837.426758 C1004.02145,833.113585 1002.95538,827.945994 1002.95538,821.923828 C1002.95538,816.487603 1004.06214,811.621115 1006.2757,807.324219 C1008.48925,803.027322 1011.70374,799.658215 1015.91925,797.216797 C1020.13477,794.775378 1025.12332,793.554688 1030.88507,793.554688 C1037.72104,793.554688 1043.31181,795.263655 1047.65753,798.681641 C1052.00326,802.099626 1054.20864,807.926391 1054.27374,816.162109 Z M1037.5257,817.382812 C1037.55825,816.894529 1037.57453,816.194666 1037.57453,815.283203 C1037.57453,811.865217 1037.01301,809.334318 1035.88996,807.69043 C1034.7669,806.046541 1032.96842,805.224609 1030.49445,805.224609 C1027.79261,805.224609 1025.67675,806.144197 1024.14679,807.983398 C1022.61684,809.8226 1021.62401,812.955707 1021.16828,817.382812 L1037.5257,817.382812 Z M1065.40281,833.789062 C1066.05386,834.342451 1067.26641,835.009762 1069.04051,835.791016 C1070.8146,836.57227 1072.8735,837.255856 1075.21726,837.841797 C1077.56103,838.427737 1079.8722,838.720703 1082.15086,838.720703 C1084.88525,838.720703 1086.86277,838.395186 1088.08348,837.744141 C1089.30419,837.093096 1089.91453,836.067715 1089.91453,834.667969 C1089.91453,833.691401 1089.45881,832.812504 1088.54734,832.03125 C1087.63588,831.249996 1086.34195,830.509444 1084.66551,829.80957 C1082.98907,829.109697 1080.71858,828.287765 1077.85398,827.34375 C1072.80839,825.683585 1069.14631,823.429376 1066.86766,820.581055 C1064.589,817.732733 1063.46596,814.127626 1063.49851,809.765625 C1063.49851,806.282535 1064.51576,803.320325 1066.55027,800.878906 C1068.58479,798.437488 1071.35169,796.606451 1074.85105,795.385742 C1078.35042,794.165033 1082.28105,793.554688 1086.64305,793.554688 C1090.74463,793.554688 1094.36601,793.904619 1097.5073,794.604492 C1100.6486,795.304365 1103.00046,796.093746 1104.56297,796.972656 L1102.95164,809.667969 C1102.23549,809.049476 1101.14501,808.406579 1099.68016,807.739258 C1098.2153,807.071937 1096.57958,806.518557 1094.77293,806.079102 C1092.96628,805.639646 1091.21662,805.419922 1089.52391,805.419922 C1086.46399,805.419922 1084.28303,805.729164 1082.98094,806.347656 C1081.67885,806.966149 1081.01154,807.926426 1080.97898,809.228516 C1080.97898,810.205083 1081.32078,811.051429 1082.00437,811.767578 C1082.68797,812.483728 1083.82728,813.191728 1085.42234,813.891602 C1087.0174,814.591475 1089.34485,815.413407 1092.40476,816.357422 C1097.67823,818.050139 1101.56003,820.206693 1104.05027,822.827148 C1106.54052,825.447604 1107.78562,828.873677 1107.78562,833.105469 C1107.78562,836.914082 1106.82535,840.144844 1104.90476,842.797852 C1102.98418,845.45086 1100.25797,847.452793 1096.72605,848.803711 C1093.19414,850.154629 1089.05192,850.830078 1084.2993,850.830078 C1081.40215,850.830078 1078.57014,850.594078 1075.8032,850.12207 C1073.03626,849.650063 1070.59488,849.064131 1068.47898,848.364258 C1066.36309,847.664385 1064.75178,846.97266 1063.645,846.289062 L1065.40281,833.789062 Z M1135.80922,794.335938 L1136.24868,800.292969 C1138.46223,798.437491 1141.2454,796.842455 1144.59829,795.507812 C1147.95117,794.17317 1151.22262,793.489583 1154.41274,793.457031 C1158.28646,793.359375 1161.46839,794.002272 1163.95864,795.385742 C1166.44888,796.769213 1168.31247,799.055974 1169.54946,802.246094 C1170.78644,805.436214 1171.40493,809.667942 1171.40493,814.941406 L1171.40493,850 L1153.33852,850 L1153.33852,818.164062 C1153.33852,815.429674 1153.11066,813.297534 1152.65493,811.767578 C1152.19919,810.237623 1151.46678,809.155277 1150.45766,808.520508 C1149.44854,807.885739 1148.04882,807.600911 1146.25844,807.666016 C1144.8587,807.666016 1143.32062,807.991533 1141.64418,808.642578 C1139.96774,809.293623 1138.5436,810.172521 1137.37172,811.279297 L1137.37172,850 L1119.30532,850 L1119.30532,794.335938 L1135.80922,794.335938 Z M1185.85431,799.169922 C1186.63556,798.12825 1187.2866,796.484386 1187.80743,794.238281 C1188.32827,791.992176 1188.58868,789.56707 1188.58868,786.962891 C1188.58868,785.042308 1188.36082,783.276375 1187.90509,781.665039 C1187.44936,780.053703 1186.88784,778.719081 1186.22052,777.661133 C1185.5532,776.603185 1184.89402,775.895184 1184.24298,775.537109 L1184.24298,771.679688 L1194.10626,764.257812 C1195.57111,764.811201 1197.01153,765.901685 1198.42755,767.529297 C1199.84357,769.156909 1200.99916,771.240222 1201.89435,773.779297 C1202.78953,776.318372 1203.23712,779.150375 1203.23712,782.275391 C1203.23712,786.442078 1202.65119,790.112289 1201.47931,793.286133 C1200.30743,796.459977 1198.96467,798.999014 1197.45099,800.90332 C1195.93731,802.807627 1194.51317,804.264318 1193.17853,805.273438 L1185.85431,800.585938 L1185.85431,799.169922 Z M1218.41892,806.201172 L1211.97361,806.201172 L1211.97361,796.630859 C1214.83821,795.784501 1216.98662,794.995121 1218.41892,794.262695 C1219.85122,793.53027 1220.90915,792.447924 1221.59275,791.015625 C1222.01593,790.169267 1222.846,788.183609 1224.08298,785.058594 L1225.499,781.640625 L1236.48533,781.640625 L1236.48533,794.335938 L1250.93845,794.335938 L1250.93845,806.201172 L1236.48533,806.201172 L1236.48533,826.025391 C1236.48533,829.475929 1236.6725,831.982414 1237.04685,833.544922 C1237.4212,835.10743 1238.03968,836.116534 1238.90232,836.572266 C1239.76495,837.027997 1241.10771,837.255859 1242.93064,837.255859 C1244.20018,837.255859 1245.66501,837.036135 1247.32517,836.59668 C1248.98534,836.157224 1250.23858,835.644534 1251.08494,835.058594 L1253.23337,845.117188 C1252.28936,845.996098 1250.85708,846.874996 1248.9365,847.753906 C1247.01592,848.632817 1244.8024,849.357094 1242.29587,849.926758 C1239.78935,850.496422 1237.25031,850.78125 1234.67869,850.78125 C1230.73986,850.78125 1227.57421,850.122077 1225.18162,848.803711 C1222.78903,847.485345 1221.06378,845.499688 1220.00584,842.84668 C1218.94789,840.193672 1218.41892,836.800151 1218.41892,832.666016 L1218.41892,806.201172 Z M1342.97198,816.162109 C1342.97198,820.263692 1342.77667,823.681627 1342.38604,826.416016 L1309.72003,826.416016 C1310.11065,830.452494 1311.47783,833.39029 1313.82159,835.229492 C1316.16535,837.068694 1319.4368,837.988281 1323.63604,837.988281 C1326.27277,837.988281 1329.08036,837.703453 1332.05889,837.133789 C1335.03742,836.564125 1337.21025,835.904952 1338.57745,835.15625 L1341.36065,844.775391 C1339.34241,846.403003 1336.34765,847.810866 1332.37628,848.999023 C1328.4049,850.18718 1324.07552,850.78125 1319.38799,850.78125 C1313.46348,850.78125 1308.4261,849.633801 1304.27569,847.338867 C1300.12528,845.043934 1296.98403,841.73993 1294.85186,837.426758 C1292.71969,833.113585 1291.65362,827.945994 1291.65362,821.923828 C1291.65362,816.487603 1292.76038,811.621115 1294.97393,807.324219 C1297.18748,803.027322 1300.40197,799.658215 1304.61749,797.216797 C1308.833,794.775378 1313.82156,793.554688 1319.58331,793.554688 C1326.41928,793.554688 1332.01004,795.263655 1336.35577,798.681641 C1340.70149,802.099626 1342.90687,807.926391 1342.97198,816.162109 Z M1326.22393,817.382812 C1326.25648,816.894529 1326.27276,816.194666 1326.27276,815.283203 C1326.27276,811.865217 1325.71124,809.334318 1324.58819,807.69043 C1323.46514,806.046541 1321.66665,805.224609 1319.19268,805.224609 C1316.49084,805.224609 1314.37498,806.144197 1312.84503,807.983398 C1311.31507,809.8226 1310.32224,812.955707 1309.86651,817.382812 L1326.22393,817.382812 Z M1407.71433,850 L1387.10886,850 L1378.56394,836.376953 L1377.09909,833.935547 L1375.87839,836.376953 L1368.16355,850 L1347.41159,850 L1366.99167,821.923828 L1347.50925,794.335938 L1367.96823,794.335938 L1375.68308,806.396484 L1377.92917,810.058594 L1379.83347,806.396484 L1387.15769,794.335938 L1407.3237,794.335938 L1387.59714,821.533203 L1407.71433,850 Z M1433.49183,794.335938 L1433.49183,850 L1415.32777,850 L1415.32777,794.335938 L1433.49183,794.335938 Z M1413.56996,778.222656 C1413.56996,776.432283 1414.06637,774.764005 1415.05922,773.217773 C1416.05206,771.671542 1417.38668,770.442713 1419.06312,769.53125 C1420.73956,768.619787 1422.53805,768.164062 1424.45863,768.164062 C1426.41176,768.164062 1428.14514,768.554684 1429.65882,769.335938 C1431.1725,770.117191 1432.34437,771.215813 1433.17445,772.631836 C1434.00453,774.047859 1434.41957,775.667309 1434.41957,777.490234 C1434.41957,779.280608 1433.93129,780.948885 1432.95472,782.495117 C1431.97816,784.041349 1430.65981,785.278316 1428.99964,786.206055 C1427.33948,787.133794 1425.54913,787.597656 1423.62855,787.597656 C1421.70797,787.597656 1419.98273,787.198897 1418.45277,786.401367 C1416.92281,785.603837 1415.72654,784.488939 1414.8639,783.056641 C1414.00127,781.624342 1413.56996,780.01303 1413.56996,778.222656 Z M1448.23418,833.789062 C1448.88523,834.342451 1450.09778,835.009762 1451.87188,835.791016 C1453.64597,836.57227 1455.70487,837.255856 1458.04863,837.841797 C1460.3924,838.427737 1462.70357,838.720703 1464.98223,838.720703 C1467.71662,838.720703 1469.69414,838.395186 1470.91485,837.744141 C1472.13555,837.093096 1472.7459,836.067715 1472.7459,834.667969 C1472.7459,833.691401 1472.29018,832.812504 1471.37871,832.03125 C1470.46725,831.249996 1469.17332,830.509444 1467.49688,829.80957 C1465.82044,829.109697 1463.54995,828.287765 1460.68535,827.34375 C1455.63975,825.683585 1451.97768,823.429376 1449.69902,820.581055 C1447.42037,817.732733 1446.29733,814.127626 1446.32988,809.765625 C1446.32988,806.282535 1447.34713,803.320325 1449.38164,800.878906 C1451.41616,798.437488 1454.18306,796.606451 1457.68242,795.385742 C1461.18179,794.165033 1465.11241,793.554688 1469.47442,793.554688 C1473.576,793.554688 1477.19738,793.904619 1480.33867,794.604492 C1483.47997,795.304365 1485.83183,796.093746 1487.39434,796.972656 L1485.78301,809.667969 C1485.06686,809.049476 1483.97638,808.406579 1482.51152,807.739258 C1481.04667,807.071937 1479.41095,806.518557 1477.6043,806.079102 C1475.79765,805.639646 1474.04799,805.419922 1472.35527,805.419922 C1469.29536,805.419922 1467.1144,805.729164 1465.81231,806.347656 C1464.51022,806.966149 1463.84291,807.926426 1463.81035,809.228516 C1463.81035,810.205083 1464.15215,811.051429 1464.83574,811.767578 C1465.51934,812.483728 1466.65865,813.191728 1468.25371,813.891602 C1469.84877,814.591475 1472.17622,815.413407 1475.23613,816.357422 C1480.5096,818.050139 1484.3914,820.206693 1486.88164,822.827148 C1489.37189,825.447604 1490.61699,828.873677 1490.61699,833.105469 C1490.61699,836.914082 1489.65672,840.144844 1487.73613,842.797852 C1485.81555,845.45086 1483.08934,847.452793 1479.55742,848.803711 C1476.0255,850.154629 1471.88329,850.830078 1467.13067,850.830078 C1464.23352,850.830078 1461.40151,850.594078 1458.63457,850.12207 C1455.86763,849.650063 1453.42625,849.064131 1451.31035,848.364258 C1449.19446,847.664385 1447.58315,846.97266 1446.47637,846.289062 L1448.23418,833.789062 Z M1503.40622,806.201172 L1496.96091,806.201172 L1496.96091,796.630859 C1499.8255,795.784501 1501.97392,794.995121 1503.40622,794.262695 C1504.83852,793.53027 1505.89645,792.447924 1506.58005,791.015625 C1507.00322,790.169267 1507.83329,788.183609 1509.07028,785.058594 L1510.4863,781.640625 L1521.47262,781.640625 L1521.47262,794.335938 L1535.92575,794.335938 L1535.92575,806.201172 L1521.47262,806.201172 L1521.47262,826.025391 C1521.47262,829.475929 1521.6598,831.982414 1522.03415,833.544922 C1522.4085,835.10743 1523.02698,836.116534 1523.88962,836.572266 C1524.75225,837.027997 1526.09501,837.255859 1527.91794,837.255859 C1529.18747,837.255859 1530.6523,837.036135 1532.31247,836.59668 C1533.97263,836.157224 1535.22587,835.644534 1536.07223,835.058594 L1538.22067,845.117188 C1537.27666,845.996098 1535.84438,846.874996 1533.9238,847.753906 C1532.00321,848.632817 1529.78969,849.357094 1527.28317,849.926758 C1524.77665,850.496422 1522.23761,850.78125 1519.66598,850.78125 C1515.72716,850.78125 1512.5615,850.122077 1510.16891,848.803711 C1507.77632,847.485345 1506.05108,845.499688 1504.99313,842.84668 C1503.93518,840.193672 1503.40622,836.800151 1503.40622,832.666016 L1503.40622,806.201172 Z" id="path-3"></path>
        <filter x="-0.1%" y="-1.4%" width="100.2%" height="102.7%" filterUnits="objectBoundingBox" id="filter-4">
            <feOffset dx="1.5" dy="3" in="SourceAlpha" result="shadowOffsetInner1"></feOffset>
            <feComposite in="shadowOffsetInner1" in2="SourceAlpha" operator="arithmetic" k2="-1" k3="1" result="shadowInnerInner1"></feComposite>
            <feColorMatrix values="0 0 0 0 0.431627338   0 0 0 0 0.178959125   0 0 0 0 0.348431707  0 0 0 1 0" type="matrix" in="shadowInnerInner1"></feColorMatrix>
        </filter>
        <path d="M1513.67676,331.138672 C1513.67676,327.378887 1514.33593,324.058608 1515.6543,321.177734 C1516.97266,318.296861 1518.57177,315.855479 1520.45166,313.853516 C1522.33155,311.851552 1524.83397,309.507826 1527.95898,306.822266 C1530.7422,304.429676 1532.90282,302.427742 1534.44092,300.816406 C1535.97901,299.20507 1537.28515,297.325206 1538.35938,295.176758 C1539.4336,293.02831 1539.9707,290.635755 1539.9707,287.999023 C1539.9707,283.60447 1538.40822,280.24757 1535.2832,277.928223 C1532.15819,275.608875 1527.08011,274.449219 1520.04883,274.449219 C1514.1406,274.449219 1508.37893,275.621082 1502.76367,277.964844 L1502.76367,258.335938 C1504.61915,257.115228 1507.92722,256.053227 1512.68799,255.149902 C1517.44875,254.246578 1522.17283,253.794922 1526.86035,253.794922 C1536.2354,253.794922 1544.08444,255.088854 1550.40771,257.676758 C1556.73099,260.264661 1561.45506,263.90232 1564.58008,268.589844 C1567.70509,273.277367 1569.21875,278.819304 1569.12109,285.21582 C1569.12109,290.098657 1568.32764,294.285627 1566.74072,297.776855 C1565.1538,301.268084 1563.2129,304.161121 1560.91797,306.456055 C1558.62304,308.750988 1555.59572,311.338853 1551.83594,314.219727 C1548.61327,316.709973 1546.07423,318.846182 1544.21875,320.628418 C1542.36327,322.410653 1540.77637,324.559069 1539.45801,327.07373 C1538.13964,329.588391 1537.40723,332.505843 1537.26074,335.826172 C1537.16309,337.437508 1537.26074,339.04882 1537.55371,340.660156 C1537.84668,342.271492 1538.35937,344.322253 1539.0918,346.8125 L1539.89746,349.81543 L1519.09668,349.81543 C1517.43652,347.129869 1516.11817,344.371108 1515.1416,341.539062 C1514.16503,338.707017 1513.67676,335.240255 1513.67676,331.138672 Z M1515.80078,375.816406 C1515.80078,373.082018 1516.52099,370.50636 1517.96143,368.089355 C1519.40186,365.672351 1521.34276,363.74366 1523.78418,362.303223 C1526.2256,360.862786 1528.86229,360.142578 1531.69434,360.142578 C1534.57521,360.142578 1537.10204,360.777337 1539.2749,362.046875 C1541.44776,363.316413 1543.14453,365.062001 1544.36523,367.283691 C1545.58594,369.505382 1546.19629,372.007799 1546.19629,374.791016 C1546.19629,377.574233 1545.5005,380.174304 1544.10889,382.591309 C1542.71728,385.008313 1540.813,386.949211 1538.396,388.414062 C1535.97899,389.878914 1533.33009,390.611328 1530.44922,390.611328 C1527.61717,390.611328 1525.09034,389.964362 1522.86865,388.67041 C1520.64696,387.376458 1518.91358,385.606457 1517.66846,383.360352 C1516.42333,381.114247 1515.80078,378.599623 1515.80078,375.816406 Z" id="path-5"></path>
        <filter x="-2.3%" y="-1.1%" width="104.5%" height="102.2%" filterUnits="objectBoundingBox" id="filter-6">
            <feOffset dx="1.5" dy="3" in="SourceAlpha" result="shadowOffsetInner1"></feOffset>
            <feComposite in="shadowOffsetInner1" in2="SourceAlpha" operator="arithmetic" k2="-1" k3="1" result="shadowInnerInner1"></feComposite>
            <feColorMatrix values="0 0 0 0 0.141176471   0 0 0 0 0.415686275   0 0 0 0 0.450980392  0 0 0 1 0" type="matrix" in="shadowInnerInner1"></feColorMatrix>
        </filter>
    </defs>
    <g id="Page-1" stroke="none" stroke-width="1" fill="none" fill-rule="evenodd">
        <g id="Error_404">
            <g id="Oops…">
                <use fill="#8D3B72" fill-rule="evenodd" xlink:href="#path-1"></use>
                <use fill="black" fill-opacity="1" filter="url(#filter-2)" xlink:href="#path-1"></use>
            </g>
            <path d="M1920,997 C1920,997 1450.5,1102 1232,849 C1013.5,596 1158,379.5 1214.5,307.5 C1271,235.5 1491,146.5 1680.5,267 C1782.64165,331.950233 1884.55434,631.178337 1732,788.5 C1524,1003 1253.97286,1005.93712 985.5,889.5 C442.5,654 804,696.5 484.5,507 C165,317.5 428.5,126.5 727,201.5 C1025.5,276.5 931,517.5 1193.5,518 C1368.5,518.333333 1470,509.5 1498,491.5" id="Line" stroke="#246A73" stroke-width="2" stroke-linecap="square" stroke-dasharray="8,12"></path>
            <g id="…-that-page-doesn’t">
                <use fill="#8D3B72" fill-rule="evenodd" xlink:href="#path-3"></use>
                <use fill="black" fill-opacity="1" filter="url(#filter-4)" xlink:href="#path-3"></use>
            </g>
            <g id="paper-plane" transform="translate(1494.976956, 453.647962) scale(-1, 1) rotate(-31.000000) translate(-1494.976956, -453.647962) translate(1377.476956, 349.147962)" fill-rule="nonzero">
                <g id="Group">
                    <polygon id="Shape" fill="#C6CBCB" points="0 0.418 152.001396 192.681042 165.512979 146.903625"></polygon>
                    <polygon id="Shape" fill="#246A73" points="106.241113 94.446 95.8070215 121.601792 152.001396 192.681042 165.512979 146.903625"></polygon>
                    <polygon id="Shape" fill="#D1D5D5" points="152.001396 192.681042 138.007881 158.468292 0 0.418 122.566729 168.587375"></polygon>
                    <polygon id="Shape" fill="#E2E5E7" points="138.007881 158.468292 58.8702539 208.581542 0 0.418"></polygon>
                    <polygon id="Shape" fill="#E2E5E7" points="165.512979 146.903625 0 0.418 235 116.546375"></polygon>
                    <polygon id="Shape" fill="#368F8B" points="83.8316602 96.4250833 56.8006934 201.265167 58.8702539 208.581542 138.083154 158.40825"></polygon>
                    <path d="M225.327822,111.767333 C157.602151,101.916537 121.795071,96.7083456 117.906582,96.1427592 C114.018092,95.5771728 110.129603,95.0115864 106.241113,94.446 L165.455605,147.0975 L235,116.546375 L225.327822,111.767333 Z" id="Shape" fill="#368F8B"></path>
                    <polygon id="Shape" fill="#246A73" points="83.8316602 96.4250833 56.8006934 201.265167 87.8041699 100.963958"></polygon>
                    <polygon id="Shape" fill="#246A73" points="106.241113 94.446 111.522188 99.1420833 225.327822 111.767333"></polygon>
                    <polygon id="Shape" fill="#C6CBCB" points="138.083154 158.40825 122.391855 168.347667 134.400264 178.273333"></polygon>
                </g>
                <polygon id="Shape" fill="#368F8B" points="6.07902286 21 11 12.3065168 0 0"></polygon>
                <polygon id="Shape" fill="#368F8B" points="12.5521597 11.7287814 23 12 0 0"></polygon>
            </g>
            <g id="?">
                <use fill="#368F8B" fill-rule="evenodd" xlink:href="#path-5"></use>
                <use fill="black" fill-opacity="1" filter="url(#filter-6)" xlink:href="#path-5"></use>
            </g>
        </g>
    </g>
</svg>