<?xml version="1.0" encoding="UTF-8"?>
<svg width="1920px" height="1080px" viewBox="0 0 1920 1080" version="1.1" xmlns="http://www.w3.org/2000/svg" xmlns:xlink="http://www.w3.org/1999/xlink">
    <!-- Generator: Sketch 48.2 (47327) - http://www.bohemiancoding.com/sketch -->
    <title>Design 2_Green</title>
    <desc>Created with Sketch.</desc>
    <defs></defs>
    <g id="Page-1" stroke="none" stroke-width="1" fill="none" fill-rule="evenodd">
        <g id="Design-2_Green">
            <path d="M1920,997 C1920,997 1450.5,1102 1232,849 C1013.5,596 1158,379.5 1214.5,307.5 C1271,235.5 1491,146.5 1680.5,267 C1782.64165,331.950233 1884.55434,631.178337 1732,788.5 C1524,1003 1280.9971,935.138397 985.5,889.5 C558.166667,823.5 320.5,707.166667 272.5,540.5" id="Line" stroke="#246A73" stroke-width="2" stroke-linecap="square" stroke-dasharray="8,12"></path>
            <g id="paper-plane" transform="translate(277.845570, 457.257056) rotate(24.000000) translate(-277.845570, -457.257056) translate(160.345570, 352.757056)" fill-rule="nonzero">
                <g id="Group">
                    <polygon id="Shape" fill="#C6CBCB" points="0 0.418 152.001396 192.681042 165.512979 146.903625"></polygon>
                    <polygon id="Shape" fill="#246A73" points="106.241113 94.446 95.8070215 121.601792 152.001396 192.681042 165.512979 146.903625"></polygon>
                    <polygon id="Shape" fill="#D1D5D5" points="152.001396 192.681042 138.007881 158.468292 0 0.418 122.566729 168.587375"></polygon>
                    <polygon id="Shape" fill="#E2E5E7" points="138.007881 158.468292 58.8702539 208.581542 0 0.418"></polygon>
                    <polygon id="Shape" fill="#E2E5E7" points="165.512979 146.903625 0 0.418 235 116.546375"></polygon>
                    <polygon id="Shape" fill="#368F8B" points="83.8316602 96.4250833 56.8006934 201.265167 58.8702539 208.581542 138.083154 158.40825"></polygon>
                    <path d="M225.327822,111.767333 C157.602151,101.916537 121.795071,96.7083456 117.906582,96.1427592 C114.018092,95.5771728 110.129603,95.0115864 106.241113,94.446 L165.455605,147.0975 L235,116.546375 L225.327822,111.767333 Z" id="Shape" fill="#368F8B"></path>
                    <polygon id="Shape" fill="#246A73" points="83.8316602 96.4250833 56.8006934 201.265167 87.8041699 100.963958"></polygon>
                    <polygon id="Shape" fill="#246A73" points="106.241113 94.446 111.522188 99.1420833 225.327822 111.767333"></polygon>
                    <polygon id="Shape" fill="#C6CBCB" points="138.083154 158.40825 122.391855 168.347667 134.400264 178.273333"></polygon>
                </g>
                <polygon id="Shape" fill="#368F8B" points="6.07902286 21 11 12.3065168 0 0"></polygon>
                <polygon id="Shape" fill="#368F8B" points="12.5521597 11.7287814 23 12 0 0"></polygon>
            </g>
        </g>
    </g>
</svg>