<svg height="480pt" viewBox="0 -31 480 479" width="480pt" xmlns="http://www.w3.org/2000/svg"><path d="m216 224.5h112c4.417969 0 8-3.582031 8-8v-112c0-4.417969-3.582031-8-8-8h-112c-4.417969 0-8 3.582031-8 8v112c0 4.417969 3.582031 8 8 8zm64-112v24h-16v-24zm-56 0h24v32c0 4.417969 3.582031 8 8 8h32c4.417969 0 8-3.582031 8-8v-32h24v96h-96zm0 0"/><path d="m436.078125 268.019531c-7.285156-6.925781-18.050781-8.730469-27.199219-4.558593l-36.800781-36.800782c34.007813-51.390625 23.558594-120.1875-24.171875-159.167968-47.730469-38.976563-117.226562-35.464844-160.785156 8.128906-42.960938 42.976562-47.015625 111.28125-9.441406 159.039062 1.320312 1.671875 3.257812 2.746094 5.375 2.988282 2.117187.238281 4.242187-.375 5.90625-1.707032 3.457031-2.726562 4.0625-7.730468 1.359374-11.203125-33.199218-42.101562-28.949218-102.546875 9.820313-139.589843 38.769531-37.039063 99.34375-38.535157 139.894531-3.449219 40.546875 35.082031 47.777344 95.242187 16.691406 138.933593-31.082031 43.691407-90.285156 56.589844-136.726562 29.789063-1.84375-1.070313-4.039062-1.359375-6.097656-.804687-2.054688.558593-3.808594 1.910156-4.863282 3.761718-1.121093 1.859375-1.4375 4.09375-.878906 6.1875.558594 2.097656 1.945313 3.878906 3.839844 4.933594 39.355469 22.773438 88.199219 21.347656 126.160156-3.679688l36.71875 36.71875c-4.378906 9.160157-2.519531 20.085938 4.640625 27.28125l33.921875 33.917969c9.367188 9.359375 24.546875 9.359375 33.917969 0l22.640625-22.636719c4.503906-4.5 7.035156-10.597656 7.039062-16.960937-.003906-6.363281-2.535156-12.464844-7.039062-16.960937zm-79.199219-22.640625c1.839844-1.917968 3.601563-3.917968 5.359375-6l34.242188 34.242188-11.359375 11.359375-34.242188-34.242188c2-1.757812 4.082032-3.519531 6-5.359375zm101.761719 79.199219-22.5625 22.5625c-1.5 1.515625-3.546875 2.367187-5.679687 2.367187-2.132813 0-4.175782-.851562-5.679688-2.367187l-33.917969-33.921875c-3.101562-3.117188-3.101562-8.160156 0-11.277344l22.640625-22.640625c3.117188-3.101562 8.160156-3.101562 11.277344 0l33.921875 33.917969c1.515625 1.503906 2.367187 3.546875 2.367187 5.679688 0 2.132812-.851562 4.179687-2.367187 5.679687zm0 0"/><path d="m152 80.5v-32c0-4.417969-3.582031-8-8-8h-96c-4.417969 0-8 3.582031-8 8v32c0 4.417969 3.582031 8 8 8h96c4.417969 0 8-3.582031 8-8zm-16-8h-80v-16h80zm0 0"/><path d="m48 136.5c-4.417969 0-8 3.582031-8 8s3.582031 8 8 8h72c4.417969 0 8-3.582031 8-8v-32c0-4.417969-3.582031-8-8-8h-72c-4.417969 0-8 3.582031-8 8s3.582031 8 8 8h64v16zm0 0"/><path d="m48 184.5h56c4.417969 0 8-3.582031 8-8s-3.582031-8-8-8h-56c-4.417969 0-8 3.582031-8 8s3.582031 8 8 8zm0 0"/><path d="m48 216.5h32c4.417969 0 8-3.582031 8-8s-3.582031-8-8-8h-32c-4.417969 0-8 3.582031-8 8s3.582031 8 8 8zm0 0"/><path d="m432 56.5c4.417969 0 8-3.582031 8-8s-3.582031-8-8-8h-32c-4.417969 0-8 3.582031-8 8v32c0 4.417969 3.582031 8 8 8h32c4.417969 0 8-3.582031 8-8s-3.582031-8-8-8h-24v-16zm0 0"/><path d="m432 104.5c-4.417969 0-8 3.582031-8 8v32c0 4.417969 3.582031 8 8 8s8-3.582031 8-8v-32c0-4.417969-3.582031-8-8-8zm0 0"/><path d="m48 248.5h88c4.417969 0 8-3.582031 8-8s-3.582031-8-8-8h-88c-4.417969 0-8 3.582031-8 8s3.582031 8 8 8zm0 0"/><path d="m472 .5h-464c-4.417969 0-8 3.582031-8 8v304c0 4.417969 3.582031 8 8 8h162.238281l-22.878906 40h-11.359375c-22.089844 0-40 17.910156-40 40v8c0 4.417969 3.582031 8 8 8h168c4.417969 0 8-3.582031 8-8s-3.582031-8-8-8h-160c0-13.253906 10.746094-24 24-24h208c13.253906 0 24 10.746094 24 24h-40c-4.417969 0-8 3.582031-8 8s3.582031 8 8 8h48c4.417969 0 8-3.582031 8-8v-8c0-22.089844-17.910156-40-40-40h-11.359375l-22.878906-40h31.519531c4.417969 0 8-3.582031 8-8s-3.582031-8-8-8h-325.28125v-288h448v256c0 4.417969 3.582031 8 8 8s8-3.582031 8-8v-264c0-4.417969-3.582031-8-8-8zm-180.640625 320 22.878906 40h-148.476562l22.878906-40zm0 0"/></svg>