<svg height="480pt" viewBox="-36 0 480 480.00002" width="480pt" xmlns="http://www.w3.org/2000/svg"><path d="m400.859375 299.921875c-5.464844-6.980469-13.636719-11.3125-22.480469-11.921875-8.757812-.742188-17.4375 2.148438-24 8l-47.359375 43.441406c-1.667969 1.53125-3.90625 2.289063-6.160156 2.078125l-16-1.441406c-.136719-5.761719-1.851563-11.378906-4.960937-16.238281-4.84375-7.3125-12.480469-12.316406-21.121094-13.839844l-65.4375-11.519531c-45.171875-7.804688-91.554688 3.558593-128 31.359375l-62.242188 48c-3.480468 2.699218-4.125 7.707031-1.4375 11.199218 1.523438 1.882813 3.816406 2.96875 6.238282 2.960938 1.769531-.003906 3.484374-.597656 4.878906-1.679688l62.160156-48c32.816406-25 74.546875-35.230468 115.203125-28.242187l65.757813 11.683594c4.328124.769531 8.144531 3.285156 10.558593 6.957031 2.433594 3.675781 3.246094 8.191406 2.242188 12.480469-2.484375 8.464843-11.039063 13.613281-19.679688 11.839843l-53.441406-9.4375c-4.351563-.777343-8.507813 2.125-9.28125 6.476563-.773437 4.355469 2.128906 8.511719 6.480469 9.28125l53.441406 9.441406c13.898438 2.703125 27.980469-3.726562 35.039062-16l18.722657 1.597657c6.625.449218 13.140625-1.867188 18-6.398438l47.359375-43.519531c3.246094-2.972657 7.570312-4.476563 11.960937-4.160157 4.390625.320313 8.453125 2.429688 11.238281 5.839844 5.246094 7.125 4.132813 17.089844-2.558593 22.878906l-70.402344 64.5625c-7.398437 6.722657-17.042969 10.433594-27.039063 10.398438h-111.121093c-27.414063.046875-54.167969 8.414062-76.71875 24l-49.28125 33.359375c-2.921875 1.964844-4.21875 5.613281-3.1875 8.980469 1.03125 3.371094 4.144531 5.667968 7.667969 5.660156 1.597656.003906 3.15625-.46875 4.480468-1.359375l49.359375-33.761719c19.929688-13.640625 43.527344-20.921875 67.679688-20.878906h111.121093c14.011719 0 27.511719-5.253906 37.839844-14.71875l70.398438-64.5625c13.117187-11.441406 14.914062-31.175781 4.082031-44.796875zm0 0"/><path d="m111.898438 272h256c4.417968 0 8-3.582031 8-8v-52c0-4.417969-3.582032-8-8-8-4.417969 0-8 3.582031-8 8v44h-240v-200h56c4.417968 0 8-3.582031 8-8s-3.582032-8-8-8h-56v-24h80v80c-.007813 2.996094 1.660156 5.742188 4.320312 7.121094 2.574219 1.257812 5.625 1.046875 8-.5625l12.320312-8.796875 9.839844 8c2.953125 2.425781 7.207032 2.425781 10.160156 0l10.558594-8 11.761719 8.636719c1.449219 1.089843 3.226563 1.65625 5.039063 1.601562 4.417968 0 8-3.582031 8-8v-80h80v24h-56c-4.417969 0-8 3.582031-8 8s3.582031 8 8 8h56v120c0 4.417969 3.582031 8 8 8 4.417968 0 8-3.582031 8-8v-168c0-4.417969-3.582032-8-8-8h-256c-4.417969 0-8 3.582031-8 8v256c0 4.417969 3.582031 8 8 8zm152-192-4-2.878906c-2.859376-2.175782-6.820313-2.175782-9.679688 0l-10.160156 8-9.601563-8c-2.875-2.214844-6.882812-2.214844-9.757812 0l-4.800781 3.359375v-64.480469h48zm0 0"/><path d="m215.898438 176c0-4.417969-3.582032-8-8-8h-56c-4.417969 0-8 3.582031-8 8s3.582031 8 8 8h56c4.417968 0 8-3.582031 8-8zm0 0"/><path d="m151.898438 208c-4.417969 0-8 3.582031-8 8s3.582031 8 8 8h24c4.417968 0 8-3.582031 8-8s-3.582032-8-8-8zm0 0"/><path d="m327.898438 168v-24c0-4.417969-3.582032-8-8-8h-48c-4.417969 0-8 3.582031-8 8v24c.046874 14.554688 9.910156 27.242188 24 30.878906v25.121094h-8c-4.417969 0-8 3.582031-8 8s3.582031 8 8 8h32c4.417968 0 8-3.582031 8-8s-3.582032-8-8-8h-8v-25.121094c14.089843-3.636718 23.953124-16.324218 24-30.878906zm-48 0v-16h32v16c0 8.835938-7.164063 16-16 16-8.835938 0-16-7.164062-16-16zm0 0"/></svg>