<?xml version="1.0" encoding="UTF-8"?>
<svg width="1022px" height="718px" viewBox="0 0 1022 718" version="1.1" xmlns="http://www.w3.org/2000/svg" xmlns:xlink="http://www.w3.org/1999/xlink">
    <!-- Generator: Sketch 48.2 (47327) - http://www.bohemiancoding.com/sketch -->
    <title>Step-2</title>
    <desc>Created with Sketch.</desc>
    <defs></defs>
    <g id="Page-1" stroke="none" stroke-width="1" fill="none" fill-rule="evenodd">
        <g id="Step-2" fill-rule="nonzero">
            <g id="undraw_online_organizer_ofxm-(1)" transform="translate(0.000000, 106.000000)">
                <path d="M279.75916,611.19685 L253.26689,537.01848 C253.26689,537.01848 282.40839,551.58923 283.73301,570.13382 C283.73301,570.13382 277.10994,477.41082 263.8638,457.54165 C263.8638,457.54165 285.05762,460.19088 308.90067,563.51075 C308.90067,563.51075 312.87451,444.29551 277.10994,409.85555 C277.10994,409.85555 326.12065,449.59397 330.09449,535.69386 L330.09449,611.19686 L279.75916,611.19685 Z" id="Shape" fill="#F2F2F2"></path>
                <path d="M776.59028,611.19685 L770.22047,593.36139 C770.22047,593.36139 777.22726,596.86478 777.54575,601.32365 C777.54575,601.32365 775.9533,579.02932 772.7684,574.25197 C772.7684,574.25197 777.86424,574.88897 783.59707,599.7312 C783.59707,599.7312 784.55254,571.06706 775.9533,562.78632 C775.9533,562.78632 787.73744,572.34103 788.69291,593.0429 L788.69291,611.1969 L776.59028,611.19685 Z" id="Shape" fill="#F2F2F2"></path>
                <circle id="Oval" fill="#F2F2F2" cx="658.58268" cy="341.33858" r="116.45669"></circle>
                <rect id="Rectangle-path" fill="#F2F2F2" x="0" y="8.83465" width="274.67717" height="152.59843"></rect>
                <rect id="Rectangle-path" fill="#F2F2F2" x="372.66142" y="8.83465" width="274.67717" height="152.59843"></rect>
                <rect id="Rectangle-path" fill="#F2F2F2" x="745.32283" y="8.83465" width="274.67717" height="152.59843"></rect>
                <path d="M706.08615,611.61568 C705.90184,611.3145 701.55589,604.05792 700.0492,588.98945 C698.6672,575.16492 699.55586,551.8626 711.64075,519.35779 C734.53522,457.77959 706.36459,408.0949 706.07675,407.59999 L707.46658,406.79371 C707.53952,406.9192 714.80865,419.58684 719.10283,439.75814 C724.77679,466.501021 722.710687,494.30716 713.14666,519.9178 C690.29141,581.3909 707.28304,610.49174 707.45716,610.7788 L706.08615,611.61568 Z" id="Shape" fill="#3F3D56"></path>
                <circle id="Oval" fill="#8D3B72" cx="697.13386" cy="393.54331" r="10.44094"></circle>
                <circle id="Oval" fill="#3F3D56" cx="730.06299" cy="432.09449" r="10.44094"></circle>
                <circle id="Oval" fill="#8D3B72" cx="707.5748" cy="457.79528" r="10.44094"></circle>
                <circle id="Oval" fill="#8D3B72" cx="734.88189" cy="479.48031" r="10.44094"></circle>
                <circle id="Oval" fill="#3F3D56" cx="699.54331" cy="513.2126" r="10.44094"></circle>
                <path d="M712.3937,612 C712.3937,612 701.95276,586.29921 733.27559,567.02362 L712.3937,612 Z" id="Shape" fill="#3F3D56"></path>
                <path d="M699.553,611.5338 C699.553,611.5338 694.80123,584.20315 658.02334,584.43739 L699.553,611.5338 Z" id="Shape" fill="#3F3D56"></path>
                <rect id="Rectangle-path" fill="#3F3D56" x="0.40157" y="0" width="273.87402" height="13.65354"></rect>
                <rect id="Rectangle-path" fill="#3F3D56" x="373.06299" y="0" width="274.67717" height="13.65354"></rect>
                <rect id="Rectangle-path" fill="#3F3D56" x="745.72441" y="0" width="273.87402" height="13.65354"></rect>
                <rect id="Rectangle-path" fill="#FFFFFF" x="20.88189" y="34.93701" width="49.79528" height="35.33858"></rect>
                <rect id="Rectangle-path" fill="#FFFFFF" x="116.45669" y="34.93701" width="137.33858" height="4.01575"></rect>
                <rect id="Rectangle-path" fill="#FFFFFF" x="116.45669" y="51" width="137.33858" height="4.01575"></rect>
                <rect id="Rectangle-path" fill="#FFFFFF" x="116.45669" y="67.06299" width="137.33858" height="4.01575"></rect>
                <rect id="Rectangle-path" fill="#FFFFFF" x="393.54331" y="34.93701" width="49.79528" height="35.33858"></rect>
                <rect id="Rectangle-path" fill="#FFFFFF" x="489.11811" y="34.93701" width="137.33858" height="4.01575"></rect>
                <rect id="Rectangle-path" fill="#FFFFFF" x="489.11811" y="51" width="137.33858" height="4.01575"></rect>
                <rect id="Rectangle-path" fill="#FFFFFF" x="489.11811" y="67.06299" width="137.33858" height="4.01575"></rect>
                <rect id="Rectangle-path" fill="#FFFFFF" x="766.20472" y="34.93701" width="49.79528" height="35.33858"></rect>
                <rect id="Rectangle-path" fill="#FFFFFF" x="861.77953" y="34.93701" width="137.33858" height="4.01575"></rect>
                <rect id="Rectangle-path" fill="#FFFFFF" x="861.77953" y="51" width="137.33858" height="4.01575"></rect>
                <rect id="Rectangle-path" fill="#FFFFFF" x="861.77953" y="67.06299" width="137.33858" height="4.01575"></rect>
                <circle id="Oval" fill="#8D3B72" cx="45.77953" cy="53.00787" r="16.06299"></circle>
                <circle id="Oval" fill="#8D3B72" cx="791.10236" cy="53.00787" r="16.06299"></circle>
                <rect id="Rectangle-path" fill="#3F3D56" x="126.71411" y="161.43307" width="1.6063" height="4.8189"></rect>
                <path d="M128.3204,359.00787 L126.71411,359.00787 L126.71411,349.37008 L128.3204,349.37008 L128.3204,359.00787 Z M128.3204,339.73228 L126.71411,339.73228 L126.71411,330.09449 L128.3204,330.09449 L128.3204,339.73228 Z M128.3204,320.45669 L126.71411,320.45669 L126.71411,310.8189 L128.3204,310.8189 L128.3204,320.45669 Z M128.3204,301.1811 L126.71411,301.1811 L126.71411,291.54331 L128.3204,291.54331 L128.3204,301.1811 Z M128.3204,281.90551 L126.71411,281.90551 L126.71411,272.26772 L128.3204,272.26772 L128.3204,281.90551 Z M128.3204,262.62992 L126.71411,262.62992 L126.71411,252.99213 L128.3204,252.99213 L128.3204,262.62992 Z M128.3204,243.35433 L126.71411,243.35433 L126.71411,233.71654 L128.3204,233.71654 L128.3204,243.35433 Z M128.3204,224.07874 L126.71411,224.07874 L126.71411,214.44094 L128.3204,214.44094 L128.3204,224.07874 Z M128.3204,204.80315 L126.71411,204.80315 L126.71411,195.16535 L128.3204,195.16535 L128.3204,204.80315 Z M128.3204,185.52756 L126.71411,185.52756 L126.71411,175.88976 L128.3204,175.88976 L128.3204,185.52756 Z" id="Shape" fill="#3F3D56"></path>
                <polygon id="Shape" fill="#3F3D56" points="132.336 374.268 126.714 374.268 126.714 368.646 128.32 368.646 128.32 372.661 132.336 372.661"></polygon>
                <path d="M868.1608,374.26772 L858.47908,374.26772 L858.47908,372.66142 L868.1608,372.66142 L868.1608,374.26772 Z M848.79737,374.26772 L839.11565,374.26772 L839.11565,372.66142 L848.79737,372.66142 L848.79737,374.26772 Z M829.43393,374.26772 L819.75143,374.26772 L819.75143,372.66142 L829.43393,372.66142 L829.43393,374.26772 Z M810.06971,374.26772 L800.388,374.26772 L800.388,372.66142 L810.06971,372.66142 L810.06971,374.26772 Z M790.70628,374.26772 L781.02378,374.26772 L781.02378,372.66142 L790.70628,372.66142 L790.70628,374.26772 Z M771.34206,374.26772 L761.66034,374.26772 L761.66034,372.66142 L771.34206,372.66142 L771.34206,374.26772 Z M751.97862,374.26772 L742.29612,374.26772 L742.29612,372.66142 L751.97862,372.66142 L751.97862,374.26772 Z M732.6144,374.26772 L722.93269,374.26772 L722.93269,372.66142 L732.6144,372.66142 L732.6144,374.26772 Z M713.25097,374.26772 L703.56847,374.26772 L703.56847,372.66142 L713.25097,372.66142 L713.25097,374.26772 Z M693.88675,374.26772 L684.205,374.26772 L684.205,372.66142 L693.88675,372.66142 L693.88675,374.26772 Z M674.52331,374.26772 L664.84081,374.26772 L664.84081,372.66142 L674.52331,372.66142 L674.52331,374.26772 Z M655.1591,374.26772 L645.47738,374.26772 L645.47738,372.66142 L655.1591,372.66142 L655.1591,374.26772 Z M635.79566,374.26772 L626.11316,374.26772 L626.11316,372.66142 L635.79566,372.66142 L635.79566,374.26772 Z M616.43144,374.26772 L606.74972,374.26772 L606.74972,372.66142 L616.43144,372.66142 L616.43144,374.26772 Z M597.06801,374.26772 L587.3855,374.26772 L587.3855,372.66142 L597.06801,372.66142 L597.06801,374.26772 Z M577.70379,374.26772 L568.02207,374.26772 L568.02207,372.66142 L577.70379,372.66142 L577.70379,374.26772 Z M558.34035,374.26772 L548.65785,374.26772 L548.65785,372.66142 L558.34035,372.66142 L558.34035,374.26772 Z M538.97613,374.26772 L529.29441,374.26772 L529.29441,372.66142 L538.97613,372.66142 L538.97613,374.26772 Z M519.6127,374.26772 L509.93059,374.26772 L509.93059,372.66142 L519.6127,372.66142 L519.6127,374.26772 Z M500.24887,374.26772 L490.56676,374.26772 L490.56676,372.66142 L500.24887,372.66142 L500.24887,374.26772 Z M480.88504,374.26772 L471.20293,374.26772 L471.20293,372.66142 L480.88504,372.66142 L480.88504,374.26772 Z M461.52122,374.26772 L451.83911,374.26772 L451.83911,372.66142 L461.52122,372.66142 L461.52122,374.26772 Z M442.15739,374.26772 L432.47528,374.26772 L432.47528,372.66142 L442.15739,372.66142 L442.15739,374.26772 Z M422.79356,374.26772 L413.11145,374.26772 L413.11145,372.66142 L422.79356,372.66142 L422.79356,374.26772 Z M403.42973,374.26772 L393.74762,374.26772 L393.74762,372.66142 L403.42973,372.66142 L403.42973,374.26772 Z M384.06591,374.26772 L374.3838,374.26772 L374.3838,372.66142 L384.06591,372.66142 L384.06591,374.26772 Z M364.70211,374.26772 L355.02,374.26772 L355.02,372.66142 L364.70211,372.66142 L364.70211,374.26772 Z M345.33825,374.26772 L335.65614,374.26772 L335.65614,372.66142 L345.33825,372.66142 L345.33825,374.26772 Z M325.97442,374.26772 L316.29232,374.26772 L316.29232,372.66142 L325.97442,372.66142 L325.97442,374.26772 Z M306.6106,374.26772 L296.92849,374.26772 L296.92849,372.66142 L306.6106,372.66142 L306.6106,374.26772 Z M287.24677,374.26772 L277.56466,374.26772 L277.56466,372.66142 L287.24677,372.66142 L287.24677,374.26772 Z M267.88294,374.26772 L258.20123,374.26772 L258.20123,372.66142 L267.88294,372.66142 L267.88294,374.26772 Z M248.51912,374.26772 L238.8374,374.26772 L238.8374,372.66142 L248.51912,372.66142 L248.51912,374.26772 Z M229.15529,374.26772 L219.47357,374.26772 L219.47357,372.66142 L229.15529,372.66142 L229.15529,374.26772 Z M209.79146,374.26772 L200.10974,374.26772 L200.10974,372.66142 L209.79146,372.66142 L209.79146,374.26772 Z M190.42763,374.26772 L180.74592,374.26772 L180.74592,372.66142 L190.42763,372.66142 L190.42763,374.26772 Z M171.06381,374.26772 L161.38209,374.26772 L161.38209,372.66142 L171.06381,372.66142 L171.06381,374.26772 Z M151.7,374.26772 L142.01826,374.26772 L142.01826,372.66142 L151.7,372.66142 L151.7,374.26772 Z" id="Shape" fill="#3F3D56"></path>
                <polygon id="Shape" fill="#3F3D56" points="883.465 374.268 877.843 374.268 877.843 372.661 881.858 372.661 881.858 368.646 883.465 368.646"></polygon>
                <path d="M883.46457,359.00787 L881.85827,359.00787 L881.85827,349.37008 L883.46457,349.37008 L883.46457,359.00787 Z M883.46457,339.73228 L881.85827,339.73228 L881.85827,330.09449 L883.46457,330.09449 L883.46457,339.73228 Z M883.46457,320.45669 L881.85827,320.45669 L881.85827,310.8189 L883.46457,310.8189 L883.46457,320.45669 Z M883.46457,301.1811 L881.85827,301.1811 L881.85827,291.54331 L883.46457,291.54331 L883.46457,301.1811 Z M883.46457,281.90551 L881.85827,281.90551 L881.85827,272.26772 L883.46457,272.26772 L883.46457,281.90551 Z M883.46457,262.62992 L881.85827,262.62992 L881.85827,252.99213 L883.46457,252.99213 L883.46457,262.62992 Z M883.46457,243.35433 L881.85827,243.35433 L881.85827,233.71654 L883.46457,233.71654 L883.46457,243.35433 Z M883.46457,224.07874 L881.85827,224.07874 L881.85827,214.44094 L883.46457,214.44094 L883.46457,224.07874 Z M883.46457,204.80315 L881.85827,204.80315 L881.85827,195.16535 L883.46457,195.16535 L883.46457,204.80315 Z M883.46457,185.52756 L881.85827,185.52756 L881.85827,175.88976 L883.46457,175.88976 L883.46457,185.52756 Z" id="Shape" fill="#3F3D56"></path>
                <rect id="Rectangle-path" fill="#3F3D56" x="881.85827" y="161.43307" width="1.6063" height="4.8189"></rect>
                <rect id="Rectangle-path" fill="#3F3D56" x="372.66142" y="325.27559" width="274.67717" height="285.92126"></rect>
                <rect id="Rectangle-path" fill="#FFFFFF" x="393.54331" y="362.62205" width="49.79528" height="35.33858"></rect>
                <rect id="Rectangle-path" fill="#FFFFFF" x="489.11811" y="362.62205" width="137.33858" height="4.01575"></rect>
                <rect id="Rectangle-path" fill="#FFFFFF" x="489.11811" y="378.68504" width="137.33858" height="4.01575"></rect>
                <rect id="Rectangle-path" fill="#FFFFFF" x="489.11811" y="394.74803" width="137.33858" height="4.01575"></rect>
                <rect id="Rectangle-path" fill="#FFFFFF" x="393.54331" y="489.92126" width="49.79528" height="35.33858"></rect>
                <rect id="Rectangle-path" fill="#FFFFFF" x="489.11811" y="489.92126" width="137.33858" height="4.01575"></rect>
                <rect id="Rectangle-path" fill="#FFFFFF" x="489.11811" y="505.98425" width="137.33858" height="4.01575"></rect>
                <rect id="Rectangle-path" fill="#FFFFFF" x="489.11811" y="522.04724" width="137.33858" height="4.01575"></rect>
                <polygon id="Shape" fill="#8D3B72" points="418.652 389.229 401.607 366.503 405.645 363.475 419.53 381.989 454.923 353.324 458.119 357.23"></polygon>
                <polygon id="Shape" fill="#8D3B72" points="418.652 515.324 401.607 492.598 405.645 489.57 419.53 508.083 454.923 479.418 458.119 483.325"></polygon>
                <rect id="Rectangle-path" fill="#3F3D56" x="7.22835" y="610.3937" width="991.88976" height="1.6063"></rect>
                <path d="M544.57387,170.26772 C544.57387,170.26772 571.0778,158.71886 583.52662,170.91849 C595.97544,183.11812 550.19591,179.10236 544.57387,170.26772 Z" id="Shape" fill="#3F3D56"></path>
                <path d="M590.33918,115.49668 C581.43237,100.44694 563.81097,99.74555 563.81097,99.74555 C563.81097,99.74555 546.63997,97.54974 535.62481,120.47068 C525.35781,141.83488 511.18811,162.46245 533.34359,167.46368 L537.34552,155.0079 L539.82389,168.391 C542.978406,168.617885 546.142974,168.671966 549.3034,168.553 C573.03014,167.787 595.62627,168.77713 594.89871,160.263 C593.93154,148.94459 598.90931,129.97754 590.33918,115.49668 Z" id="Shape" fill="#2F2E41"></path>
                <path d="M602.80221,388.32283 C602.80221,388.32283 591.55812,409.20472 584.32977,409.20472 C577.10142,409.20472 577.90457,422.85827 579.51087,426.07087 C581.11717,429.28347 585.13292,436.51181 578.70772,446.95276 C576.4634,450.59976 576.86488,454.73676 578.33763,458.57644 C582.46409,469.3347 598.5159,466.07532 598.00382,454.56421 C597.998167,454.43731 597.99133,454.309607 597.98331,454.1811 C597.18016,441.33071 603.60536,421.25197 610.03056,416.4331 C616.45576,411.61423 622.0778,398.76381 622.0778,398.76381 L602.80221,388.32283 Z" id="Shape" fill="#FFB8B8"></path>
                <path d="M525.69985,383.50394 C525.69985,383.50394 536.94394,404.38583 544.17229,404.38583 C551.40064,404.38583 550.59749,418.03937 548.99119,421.25197 C547.38489,424.46457 543.36919,431.69291 549.79434,442.13386 C552.03866,445.78086 551.63718,449.91786 550.16443,453.75754 C546.03797,464.51581 529.98616,461.25642 530.49824,449.74531 C530.503887,449.61841 530.510723,449.490707 530.51875,449.3622 C531.3219,436.51181 524.89675,416.43307 518.4715,411.6142 C512.04625,406.79533 506.42426,393.94491 506.42426,393.94491 L525.69985,383.50394 Z" id="Shape" fill="#FFB8B8"></path>
                <path d="M534.53449,280.70079 L529.7156,291.14173 C529.7156,291.14173 459.03843,314.43307 465.4636,341.74016 C471.88877,369.04725 503.2116,411.61416 508.03053,410.00787 C512.84946,408.40158 538.55021,403.58268 539.35336,389.92913 C540.15651,376.27558 520.88092,352.18113 520.88092,352.18113 L547.38486,328.08664 L585.95238,327.28349 L618.8652,352.1811 C618.8652,352.1811 584.32977,382.70079 599.58961,394.74803 C614.84945,406.79527 637.33761,414.82677 640.55024,410.00787 C643.76287,405.18897 679.90457,333.70866 674.28253,327.28346 C668.66049,320.85826 611.63686,296.76378 611.63686,296.76378 L596.37701,275.07878 L536.94394,271.86618 L534.53449,280.70079 Z" id="Shape" fill="#2F2E41"></path>
                <path d="M548.99119,148.1811 C548.99119,148.1811 553.00694,174.68504 544.97544,177.89764 C536.94394,181.11024 561.03844,194.76378 561.03844,194.76378 L574.692,194.76378 L583.52664,176.29134 C583.52664,176.29134 575.49514,161.83465 580.31404,148.1811 C585.13294,134.52755 548.99119,148.1811 548.99119,148.1811 Z" id="Shape" fill="#FFB8B8"></path>
                <path d="M548.99119,148.1811 C548.99119,148.1811 553.00694,174.68504 544.97544,177.89764 C536.94394,181.11024 561.03844,194.76378 561.03844,194.76378 L574.692,194.76378 L583.52664,176.29134 C583.52664,176.29134 575.49514,161.83465 580.31404,148.1811 C585.13294,134.52755 548.99119,148.1811 548.99119,148.1811 Z" id="Shape" fill="#000000" opacity="0.1"></path>
                <path d="M543.36914,170.66929 C543.36914,170.66929 552.20379,180.30709 553.81009,181.91339 C555.41639,183.51969 562.64473,192.35433 577.90457,179.50394 C593.16441,166.65355 594.77072,181.91339 594.77072,181.91339 L594.77072,278.29139 C594.77072,278.29139 581.92032,272.66939 571.47938,278.29139 C561.03844,283.91339 539.35338,276.68509 539.35338,276.68509 L535.33763,177.09454 L543.36914,170.66929 Z" id="Shape" fill="#FFFFFF"></path>
                <path d="M549.26859,170.66929 C549.26859,170.66929 541.76284,167.45669 535.33759,170.66929 C528.91234,173.88189 506.42421,189.94488 508.03051,197.17323 C509.63681,204.40158 530.51875,255 516.06205,279.09449 C501.60535,303.18898 499.19591,309.61417 499.19591,309.61417 L534.53449,291.14173 C534.53449,291.14173 561.84158,274.27559 559.43213,263.83465 C557.02268,253.39371 549.26859,170.66929 549.26859,170.66929 Z" id="Shape" fill="#8D3B72"></path>
                <path d="M581.12665,170.66929 C581.12665,170.66929 597.98331,172.27559 598.78646,173.88189 C599.58961,175.48819 624.08568,182.31496 622.47938,189.54331 C620.87308,196.77166 598.78646,261.4252 608.42426,273.47244 C618.06206,285.51968 634.12505,302.38583 628.503,303.99213 C622.88095,305.59843 613.24316,301.58268 603.60536,303.99213 C593.96756,306.40158 571.47936,286.32283 573.88883,264.6378 C576.2983,242.95277 573.90777,176.29134 581.12665,170.66929 Z" id="Shape" fill="#8D3B72"></path>
                <path d="M540.95969,324.07087 L540.95969,332.10236 C540.95969,332.10236 536.94394,350.5748 549.79434,349.77165 C562.64474,348.9685 554.61324,327.28346 554.61324,327.28346 L553.81009,320.05512 L540.95969,324.07087 Z" id="Shape" fill="#FFB8B8"></path>
                <path d="M577.10142,324.874 C577.10142,324.874 568.26678,343.34644 577.10142,344.95274 C585.93606,346.55904 592.36127,334.51174 592.36127,331.29919 C592.36127,328.08664 577.10142,324.874 577.10142,324.874 Z" id="Shape" fill="#FFB8B8"></path>
                <ellipse id="Oval" fill="#FFB8B8" cx="588.74709" cy="137.33858" rx="1.6063" ry="3.2126"></ellipse>
                <ellipse id="Oval" fill="#FFB8B8" cx="541.36127" cy="137.33858" rx="1.6063" ry="3.2126"></ellipse>
                <path d="M602.80221,181.11024 C602.80221,181.11024 622.88095,181.11024 622.0778,189.14173 C621.27465,197.17322 594.77072,335.315 594.77072,335.315 C594.77072,335.315 583.52662,324.87406 573.88883,327.2835 L602.80221,181.11024 Z" id="Shape" fill="#8D3B72"></path>
                <path d="M524.8967,183.51969 C524.8967,183.51969 504.81796,187.53543 504.81796,199.58269 C504.81796,211.62995 533.73135,327.28347 537.74709,327.28347 C541.76283,327.28347 557.02268,324.87403 557.02268,320.85828 C557.02268,316.84253 524.8967,183.51969 524.8967,183.51969 Z" id="Shape" fill="#8D3B72"></path>
                <path d="M529.314,207.2126 L547.38487,277.8826 C547.38487,277.8826 538.95182,216.04724 529.314,207.2126 Z" id="Shape" fill="#000000" opacity="0.2"></path>
                <path d="M599.60328,197.28263 L581.32691,289.67984 C581.32691,289.67984 587.16812,202.6125 599.60328,197.28263 Z" id="Shape" fill="#000000" opacity="0.2"></path>
                <circle id="Oval" fill="#FFB8B8" cx="565.05418" cy="137.74016" r="23.29134"></circle>
                <polygon id="Shape" fill="#2F2E41" points="586.401 114.046 568.992 104.927 544.951 108.657 539.977 130.626 552.359 130.15 555.818 122.079 555.818 130.017 561.531 129.797 564.847 116.947 566.92 130.626 587.23 130.212"></polygon>
            </g>
            <rect id="Rectangle-path" fill="#3F3D56" x="834" y="50" width="105" height="2"></rect>
            <rect id="Rectangle-path" fill="#3F3D56" x="419" y="50" width="333" height="2"></rect>
            <circle id="Oval" fill="#D0CDE1" cx="606" cy="51" r="41"></circle>
            <circle id="Oval" fill="#D0CDE1" cx="419" cy="51" r="41"></circle>
            <circle id="Oval" fill="#8D3B72" cx="794" cy="51" r="41"></circle>
            <path d="M980,93 C956.804041,93 938,74.1959595 938,51 C938,27.8040405 956.804041,9 980,9 C1003.19596,9 1022,27.8040405 1022,51 C1021.97382,74.185108 1003.18511,92.9738231 980,93 Z M980,11 C957.90861,11 940,28.90861 940,51 C940,73.09139 957.90861,91 980,91 C1002.09139,91 1020,73.09139 1020,51 C1019.97492,28.9190068 1002.08099,11.0250799 980,11 Z" id="Shape" fill="#3F3D56"></path>
            <polygon id="Shape" fill="#8D3B72" points="601.768 68.418 584 44.729 590.4 39.928 602.633 56.238 658.872 0 664.528 5.656"></polygon>
        </g>
    </g>
</svg>