<?xml version="1.0" encoding="UTF-8"?>
<svg width="1012px" height="637px" viewBox="0 0 1012 637" version="1.1" xmlns="http://www.w3.org/2000/svg" xmlns:xlink="http://www.w3.org/1999/xlink">
    <!-- Generator: Sketch 48.2 (47327) - http://www.bohemiancoding.com/sketch -->
    <title>Step-1</title>
    <desc>Created with Sketch.</desc>
    <defs></defs>
    <g id="Page-1" stroke="none" stroke-width="1" fill="none" fill-rule="evenodd">
        <g id="Step-1">
            <g id="undraw_fill_forms_yltj"></g>
            <g id="Group" fill-rule="nonzero">
                <path d="M378.79306,266.4343 C378.79306,266.4343 461.79306,270.4343 466.79306,299.4343 C471.79306,328.4343 369.79306,302.4343 369.79306,302.4343 L378.79306,266.4343 Z" id="Shape" fill="#A0616A"></path>
                <path d="M247.79306,174.4343 C247.79306,174.4343 261.79306,178.4343 272.79306,202.4343 C283.79306,226.4343 305.79306,248.4343 305.79306,248.4343 L394.79306,265.4343 L379.79306,310.4343 L294.79306,299.4343 L241.79306,269.4343 L247.79306,174.4343 Z" id="Shape" fill="#575A89"></path>
                <path d="M247.79306,174.4343 C247.79306,174.4343 261.79306,178.4343 272.79306,202.4343 C283.79306,226.4343 305.79306,248.4343 305.79306,248.4343 L394.79306,265.4343 L379.79306,310.4343 L294.79306,299.4343 L241.79306,269.4343 L247.79306,174.4343 Z" id="Shape" fill="#000000" opacity="0.1"></path>
                <rect id="Rectangle-path" fill="#3F3D56" x="824.29306" y="92.93432" width="105" height="2"></rect>
                <rect id="Rectangle-path" fill="#3F3D56" x="409.29306" y="92.93432" width="333" height="2"></rect>
                <rect id="Rectangle-path" fill="#3F3D56" x="30.29306" y="333.93432" width="789" height="301"></rect>
                <polygon id="Shape" fill="#A0616A" points="115.793 128.434 124.793 185.434 186.793 188.434 179.793 104.434"></polygon>
                <path d="M50.29306,508.9343 L47.29306,634.9343 L141.29306,634.9343 L155.29306,584.9343 L166.29306,634.9343 L264.29306,634.9343 C264.29306,634.9343 266.29306,490.9343 255.29306,489.9343 C244.29306,488.9343 50.29306,508.9343 50.29306,508.9343 Z" id="Shape" fill="#2F2E41"></path>
                <circle id="Oval" fill="#A0616A" cx="135.79306" cy="89.43432" r="54"></circle>
                <path d="M44.79306,514.4343 L72.79306,376.4343 L35.79306,193.4343 L121.0074,161.45848 L162.79306,156.4343 L183.7996,152.51283 L198.79306,156.4343 C198.79306,156.4343 258.79306,171.4343 261.79306,182.4343 C264.79306,193.4343 249.79306,283.4343 249.79306,283.4343 L235.79306,357.4343 L266.79306,490.4343 C266.79306,490.4343 137.79306,534.4343 46.79306,514.4343 L44.79306,514.4343 Z" id="Shape" fill="#575A89"></path>
                <polygon id="Shape" fill="#000000" opacity="0.1" points="82.293 243.934 82.293 280.934 200.285 281.095 88.293 268.934"></polygon>
                <polygon id="Shape" fill="#000000" opacity="0.1" points="72.159 346.12 220.293 324.934 72.159 366.89"></polygon>
                <polygon id="Shape" fill="#000000" opacity="0.1" points="307.293 248.934 291.412 306.159 318.293 250.822"></polygon>
                <path d="M180.234,35.27792 L190.16407,31.30247 C190.16407,31.30247 169.40125,8.44376 140.51359,10.43157 L148.63842,1.48676 C148.63842,1.48676 128.77827,-6.46401 110.72362,14.40689 C101.23262,25.37825 90.25146,38.27456 83.40586,52.80206 L72.77144,52.80206 L77.20984,62.57494 L61.6754,72.34782 L77.61998,70.59241 C76.6698766,75.9441471 76.5240426,81.4077392 77.1873,86.80254 C77.8712974,92.1989979 80.6251459,97.1186281 84.86765,100.52315 C84.86765,100.52315 97.18275,75.03208 97.18275,71.05663 L97.18275,80.99521 C97.18275,80.99521 107.11282,72.05054 107.11282,66.08744 L112.52917,73.04444 L115.23734,62.11196 L148.63842,73.04444 L143.22207,64.09976 L163.9849,67.08131 L155.86007,56.14883 C155.86007,56.14883 179.33107,69.06896 180.234,80.00144 C181.13662,90.93376 188.00669,101.29285 188.00669,101.29285 C188.00669,101.29285 206.41324,50.1857 180.234,35.27792 Z" id="Shape" fill="#2F2E41"></path>
                <rect id="Rectangle-path" fill="#D0CDE1" x="233.29306" y="234.93432" width="384" height="401"></rect>
                <rect id="Rectangle-path" fill="#8D3B72" x="273.29306" y="322.93432" width="284" height="40"></rect>
                <rect id="Rectangle-path" fill="#8D3B72" x="322.11632" y="428.93432" width="185.99441" height="20"></rect>
                <rect id="Rectangle-path" fill="#8D3B72" x="322.47538" y="463.93432" width="185.99441" height="20"></rect>
                <rect id="Rectangle-path" fill="#8D3B72" x="322.83445" y="498.93432" width="92.9972" height="20"></rect>
                <rect id="Rectangle-path" fill="#8D3B72" x="519.29306" y="599.93432" width="43" height="20"></rect>
                <path d="M205.79306,285.4343 C205.79306,285.4343 292.79306,272.4343 305.79306,291.4343 C318.79306,310.4343 213.79306,320.4343 213.79306,320.4343 L205.79306,285.4343 Z" id="Shape" fill="#A0616A"></path>
                <path d="M45.79306,192.4343 L39.52719,192.4343 C36.950138,192.426936 34.4655282,193.393876 32.57139,195.1413 C26.62345,200.66407 14.0468,214.9162 8.79306,240.4343 C1.79306,274.4343 -10.20694,340.4343 16.79306,345.4343 C43.79306,350.4343 220.79306,326.4343 220.79306,326.4343 L207.79306,280.4343 L79.79306,281.4343 C79.79306,281.4343 81.79306,259.4343 77.79306,245.4343 C73.79306,231.4343 45.79306,192.4343 45.79306,192.4343 Z" id="Shape" fill="#575A89"></path>
                <circle id="Oval" fill="#D0CDE1" cx="409" cy="94" r="41"></circle>
                <circle id="Oval" fill="#8D3B72" cx="596" cy="94" r="41"></circle>
                <path d="M783,136 C759.804041,136 741,117.195959 741,94 C741,70.8040405 759.804041,52 783,52 C806.195959,52 825,70.8040405 825,94 C824.973823,117.185108 806.185108,135.973823 783,136 Z M783,54 C760.90861,54 743,71.90861 743,94 C743,116.09139 760.90861,134 783,134 C805.09139,134 823,116.09139 823,94 C822.97492,71.9190068 805.080993,54.0250799 783,54 Z" id="Shape" fill="#3F3D56"></path>
                <path d="M970,136 C946.804041,136 928,117.195959 928,94 C928,70.8040405 946.804041,52 970,52 C993.195959,52 1012,70.8040405 1012,94 C1011.97382,117.185108 993.185108,135.973823 970,136 Z M970,54 C947.90861,54 930,71.90861 930,94 C930,116.09139 947.90861,134 970,134 C992.09139,134 1010,116.09139 1010,94 C1009.97492,71.9190068 992.080993,54.0250799 970,54 Z" id="Shape" fill="#3F3D56"></path>
            </g>
            <polygon id="Shape" fill="#8D3B72" fill-rule="nonzero" points="403.641 111.377 385.873 87.688 392.273 82.887 404.506 99.197 460.745 42.959 466.401 48.615"></polygon>
            <rect id="Rectangle-path" fill="#3F3D56" fill-rule="nonzero" x="16.49572" y="633.8306" width="816.59467" height="2.78201"></rect>
        </g>
    </g>
</svg>