<?xml version="1.0" encoding="UTF-8"?>
<svg width="304px" height="261px" viewBox="0 0 304 261" version="1.1" xmlns="http://www.w3.org/2000/svg" xmlns:xlink="http://www.w3.org/1999/xlink">
    <!-- Generator: Sketch 48.2 (47327) - http://www.bohemiancoding.com/sketch -->
    <title>tr_favicon#</title>
    <desc>Created with Sketch.</desc>
    <defs></defs>
    <g id="tracked_logo" stroke="none" stroke-width="1" fill="none" fill-rule="evenodd" transform="translate(-5.000000, -50.000000)">
        <g id="tr_favicon#" transform="translate(5.000000, 50.000000)">
            <rect id="Rectangle" fill="#8D3B72" x="0" y="0" width="304" height="261" rx="20"></rect>
            <path d="M54.378418,102.553223 L36.6538086,102.553223 L36.6538086,76.2348633 C44.5314521,73.9073777 50.4395962,71.7365823 54.378418,69.7224121 C58.3172397,67.7082419 61.2265531,64.7317905 63.1064453,60.7929688 C64.2701881,58.4654832 66.5528801,53.0049258 69.9545898,44.4111328 L73.8486328,35.0117188 L104.061035,35.0117188 L104.061035,69.9238281 L143.807129,69.9238281 L143.807129,102.553223 L104.061035,102.553223 L104.061035,157.069824 C104.061035,166.558804 104.57576,173.451639 105.605225,177.748535 C106.634689,182.045432 108.335519,184.820469 110.707764,186.07373 C113.080009,187.326992 116.772599,187.953613 121.785645,187.953613 C125.276873,187.953613 129.305153,187.349371 133.870605,186.140869 C138.436058,184.932367 141.882475,183.522469 144.209961,181.911133 L150.118164,209.572266 C147.522122,211.98927 143.58336,214.406238 138.301758,216.823242 C133.020156,219.240246 126.932977,221.232007 120.040039,222.798584 C113.147101,224.365161 106.164749,225.148438 99.0927734,225.148438 C88.2610135,225.148438 79.5554528,223.335711 72.9758301,219.710205 C66.3962073,216.084699 61.6517886,210.624141 58.7424316,203.328369 C55.8330746,196.032597 54.378418,186.700415 54.378418,175.331543 L54.378418,102.553223 Z M263.71462,67.5068359 C269.264778,67.5068359 272.979747,68.1334573 274.859639,69.3867188 L274.859639,118.397949 C270.652261,115.980945 265.191704,114.772461 258.477803,114.772461 C244.065296,114.772461 232.472802,119.651156 223.699971,129.408691 L223.699971,223 L173.883077,223 L173.883077,69.9238281 L217.523213,69.9238281 L219.671651,94.496582 C221.73058,89.3044988 224.930825,84.6495974 229.272481,80.5317383 C233.614137,76.4138792 238.761383,73.2136345 244.714376,70.9309082 C250.667368,68.6481819 257.000719,67.5068359 263.71462,67.5068359 Z" id="tr" fill="#FFFFFF"></path>
        </g>
    </g>
</svg>