<?xml version="1.0" encoding="UTF-8"?>
<svg width="1128px" height="353px" viewBox="0 0 1128 353" version="1.1" xmlns="http://www.w3.org/2000/svg" xmlns:xlink="http://www.w3.org/1999/xlink">
    <!-- Generator: Sketch 48.2 (47327) - http://www.bohemiancoding.com/sketch -->
    <title>tracked_logo</title>
    <desc>Created with Sketch.</desc>
    <defs></defs>
    <g id="Page-1" stroke="none" stroke-width="1" fill="none" fill-rule="evenodd">
        <g id="tracked_logo">
            <rect id="Rectangle" fill="#8D3B72" x="5" y="50" width="304" height="261" rx="20"></rect>
            <g id="Group" transform="translate(34.000000, 3.000000)">
                <path d="M362.594727,114.238281 C378.887126,114.238281 391.84476,116.140525 401.468018,119.945068 C411.091275,123.749612 418.073627,129.836791 422.415283,138.206787 C426.756939,146.576783 428.927734,157.878347 428.927734,172.111816 L428.927734,272.148438 L397.775391,272.148438 C393.74705,272.148438 390.703461,271.879885 388.644531,271.342773 C386.585602,270.805661 384.97429,269.552419 383.810547,267.583008 C382.646804,265.613597 382.064941,262.48049 382.064941,258.183594 L382.064941,257.109375 C370.606551,267.135467 356.373295,272.148438 339.364746,272.148438 C329.428173,272.148438 320.677854,270.067159 313.113525,265.904541 C305.549197,261.741923 299.708191,255.945675 295.590332,248.515625 C291.472473,241.085575 289.413574,232.670945 289.413574,223.271484 C289.413574,214.409135 291.852922,206.643507 296.731689,199.974365 C301.610457,193.305224 308.346637,188.135598 316.94043,184.465332 C325.355185,180.884585 334.888781,178.445238 345.541504,177.147217 C356.194226,175.849196 367.518169,175.200195 379.513672,175.200195 L379.513672,165.935059 C379.513672,161.369606 378.775154,157.923189 377.298096,155.595703 C375.821038,153.268218 373.135518,151.656906 369.241455,150.761719 C365.347393,149.866532 359.461628,149.418945 351.583984,149.418945 C345.76527,149.418945 338.268194,150.470774 329.092529,152.574463 C319.916865,154.678152 312.01696,157.251775 305.392578,160.29541 L295.321777,131.022949 C299.350118,128.605945 304.98971,126.09946 312.240723,123.503418 C319.491735,120.907376 327.570675,118.714202 336.477783,116.923828 C345.384892,115.133455 354.090452,114.238281 362.594727,114.238281 Z M360.177734,241.533203 C363.937519,241.533203 367.719626,240.861823 371.52417,239.519043 C375.328714,238.176263 377.991854,236.699227 379.513672,235.087891 L379.513672,199.101562 C374.679663,199.191081 369.666693,199.683427 364.474609,200.578613 C359.282526,201.4738 355.343763,202.548008 352.658203,203.80127 C349.077456,205.233568 346.190522,207.18057 343.997314,209.642334 C341.804107,212.104098 340.70752,215.796688 340.70752,220.720215 C340.70752,227.523634 342.587384,232.69326 346.347168,236.229248 C350.106952,239.765236 354.717095,241.533203 360.177734,241.533203 Z M536.750264,114.775391 C546.5078,114.775391 555.347637,115.558667 563.27004,117.125244 C571.192442,118.691821 576.451586,120.459788 579.047627,122.429199 L573.407979,159.758301 C565.977929,155.550923 555.996746,153.447266 543.464131,153.447266 C537.555899,153.447266 532.028203,154.722888 526.880879,157.27417 C521.733555,159.825452 517.526241,164.055146 514.258809,169.963379 C510.991377,175.871612 509.357686,183.570102 509.357686,193.059082 C509.357686,207.38207 512.513172,217.78846 518.824239,224.278564 C525.135305,230.768669 533.482797,234.013672 543.866963,234.013672 C550.133271,234.013672 556.063794,233.498947 561.658711,232.469482 C567.253629,231.440018 571.751875,230.119637 575.153584,228.508301 L581.196065,256.572266 C576.899168,261.048199 570.252506,264.763169 561.255879,267.717285 C552.259252,270.671401 542.882312,272.148438 533.124776,272.148438 C516.742858,272.148438 503.001947,268.858675 491.901631,262.279053 C480.801315,255.69943 472.543341,246.613421 467.127461,235.020752 C461.711581,223.428083 459.003682,210.067621 459.003682,194.938965 C459.003682,179.541752 461.823478,165.823221 467.463155,153.782959 C473.102831,141.742697 481.741254,132.23148 493.378682,125.249023 C505.01611,118.266567 519.47316,114.775391 536.750264,114.775391 Z M673.5767,210.917969 L659.074747,226.628418 L659.477579,244.621582 L659.477579,270 L609.660685,270 L609.660685,46.965332 L659.477579,46.965332 L659.477579,131.425781 L657.866251,173.320312 L703.520548,116.923828 L760.05131,116.923828 L705.668985,176.005859 L763.676798,270 L708.48881,270 L673.5767,210.917969 Z M913.662414,176.945801 C913.662414,188.225154 913.12531,197.624474 912.051085,205.144043 L822.219543,205.144043 C823.293767,216.244359 827.053495,224.323298 833.498839,229.381104 C839.944184,234.438909 848.940676,236.967773 860.488585,236.967773 C867.739598,236.967773 875.460468,236.184497 883.651427,234.61792 C891.842386,233.051343 897.817668,231.238617 901.577453,229.179688 L909.231261,255.632324 C903.681103,260.108258 895.445509,263.979883 884.52423,267.247314 C873.602951,270.514746 861.697146,272.148438 848.806457,272.148438 C832.514057,272.148438 818.66125,268.992951 807.247619,262.681885 C795.833987,256.370818 787.195565,247.284809 781.332091,235.423584 C775.468618,223.562359 772.536925,209.351483 772.536925,192.790527 C772.536925,177.840908 775.580515,164.458067 781.667785,152.641602 C787.755055,140.825136 796.594891,131.560092 808.18756,124.846191 C819.780229,118.132291 833.49876,114.775391 849.343566,114.775391 C868.142488,114.775391 883.51709,119.475051 895.467834,128.874512 C907.418577,138.273973 913.483376,154.297576 913.662414,176.945801 Z M867.605285,180.302734 C867.694803,178.959954 867.739562,177.035332 867.739562,174.528809 C867.739562,165.129348 866.195388,158.169375 863.106994,153.648682 C860.018599,149.127988 855.072767,146.867676 848.269347,146.867676 C840.839297,146.867676 835.02067,149.39654 830.813293,154.454346 C826.605915,159.512151 823.875636,168.128194 822.622375,180.302734 L867.605285,180.302734 Z M1089.02645,46.8310547 L1089.02645,272.148438 L1050.89168,272.148438 C1048.47468,272.148438 1046.63957,271.521816 1045.38631,270.268555 C1044.13305,269.015293 1043.50643,267.224947 1043.50643,264.897461 L1043.50643,254.020996 C1031.68996,266.106017 1016.24822,272.148438 997.180744,272.148438 C985.99091,272.148438 975.808313,269.418159 966.632648,263.95752 C957.456984,258.49688 950.138942,250.238906 944.678303,239.18335 C939.217664,228.127793 936.487385,214.633055 936.487385,198.69873 C936.487385,181.600663 939.710009,166.740786 946.155354,154.118652 C952.600698,141.496519 961.709087,131.783888 973.480793,124.980469 C985.252499,118.177049 998.926272,114.775391 1014.50252,114.775391 C1024.08102,114.775391 1032.54041,116.028633 1039.88094,118.535156 L1039.34383,102.15332 L1039.34383,46.8310547 L1089.02645,46.8310547 Z M988.586994,196.818848 C988.586994,210.336168 990.780169,220.071178 995.166584,226.02417 C999.552999,231.977162 1005.90873,234.953613 1014.23397,234.953613 C1018.79942,234.953613 1023.40956,234.259854 1028.06453,232.872314 C1032.7195,231.484775 1036.47923,229.806325 1039.34383,227.836914 L1039.34383,153.312988 C1035.40501,150.537909 1028.42266,149.150391 1018.39656,149.150391 C1012.48833,149.150391 1007.29633,150.940737 1002.82039,154.521484 C998.344459,158.102231 994.853283,163.450892 992.34676,170.567627 C989.840237,177.684362 988.586994,186.434681 988.586994,196.818848 Z" id="acked" fill="#8D3B72"></path>
                <path d="M25.378418,149.553223 L7.65380859,149.553223 L7.65380859,123.234863 C15.5314521,120.907378 21.4395962,118.736582 25.378418,116.722412 C29.3172397,114.708242 32.2265531,111.731791 34.1064453,107.792969 C35.2701881,105.465483 37.5528801,100.004926 40.9545898,91.4111328 L44.8486328,82.0117188 L75.0610352,82.0117188 L75.0610352,116.923828 L114.807129,116.923828 L114.807129,149.553223 L75.0610352,149.553223 L75.0610352,204.069824 C75.0610352,213.558804 75.5757598,220.451639 76.6052246,224.748535 C77.6346894,229.045432 79.3355187,231.820469 81.7077637,233.07373 C84.0800086,234.326992 87.7725986,234.953613 92.7856445,234.953613 C96.2768729,234.953613 100.305153,234.349371 104.870605,233.140869 C109.436058,231.932367 112.882475,230.522469 115.209961,228.911133 L121.118164,256.572266 C118.522122,258.98927 114.58336,261.406238 109.301758,263.823242 C104.020156,266.240246 97.9329772,268.232007 91.0400391,269.798584 C84.147101,271.365161 77.1647489,272.148438 70.0927734,272.148438 C59.2610135,272.148438 50.5554528,270.335711 43.9758301,266.710205 C37.3962073,263.084699 32.6517886,257.624141 29.7424316,250.328369 C26.8330746,243.032597 25.378418,233.700415 25.378418,222.331543 L25.378418,149.553223 Z M234.71462,114.506836 C240.264778,114.506836 243.979747,115.133457 245.859639,116.386719 L245.859639,165.397949 C241.652261,162.980945 236.191704,161.772461 229.477803,161.772461 C215.065296,161.772461 203.472802,166.651156 194.699971,176.408691 L194.699971,270 L144.883077,270 L144.883077,116.923828 L188.523213,116.923828 L190.671651,141.496582 C192.73058,136.304499 195.930825,131.649597 200.272481,127.531738 C204.614137,123.413879 209.761383,120.213634 215.714376,117.930908 C221.667368,115.648182 228.000719,114.506836 234.71462,114.506836 Z" id="tr" fill="#FFFFFF"></path>
            </g>
            <path d="M530.841797,305.70752 C532.689462,305.70752 534.229161,305.917478 535.460938,306.337402 C536.692714,306.757326 537.651527,307.523676 538.337402,308.636475 C539.023278,309.749273 539.366211,311.313466 539.366211,313.329102 L539.366211,330.335938 L537.476562,330.335938 C536.846677,330.335938 536.37077,330.293946 536.048828,330.209961 C535.726886,330.125976 535.474936,329.930015 535.292969,329.62207 C535.111002,329.314126 535.02002,328.824222 535.02002,328.152344 L535.02002,327.984375 C534.320146,328.628258 533.357835,329.18115 532.133057,329.643066 C530.908278,330.104983 529.631029,330.335938 528.30127,330.335938 C526.887525,330.335938 525.624273,330.062991 524.511475,329.51709 C523.398676,328.971189 522.530846,328.190842 521.907959,327.176025 C521.285072,326.161209 520.973633,324.967943 520.973633,323.596191 C520.973633,322.084465 521.383053,320.775722 522.201904,319.669922 C523.020756,318.564122 524.165032,317.710289 525.634766,317.108398 C526.93653,316.590492 528.409741,316.202068 530.054443,315.943115 C531.699146,315.684162 533.263339,315.554688 534.74707,315.554688 L534.74707,313.140137 C534.74707,312.020339 534.568605,311.180504 534.21167,310.620605 C533.854735,310.060707 533.31934,309.682781 532.605469,309.486816 C531.891598,309.290852 530.904791,309.192871 529.64502,309.192871 C528.973141,309.192871 528.199793,309.283853 527.324951,309.46582 C526.45011,309.647787 525.63127,309.875243 524.868408,310.148193 C524.105546,310.421144 523.542157,310.683592 523.178223,310.935547 L522.044434,307.912109 C522.408368,307.68815 523.069738,307.401206 524.028564,307.05127 C524.987391,306.701333 526.079177,306.389894 527.303955,306.116943 C528.528733,305.843993 529.708002,305.70752 530.841797,305.70752 Z M529.666016,326.892578 C530.323897,326.892578 531.016761,326.794597 531.744629,326.598633 C532.472497,326.402668 533.112872,326.168214 533.665771,325.895264 C534.218671,325.622313 534.579101,325.387859 534.74707,325.191895 L534.74707,318.494141 C533.725255,318.494141 532.573981,318.592121 531.293213,318.788086 C530.012445,318.98405 528.980147,319.270994 528.196289,319.648926 C527.342444,320.054852 526.684573,320.530759 526.222656,321.07666 C525.76074,321.622561 525.529785,322.329423 525.529785,323.197266 C525.529785,325.66082 526.908515,326.892578 529.666016,326.892578 Z M551.498208,295.0625 L551.498208,330 L546.879068,330 L546.879068,295.0625 L551.498208,295.0625 Z M564.365069,295.0625 L564.365069,330 L559.745928,330 L559.745928,295.0625 L564.365069,295.0625 Z M605.173985,306.064453 L597.111485,330.755859 C595.31981,336.228869 592.814301,339.420243 589.594884,340.330078 C589.272942,340.414063 588.895016,340.487549 588.461095,340.550537 C588.027173,340.613526 587.649248,340.64502 587.327306,340.64502 C586.963372,340.64502 586.508461,340.613526 585.96256,340.550537 C585.416659,340.487549 585.087723,340.421062 584.975743,340.351074 L584.975743,336.592773 C585.185705,336.662761 585.504143,336.71875 585.931066,336.760742 C586.357988,336.802735 586.711419,336.82373 586.991368,336.82373 C587.691242,336.82373 588.429597,336.634768 589.206456,336.256836 C589.983316,335.878904 590.735668,335.182541 591.463536,334.167725 C592.191404,333.152908 592.765292,331.763681 593.185216,330 L591.82047,330 L583.149083,306.064453 L588.083165,306.064453 L593.374181,322.189453 L594.591954,326.094727 L595.662755,322.189453 L600.197911,306.064453 L605.173985,306.064453 Z M607.668776,317.822266 C607.668776,315.260729 608.137684,313.073658 609.075514,311.260986 C610.013344,309.448315 611.30809,308.073084 612.959791,307.135254 C614.611492,306.197424 616.487125,305.728516 618.586745,305.728516 C621.008306,305.728516 623.002915,306.288406 624.570631,307.408203 C626.138347,308.528 627.286122,310.025707 628.013991,311.901367 C628.741859,313.777028 629.105788,315.890613 629.105788,318.242188 C629.105788,320.803724 628.636879,322.994294 627.699049,324.813965 C626.761219,326.633635 625.466473,328.008866 623.814772,328.939697 C622.163071,329.870529 620.28044,330.335938 618.166823,330.335938 C615.759259,330.335938 613.771648,329.776047 612.203932,328.65625 C610.636216,327.536453 609.488441,326.038746 608.760573,324.163086 C608.032704,322.287426 607.668776,320.17384 607.668776,317.822266 Z M624.423659,318.326172 C624.423659,316.534496 624.203202,314.942308 623.762282,313.549561 C623.321361,312.156813 622.645994,311.058028 621.736159,310.253174 C620.826323,309.44832 619.685547,309.045898 618.313795,309.045898 C616.368148,309.045898 614.887938,309.784254 613.873121,311.260986 C612.858305,312.737719 612.350905,314.847805 612.350905,317.591309 C612.350905,319.368987 612.574861,320.975172 613.02278,322.409912 C613.470699,323.844652 614.149566,324.97843 615.059401,325.811279 C615.969236,326.644129 617.096015,327.060547 618.439772,327.060547 C620.38542,327.060547 621.869129,326.297696 622.890944,324.771973 C623.912759,323.246249 624.423659,321.09767 624.423659,318.326172 Z M653.646476,306.064453 L653.646476,330.335938 L651.861808,330.335938 C651.315907,330.335938 650.881992,330.293946 650.56005,330.209961 C650.238109,330.125976 649.989657,329.95101 649.814689,329.685059 C649.639721,329.419107 649.552238,329.020185 649.552238,328.488281 L649.552238,327.900391 C648.460436,328.558272 647.204182,329.12866 645.783439,329.611572 C644.362696,330.094485 643.036456,330.335938 641.804679,330.335938 C639.859032,330.335938 638.368324,329.923018 637.332511,329.097168 C636.296699,328.271317 635.596836,327.127042 635.232902,325.664307 C634.868968,324.201571 634.687004,322.329438 634.687004,320.047852 L634.687004,306.064453 L639.306144,306.064453 L639.306144,320.026855 C639.306144,321.972503 639.449616,323.403723 639.736564,324.320557 C640.023512,325.237391 640.464426,325.835773 641.059318,326.115723 C641.65421,326.395672 642.532538,326.535645 643.694328,326.535645 C644.534176,326.535645 645.48249,326.35368 646.539299,325.989746 C647.596107,325.625812 648.425445,325.247886 649.027336,324.855957 L649.027336,306.064453 L653.646476,306.064453 Z M671.531403,305.70752 C672.651201,305.70752 673.428048,305.8055 673.86197,306.001465 L673.86197,310.32666 C673.568023,310.158691 673.186598,310.022217 672.717683,309.917236 C672.248767,309.812255 671.580399,309.759766 670.712556,309.759766 C669.648748,309.759766 668.665441,309.952228 667.762604,310.337158 C666.859768,310.722089 666.100417,311.187497 665.484528,311.733398 L665.484528,330 L660.865388,330 L660.865388,306.106445 L664.749665,306.106445 L665.064606,308.751953 C665.372551,308.332029 665.872953,307.884117 666.565827,307.408203 C667.258702,306.932289 668.049547,306.529868 668.938386,306.200928 C669.827225,305.871987 670.691555,305.70752 671.531403,305.70752 Z M710.765613,295.0625 L710.765613,330.335938 L708.770984,330.335938 C708.225083,330.335938 707.787669,330.293946 707.458728,330.209961 C707.129788,330.125976 706.870838,329.95101 706.681873,329.685059 C706.492907,329.419107 706.398425,329.020185 706.398425,328.488281 L706.398425,327.627441 C705.642562,328.397302 704.746738,329.041176 703.710925,329.559082 C702.675113,330.076988 701.352372,330.335938 699.742664,330.335938 C698.006978,330.335938 696.428787,329.912521 695.008044,329.065674 C693.587302,328.218827 692.450025,326.938078 691.596179,325.223389 C690.742334,323.508699 690.315418,321.405611 690.315418,318.914062 C690.315418,316.352526 690.81232,314.070974 691.80614,312.069336 C692.79996,310.067698 694.203185,308.510504 696.015857,307.397705 C697.828529,306.284907 699.924618,305.728516 702.304187,305.728516 C703.647944,305.728516 704.949689,305.924477 706.20946,306.316406 L706.146472,305.035645 L706.146472,295.0625 L710.765613,295.0625 Z M695.018543,318.515137 C695.018543,321.272637 695.532942,323.326735 696.561755,324.67749 C697.590569,326.028246 699.077778,326.703613 701.023425,326.703613 C702.04524,326.703613 702.993554,326.511151 703.868396,326.126221 C704.743238,325.74129 705.502589,325.289879 706.146472,324.771973 L706.146472,310.137695 C705.726548,309.773761 705.166658,309.507813 704.466785,309.339844 C703.766911,309.171874 702.892083,309.087891 701.842273,309.087891 C700.540509,309.087891 699.371738,309.451819 698.335925,310.179688 C697.300113,310.907556 696.488272,311.981845 695.900378,313.402588 C695.312485,314.823331 695.018543,316.527497 695.018543,318.515137 Z M735.789212,314.756836 C735.789212,315.890631 735.775214,316.768958 735.74722,317.391846 C735.719225,318.014733 735.656237,318.564125 735.558255,319.040039 L720.798001,319.040039 C720.811998,319.138021 720.818997,319.277994 720.818997,319.459961 C721.056954,324.387069 723.492476,326.850586 728.125638,326.850586 C728.965485,326.850586 730.029277,326.717612 731.317044,326.45166 C732.604811,326.185708 733.52863,325.884767 734.088528,325.548828 L734.970364,328.194336 C734.200503,328.824222 733.031733,329.338621 731.464016,329.737549 C729.8963,330.136477 728.370599,330.335938 726.886868,330.335938 C724.633276,330.335938 722.715652,329.849533 721.133938,328.876709 C719.552225,327.903885 718.348461,326.493662 717.52261,324.645996 C716.69676,322.798331 716.283841,320.579766 716.283841,317.990234 C716.283841,315.63866 716.69326,313.54607 717.512112,311.712402 C718.330964,309.878734 719.541727,308.433518 721.144436,307.376709 C722.747146,306.3199 724.689265,305.770508 726.970852,305.728516 C728.580561,305.700521 730.043274,306.029456 731.359036,306.715332 C732.674798,307.401208 733.728091,308.430006 734.518948,309.801758 C735.309805,311.173509 735.733222,312.825186 735.789212,314.756836 Z M731.464016,315.974609 C731.492011,315.52669 731.506009,315.197755 731.506009,314.987793 C731.506009,313.210115 731.145579,311.768397 730.42471,310.662598 C729.70384,309.556798 728.468582,309.003906 726.718899,309.003906 C725.165181,309.003906 723.873934,309.553299 722.84512,310.6521 C721.816306,311.750901 721.175932,313.525053 720.923977,315.974609 L731.464016,315.974609 Z M746.577459,295.0625 L746.577459,330 L741.958318,330 L741.958318,295.0625 L746.577459,295.0625 Z M759.360335,306.106445 L759.360335,330 L754.741195,330 L754.741195,306.106445 L759.360335,306.106445 Z M753.859359,298.883789 C753.859359,298.295895 754.023827,297.750003 754.352767,297.246094 C754.681707,296.742185 755.112123,296.343263 755.644027,296.049316 C756.17593,295.75537 756.714825,295.608398 757.260726,295.608398 C758.212554,295.608398 758.94391,295.874346 759.454818,296.40625 C759.965725,296.938154 760.221175,297.617021 760.221175,298.442871 C760.221175,299.05876 760.060207,299.61865 759.738265,300.122559 C759.416323,300.626467 758.996406,301.018391 758.478499,301.29834 C757.960593,301.578289 757.407702,301.718262 756.819808,301.718262 C756.287904,301.718262 755.798,301.602784 755.350081,301.371826 C754.902163,301.140868 754.541733,300.808433 754.268783,300.374512 C753.995832,299.94059 753.859359,299.443688 753.859359,298.883789 Z M786.378563,306.064453 L777.182274,330.335938 L773.297997,330.335938 L763.807762,306.064453 L768.783837,306.064453 L773.528954,319.690918 L775.292626,325.401855 L776.909325,319.690918 L781.465477,306.064453 L786.378563,306.064453 Z M808.315736,314.756836 C808.315736,315.890631 808.301739,316.768958 808.273744,317.391846 C808.245749,318.014733 808.182762,318.564125 808.084779,319.040039 L793.324525,319.040039 C793.338523,319.138021 793.345521,319.277994 793.345521,319.459961 C793.583478,324.387069 796.019001,326.850586 800.652162,326.850586 C801.49201,326.850586 802.555801,326.717612 803.843568,326.45166 C805.131335,326.185708 806.055154,325.884767 806.615053,325.548828 L807.496889,328.194336 C806.727028,328.824222 805.558257,329.338621 803.990541,329.737549 C802.422825,330.136477 800.897124,330.335938 799.413393,330.335938 C797.159801,330.335938 795.242176,329.849533 793.660463,328.876709 C792.078749,327.903885 790.874985,326.493662 790.049135,324.645996 C789.223284,322.798331 788.810365,320.579766 788.810365,317.990234 C788.810365,315.63866 789.219785,313.54607 790.038637,311.712402 C790.857488,309.878734 792.068251,308.433518 793.670961,307.376709 C795.273671,306.3199 797.21579,305.770508 799.497377,305.728516 C801.107085,305.700521 802.569799,306.029456 803.88556,306.715332 C805.201322,307.401208 806.254616,308.430006 807.045473,309.801758 C807.836329,311.173509 808.259746,312.825186 808.315736,314.756836 Z M803.990541,315.974609 C804.018536,315.52669 804.032533,315.197755 804.032533,314.987793 C804.032533,313.210115 803.672104,311.768397 802.951234,310.662598 C802.230365,309.556798 800.995107,309.003906 799.245424,309.003906 C797.691705,309.003906 796.400458,309.553299 795.371644,310.6521 C794.342831,311.750901 793.702456,313.525053 793.450502,315.974609 L803.990541,315.974609 Z M824.541972,305.70752 C825.661769,305.70752 826.438617,305.8055 826.872538,306.001465 L826.872538,310.32666 C826.578592,310.158691 826.197166,310.022217 825.728251,309.917236 C825.259336,309.812255 824.590967,309.759766 823.723124,309.759766 C822.659317,309.759766 821.67601,309.952228 820.773173,310.337158 C819.870337,310.722089 819.110985,311.187497 818.495097,311.733398 L818.495097,330 L813.875956,330 L813.875956,306.106445 L817.760234,306.106445 L818.075175,308.751953 C818.383119,308.332029 818.883521,307.884117 819.576396,307.408203 C820.26927,306.932289 821.060115,306.529868 821.948954,306.200928 C822.837793,305.871987 823.702124,305.70752 824.541972,305.70752 Z M836.212055,306.106445 L836.212055,330 L831.592915,330 L831.592915,306.106445 L836.212055,306.106445 Z M830.711079,298.883789 C830.711079,298.295895 830.875546,297.750003 831.204487,297.246094 C831.533427,296.742185 831.963843,296.343263 832.495747,296.049316 C833.02765,295.75537 833.566545,295.608398 834.112446,295.608398 C835.064273,295.608398 835.79563,295.874346 836.306538,296.40625 C836.817445,296.938154 837.072895,297.617021 837.072895,298.442871 C837.072895,299.05876 836.911927,299.61865 836.589985,300.122559 C836.268043,300.626467 835.848125,301.018391 835.330219,301.29834 C834.812313,301.578289 834.259421,301.718262 833.671528,301.718262 C833.139624,301.718262 832.64972,301.602784 832.201801,301.371826 C831.753882,301.140868 831.393453,300.808433 831.120502,300.374512 C830.847552,299.94059 830.711079,299.443688 830.711079,298.883789 Z M861.802549,314.756836 C861.802549,315.890631 861.788551,316.768958 861.760556,317.391846 C861.732562,318.014733 861.669574,318.564125 861.571592,319.040039 L846.811338,319.040039 C846.825335,319.138021 846.832334,319.277994 846.832334,319.459961 C847.070291,324.387069 849.505813,326.850586 854.138974,326.850586 C854.978822,326.850586 856.042614,326.717612 857.330381,326.45166 C858.618148,326.185708 859.541966,325.884767 860.101865,325.548828 L860.983701,328.194336 C860.21384,328.824222 859.045069,329.338621 857.477353,329.737549 C855.909637,330.136477 854.383936,330.335938 852.900205,330.335938 C850.646613,330.335938 848.728989,329.849533 847.147275,328.876709 C845.565562,327.903885 844.361798,326.493662 843.535947,324.645996 C842.710097,322.798331 842.297178,320.579766 842.297178,317.990234 C842.297178,315.63866 842.706597,313.54607 843.525449,311.712402 C844.344301,309.878734 845.555063,308.433518 847.157773,307.376709 C848.760483,306.3199 850.702602,305.770508 852.984189,305.728516 C854.593898,305.700521 856.056611,306.029456 857.372373,306.715332 C858.688135,307.401208 859.741428,308.430006 860.532285,309.801758 C861.323142,311.173509 861.746559,312.825186 861.802549,314.756836 Z M857.477353,315.974609 C857.505348,315.52669 857.519345,315.197755 857.519345,314.987793 C857.519345,313.210115 857.158916,311.768397 856.438047,310.662598 C855.717177,309.556798 854.481919,309.003906 852.732236,309.003906 C851.178517,309.003906 849.887271,309.553299 848.858457,310.6521 C847.829643,311.750901 847.189269,313.525053 846.937314,315.974609 L857.477353,315.974609 Z M866.879858,325.191895 C867.14581,325.373862 867.635714,325.601317 868.349585,325.874268 C869.063456,326.147218 869.896293,326.388671 870.84812,326.598633 C871.799948,326.808595 872.744763,326.913574 873.682593,326.913574 C875.054344,326.913574 876.107638,326.654625 876.842505,326.136719 C877.577372,325.618813 877.9448,324.897954 877.9448,323.974121 C877.9448,323.092281 877.528382,322.336429 876.695532,321.706543 C875.862683,321.076657 874.634424,320.418786 873.010718,319.73291 C870.897101,318.837072 869.255922,317.787278 868.087134,316.583496 C866.918345,315.379714 866.33396,313.861012 866.33396,312.027344 C866.33396,310.66959 866.715385,309.518315 867.478247,308.573486 C868.241109,307.628657 869.273407,306.918297 870.575171,306.442383 C871.876935,305.966469 873.346647,305.728516 874.984351,305.728516 C876.272118,305.728516 877.48288,305.868488 878.616675,306.148438 C879.75047,306.428387 880.56231,306.701333 881.052222,306.967285 L880.296362,310.452637 C879.904433,310.116698 879.211569,309.812257 878.217749,309.539307 C877.223929,309.266356 876.195131,309.129883 875.131323,309.129883 C873.661589,309.129883 872.53831,309.367836 871.76145,309.84375 C870.984591,310.319664 870.596167,310.970536 870.596167,311.796387 C870.596167,312.49626 870.774632,313.098142 871.131567,313.602051 C871.488503,314.10596 871.995903,314.546873 872.653784,314.924805 C873.311665,315.302736 874.172496,315.708657 875.236304,316.142578 C877.279934,316.968429 878.959604,317.965733 880.275366,319.134521 C881.591128,320.30331 882.248999,321.804516 882.248999,323.638184 C882.248999,325.065925 881.909566,326.280187 881.230689,327.281006 C880.551811,328.281825 879.579002,329.041176 878.312232,329.559082 C877.045461,330.076988 875.544255,330.335938 873.808569,330.335938 C872.254851,330.335938 870.746646,330.160972 869.283911,329.811035 C867.821176,329.461099 866.788878,329.069175 866.186987,328.635254 L866.879858,325.191895 Z M887.515274,338.020508 C888.299132,337.628579 888.953504,336.925217 889.478409,335.9104 C890.003314,334.895584 890.265762,333.7933 890.265762,332.603516 C890.265762,332.015622 890.143286,331.399743 889.89833,330.755859 C889.653375,330.111976 889.331438,329.566083 888.93251,329.118164 C888.533582,328.670245 888.124163,328.425293 887.704239,328.383301 L887.704239,327.060547 L890.622696,324.310059 C891.546528,324.645998 892.309379,325.188391 892.91127,325.937256 C893.513161,326.68612 893.950575,327.518957 894.223526,328.435791 C894.496476,329.352625 894.63295,330.251949 894.63295,331.133789 C894.63295,332.61752 894.380999,334.003249 893.87709,335.291016 C893.373181,336.578782 892.697814,337.674068 891.850967,338.576904 C891.00412,339.479741 890.076802,340.120115 889.068985,340.498047 L887.515274,338.566406 L887.515274,338.020508 Z M912.745089,317.822266 C912.745089,315.260729 913.213997,313.073658 914.151827,311.260986 C915.089657,309.448315 916.384403,308.073084 918.036104,307.135254 C919.687805,306.197424 921.563438,305.728516 923.663058,305.728516 C926.084619,305.728516 928.079228,306.288406 929.646944,307.408203 C931.21466,308.528 932.362435,310.025707 933.090304,311.901367 C933.818172,313.777028 934.182101,315.890613 934.182101,318.242188 C934.182101,320.803724 933.713192,322.994294 932.775362,324.813965 C931.837532,326.633635 930.542786,328.008866 928.891085,328.939697 C927.239384,329.870529 925.356753,330.335938 923.243136,330.335938 C920.835572,330.335938 918.847961,329.776047 917.280245,328.65625 C915.712529,327.536453 914.564754,326.038746 913.836886,324.163086 C913.109017,322.287426 912.745089,320.17384 912.745089,317.822266 Z M929.499972,318.326172 C929.499972,316.534496 929.279515,314.942308 928.838595,313.549561 C928.397674,312.156813 927.722307,311.058028 926.812472,310.253174 C925.902636,309.44832 924.76186,309.045898 923.390108,309.045898 C921.444461,309.045898 919.964251,309.784254 918.949434,311.260986 C917.934618,312.737719 917.427218,314.847805 917.427218,317.591309 C917.427218,319.368987 917.651174,320.975172 918.099093,322.409912 C918.547012,323.844652 919.225879,324.97843 920.135714,325.811279 C921.045549,326.644129 922.172328,327.060547 923.516085,327.060547 C925.461733,327.060547 926.945442,326.297696 927.967257,324.771973 C928.989072,323.246249 929.499972,321.09767 929.499972,318.326172 Z M944.004528,306.106445 L944.025524,308.625977 C945.117326,307.884111 946.47156,307.212243 948.088268,306.610352 C949.704975,306.008461 951.248173,305.70752 952.717906,305.70752 C954.369607,305.70752 955.685349,306.015459 956.665172,306.631348 C957.644995,307.247236 958.358855,308.234043 958.806774,309.591797 C959.254693,310.949551 959.478649,312.783192 959.478649,315.092773 L959.478649,330 L954.859508,330 L954.859508,315.071777 C954.859508,313.728021 954.754529,312.66073 954.544567,311.869873 C954.334605,311.079016 953.94968,310.487632 953.389781,310.095703 C952.829883,309.703774 952.018042,309.507812 950.954235,309.507812 C950.70228,309.507812 950.513317,309.514811 950.38734,309.528809 C949.547492,309.556804 948.585181,309.770262 947.500377,310.169189 C946.415574,310.568117 945.418269,311.096514 944.508434,311.754395 L944.508434,330 L939.889293,330 L939.889293,306.106445 L944.004528,306.106445 Z M984.586232,314.756836 C984.586232,315.890631 984.572235,316.768958 984.54424,317.391846 C984.516245,318.014733 984.453257,318.564125 984.355275,319.040039 L969.595021,319.040039 C969.609018,319.138021 969.616017,319.277994 969.616017,319.459961 C969.853974,324.387069 972.289497,326.850586 976.922658,326.850586 C977.762506,326.850586 978.826297,326.717612 980.114064,326.45166 C981.401831,326.185708 982.32565,325.884767 982.885548,325.548828 L983.767384,328.194336 C982.997524,328.824222 981.828753,329.338621 980.261037,329.737549 C978.69332,330.136477 977.16762,330.335938 975.683888,330.335938 C973.430296,330.335938 971.512672,329.849533 969.930958,328.876709 C968.349245,327.903885 967.145481,326.493662 966.31963,324.645996 C965.49378,322.798331 965.080861,320.579766 965.080861,317.990234 C965.080861,315.63866 965.490281,313.54607 966.309132,311.712402 C967.127984,309.878734 968.338747,308.433518 969.941457,307.376709 C971.544166,306.3199 973.486286,305.770508 975.767873,305.728516 C977.377581,305.700521 978.840294,306.029456 980.156056,306.715332 C981.471818,307.401208 982.525111,308.430006 983.315968,309.801758 C984.106825,311.173509 984.530242,312.825186 984.586232,314.756836 Z M980.261037,315.974609 C980.289032,315.52669 980.303029,315.197755 980.303029,314.987793 C980.303029,313.210115 979.942599,311.768397 979.22173,310.662598 C978.50086,309.556798 977.265603,309.003906 975.515919,309.003906 C973.962201,309.003906 972.670954,309.553299 971.64214,310.6521 C970.613326,311.750901 969.972952,313.525053 969.720998,315.974609 L980.261037,315.974609 Z M1014.87611,305.728516 C1016.61179,305.728516 1018.19348,306.151933 1019.62122,306.998779 C1021.04896,307.845626 1022.18974,309.126375 1023.04359,310.841064 C1023.89743,312.555754 1024.32435,314.658842 1024.32435,317.150391 C1024.32435,319.711927 1023.82745,321.99348 1022.83363,323.995117 C1021.8398,325.996755 1020.43658,327.55395 1018.62391,328.666748 C1016.81124,329.779547 1014.71515,330.335938 1012.33558,330.335938 C1010.90784,330.335938 1009.59909,330.132977 1008.40931,329.727051 L1008.4723,332.918457 L1008.4723,340.624023 L1003.85316,340.624023 L1003.85316,306.064453 L1008.03138,306.064453 L1008.03138,308.646973 C1008.81524,307.821122 1009.72506,307.128258 1010.76087,306.568359 C1011.79668,306.008461 1013.16841,305.728516 1014.87611,305.728516 Z M1019.62122,317.549316 C1019.62122,314.791816 1019.10682,312.737718 1018.07801,311.386963 C1017.0492,310.036207 1015.55499,309.36084 1013.59534,309.36084 C1012.57353,309.36084 1011.63221,309.553302 1010.77137,309.938232 C1009.91053,310.323163 1009.14418,310.781573 1008.4723,311.313477 L1008.4723,325.905762 C1008.90622,326.283693 1009.46961,326.55664 1010.16248,326.724609 C1010.85536,326.892579 1011.72669,326.976562 1012.7765,326.976562 C1014.09226,326.976562 1015.26803,326.612634 1016.30384,325.884766 C1017.33965,325.156897 1018.15149,324.086107 1018.73939,322.672363 C1019.32728,321.258619 1019.62122,319.550954 1019.62122,317.549316 Z M1035.1126,295.0625 L1035.1126,330 L1030.49345,330 L1030.49345,295.0625 L1035.1126,295.0625 Z M1051.06588,305.70752 C1052.91355,305.70752 1054.45325,305.917478 1055.68502,306.337402 C1056.9168,306.757326 1057.87561,307.523676 1058.56149,308.636475 C1059.24736,309.749273 1059.5903,311.313466 1059.5903,313.329102 L1059.5903,330.335938 L1057.70065,330.335938 C1057.07076,330.335938 1056.59485,330.293946 1056.27291,330.209961 C1055.95097,330.125976 1055.69902,329.930015 1055.51705,329.62207 C1055.33509,329.314126 1055.2441,328.824222 1055.2441,328.152344 L1055.2441,327.984375 C1054.54423,328.628258 1053.58192,329.18115 1052.35714,329.643066 C1051.13236,330.104983 1049.85511,330.335938 1048.52535,330.335938 C1047.11161,330.335938 1045.84836,330.062991 1044.73556,329.51709 C1043.62276,328.971189 1042.75493,328.190842 1042.13204,327.176025 C1041.50916,326.161209 1041.19772,324.967943 1041.19772,323.596191 C1041.19772,322.084465 1041.60714,320.775722 1042.42599,319.669922 C1043.24484,318.564122 1044.38912,317.710289 1045.85885,317.108398 C1047.16061,316.590492 1048.63383,316.202068 1050.27853,315.943115 C1051.92323,315.684162 1053.48742,315.554688 1054.97115,315.554688 L1054.97115,313.140137 C1054.97115,312.020339 1054.79269,311.180504 1054.43575,310.620605 C1054.07882,310.060707 1053.54342,309.682781 1052.82955,309.486816 C1052.11568,309.290852 1051.12888,309.192871 1049.8691,309.192871 C1049.19723,309.192871 1048.42388,309.283853 1047.54904,309.46582 C1046.67419,309.647787 1045.85535,309.875243 1045.09249,310.148193 C1044.32963,310.421144 1043.76624,310.683592 1043.40231,310.935547 L1042.26852,307.912109 C1042.63245,307.68815 1043.29382,307.401206 1044.25265,307.05127 C1045.21148,306.701333 1046.30326,306.389894 1047.52804,306.116943 C1048.75282,305.843993 1049.93209,305.70752 1051.06588,305.70752 Z M1049.8901,326.892578 C1050.54798,326.892578 1051.24085,326.794597 1051.96871,326.598633 C1052.69658,326.402668 1053.33696,326.168214 1053.88986,325.895264 C1054.44276,325.622313 1054.80319,325.387859 1054.97115,325.191895 L1054.97115,318.494141 C1053.94934,318.494141 1052.79807,318.592121 1051.5173,318.788086 C1050.23653,318.98405 1049.20423,319.270994 1048.42037,319.648926 C1047.56653,320.054852 1046.90866,320.530759 1046.44674,321.07666 C1045.98482,321.622561 1045.75387,322.329423 1045.75387,323.197266 C1045.75387,325.66082 1047.1326,326.892578 1049.8901,326.892578 Z M1076.57239,305.728516 C1077.93014,305.728516 1079.13391,305.85799 1080.18372,306.116943 C1081.23353,306.375896 1081.98938,306.659341 1082.4513,306.967285 L1081.71643,310.620605 C1081.07255,310.172687 1080.3167,309.840252 1079.44886,309.623291 C1078.58101,309.40633 1077.54522,309.297852 1076.34143,309.297852 C1075.13765,309.297852 1074.01437,309.605791 1072.97156,310.22168 C1071.92875,310.837568 1071.08541,311.79988 1070.44153,313.108643 C1069.79765,314.417406 1069.47571,316.065583 1069.47571,318.053223 C1069.47571,319.900888 1069.76965,321.486077 1070.35755,322.808838 C1070.94544,324.131598 1071.75028,325.135902 1072.7721,325.821777 C1073.79391,326.507653 1074.94169,326.850586 1076.21546,326.850586 C1077.32126,326.850586 1078.39905,326.707114 1079.44886,326.420166 C1080.49867,326.133218 1081.3245,325.807782 1081.92639,325.443848 L1082.87122,328.068359 C1082.12935,328.754235 1081.09356,329.303627 1079.7638,329.716553 C1078.43404,330.129478 1077.02031,330.335938 1075.52259,330.335938 C1073.33898,330.335938 1071.45285,329.81454 1069.86414,328.771729 C1068.27543,327.728917 1067.06816,326.297698 1066.24231,324.478027 C1065.41646,322.658357 1065.00354,320.593762 1065.00354,318.28418 C1065.00354,315.890613 1065.44096,313.745534 1066.3158,311.848877 C1067.19064,309.95222 1068.49588,308.458013 1070.23157,307.366211 C1071.96726,306.274409 1074.08084,305.728516 1076.57239,305.728516 Z M1105.54326,314.756836 C1105.54326,315.890631 1105.52926,316.768958 1105.50126,317.391846 C1105.47327,318.014733 1105.41028,318.564125 1105.3123,319.040039 L1090.55204,319.040039 C1090.56604,319.138021 1090.57304,319.277994 1090.57304,319.459961 C1090.811,324.387069 1093.24652,326.850586 1097.87968,326.850586 C1098.71953,326.850586 1099.78332,326.717612 1101.07109,326.45166 C1102.35885,326.185708 1103.28267,325.884767 1103.84257,325.548828 L1104.72441,328.194336 C1103.95455,328.824222 1102.78578,329.338621 1101.21806,329.737549 C1099.65034,330.136477 1098.12464,330.335938 1096.64091,330.335938 C1094.38732,330.335938 1092.4697,329.849533 1090.88798,328.876709 C1089.30627,327.903885 1088.1025,326.493662 1087.27665,324.645996 C1086.4508,322.798331 1086.03788,320.579766 1086.03788,317.990234 C1086.03788,315.63866 1086.4473,313.54607 1087.26616,311.712402 C1088.08501,309.878734 1089.29577,308.433518 1090.89848,307.376709 C1092.50119,306.3199 1094.44331,305.770508 1096.7249,305.728516 C1098.3346,305.700521 1099.79732,306.029456 1101.11308,306.715332 C1102.42884,307.401208 1103.48213,308.430006 1104.27299,309.801758 C1105.06385,311.173509 1105.48727,312.825186 1105.54326,314.756836 Z M1101.21806,315.974609 C1101.24605,315.52669 1101.26005,315.197755 1101.26005,314.987793 C1101.26005,313.210115 1100.89962,311.768397 1100.17875,310.662598 C1099.45788,309.556798 1098.22263,309.003906 1096.47294,309.003906 C1094.91922,309.003906 1093.62798,309.553299 1092.59916,310.6521 C1091.57035,311.750901 1090.92998,313.525053 1090.67802,315.974609 L1101.21806,315.974609 Z" id="all-your-deliveries," fill="#8D3B72"></path>
        </g>
    </g>
</svg>