<svg height="480pt" viewBox="0 -56 480 480" width="480pt" xmlns="http://www.w3.org/2000/svg"><path d="m376 256c-30.929688 0-56 25.070312-56 56s25.070312 56 56 56 56-25.070312 56-56-25.070312-56-56-56zm0 96c-22.089844 0-40-17.910156-40-40s17.910156-40 40-40 40 17.910156 40 40-17.910156 40-40 40zm0 0"/><path d="m376 288c-13.253906 0-24 10.746094-24 24s10.746094 24 24 24 24-10.746094 24-24-10.746094-24-24-24zm0 32c-4.417969 0-8-3.582031-8-8s3.582031-8 8-8 8 3.582031 8 8-3.582031 8-8 8zm0 0"/><path d="m120 256c-30.929688 0-56 25.070312-56 56s25.070312 56 56 56 56-25.070312 56-56-25.070312-56-56-56zm0 96c-22.089844 0-40-17.910156-40-40s17.910156-40 40-40 40 17.910156 40 40-17.910156 40-40 40zm0 0"/><path d="m120 288c-13.253906 0-24 10.746094-24 24s10.746094 24 24 24 24-10.746094 24-24-10.746094-24-24-24zm0 32c-4.417969 0-8-3.582031-8-8s3.582031-8 8-8 8 3.582031 8 8-3.582031 8-8 8zm0 0"/><path d="m440 208h-17.761719l-16.398437-65.679688c-4.441406-17.8125-20.441406-30.316406-38.800782-30.320312h-95.039062v-88c0-13.253906-10.746094-24-24-24h-224c-13.253906 0-24 10.746094-24 24v272c0 13.253906 10.746094 24 24 24h16c4.417969 0 8-3.582031 8-8s-3.582031-8-8-8h-16c-4.417969 0-8-3.582031-8-8v-72h240v80h-56c-4.417969 0-8 3.582031-8 8s3.582031 8 8 8h96c4.417969 0 8-3.582031 8-8s-3.582031-8-8-8h-24v-80h144v8c0 13.253906 10.746094 24 24 24h24v40c0 4.417969-3.582031 8-8 8s-8 3.582031-8 8 3.582031 8 8 8c13.253906 0 24-10.746094 24-24v-48c0-22.089844-17.910156-40-40-40zm-120-80v56c0 4.417969 3.582031 8 8 8s8-3.582031 8-8v-56h31.039062c11.007813 0 20.601563 7.484375 23.28125 18.160156l15.441407 61.839844h-133.761719v-80zm-304-104c0-4.417969 3.582031-8 8-8h224c4.417969 0 8 3.582031 8 8v184h-240zm416 208v-8h8c10.144531.027344 19.179688 6.433594 22.558594 16h-22.558594c-4.417969 0-8-3.582031-8-8zm0 0"/><path d="m216 80h-64v-24c0-4.417969-3.582031-8-8-8h-56c-4.417969 0-8 3.582031-8 8v24c0 4.417969 3.582031 8 8 8s8-3.582031 8-8v-16h40v16h-16c-4.417969 0-8 3.582031-8 8v16h-48c-4.417969 0-8 3.582031-8 8v56c0 4.417969 3.582031 8 8 8h152c4.417969 0 8-3.582031 8-8v-80c0-4.417969-3.582031-8-8-8zm-40 16v16h-16v-16zm-104 24h40v40h-40zm136 40h-80v-64h16v24c0 4.417969 3.582031 8 8 8h32c4.417969 0 8-3.582031 8-8v-24h16zm0 0"/></svg>